<?xml version="1.0" standalone="no"?>
<!DOCTYPE svg PUBLIC "-//W3C//DTD SVG 20010904//EN"
 "http://www.w3.org/TR/2001/REC-SVG-20010904/DTD/svg10.dtd">
<svg version="1.0" xmlns="http://www.w3.org/2000/svg"
 width="140.000000pt" height="140.000000pt" viewBox="0 0 140.000000 140.000000"
 preserveAspectRatio="xMidYMid meet">
<metadata>
Created by potrace 1.16, written by Peter Selinger 2001-2019
</metadata>
<g transform="translate(0.000000,140.000000) scale(0.014737,-0.014737)"
fill="#000000" stroke="none">
<path d="M4977 8951 c-5 -23 -4 -24 7 -8 7 9 16 14 19 10 4 -3 7 0 7 9 0 25
-28 16 -33 -11z"/>
<path d="M4761 8919 c-14 -5 -30 -8 -36 -6 -10 4 -81 -5 -135 -18 -52 -13 -90
-15 -90 -6 0 6 -12 4 -27 -3 -48 -24 -116 -42 -200 -53 -37 -5 -43 -3 -44 13
0 15 -2 13 -10 -6 -5 -14 -17 -31 -26 -37 -16 -12 -16 -13 0 -13 9 0 20 7 25
16 5 9 18 14 33 12 l24 -3 -32 -33 c-17 -17 -28 -32 -23 -32 5 0 12 5 15 10 4
6 10 8 15 5 5 -3 12 6 16 20 8 31 35 47 86 50 20 1 43 7 50 12 13 11 50 18
138 28 25 3 59 10 75 15 17 5 57 11 90 14 53 4 134 25 95 25 -8 0 -26 -5 -39
-10z"/>
<path d="M4830 8914 c-16 -10 -18 -13 -5 -8 11 4 31 6 45 5 14 -1 54 -1 90 0
102 3 162 2 205 -5 22 -4 58 -9 80 -11 36 -4 89 -14 152 -28 12 -3 32 -11 44
-17 12 -7 44 -13 73 -15 28 -2 67 -12 86 -21 19 -10 44 -20 54 -21 11 -2 25
-8 32 -14 7 -6 21 -9 32 -7 10 2 27 -4 36 -12 10 -8 23 -15 30 -16 6 -1 20 -5
31 -9 11 -3 3 3 -17 14 -20 12 -40 25 -43 31 -3 6 -17 7 -30 4 -12 -3 -26 -1
-29 5 -4 6 -14 11 -22 11 -8 0 -34 9 -57 20 -23 12 -68 23 -100 25 -32 2 -64
8 -71 14 -16 13 -128 39 -198 46 -29 3 -66 8 -83 11 -58 10 -121 11 -183 3
-35 -5 -69 -6 -75 -2 -22 14 -52 12 -77 -3z"/>
<path d="M4312 8870 c0 -14 2 -19 5 -12 2 6 2 18 0 25 -3 6 -5 1 -5 -13z"/>
<path d="M4866 8859 c5 -9 -1 -10 -22 -5 -21 5 -25 4 -14 -4 22 -14 47 -12 54
5 3 9 0 15 -10 15 -9 0 -12 -5 -8 -11z"/>
<path d="M4940 8845 c0 -8 2 -15 4 -15 2 0 6 7 10 15 3 8 1 15 -4 15 -6 0 -10
-7 -10 -15z"/>
<path d="M4156 8811 c-14 -16 -57 -31 -101 -35 -18 -2 -89 -28 -125 -46 -59
-29 -110 -50 -123 -50 -18 0 -98 -39 -120 -58 -15 -13 -20 -14 -27 -3 -6 11
-11 9 -21 -8 -18 -30 -86 -62 -115 -55 -17 4 -32 -4 -62 -35 -22 -23 -54 -46
-72 -52 -17 -6 -29 -13 -27 -15 11 -11 76 24 110 58 28 29 43 37 58 33 23 -8
105 29 113 50 3 9 12 12 21 9 9 -4 23 0 33 9 19 17 81 45 157 72 28 10 71 29
98 42 26 13 47 20 47 17 0 -4 7 -1 15 6 9 7 25 14 38 15 46 5 105 26 117 40
19 23 6 28 -14 6z"/>
<path d="M4358 8796 c-20 -15 -23 -26 -8 -26 5 0 14 9 20 20 12 23 11 24 -12
6z"/>
<path d="M4549 8759 c-10 -20 -10 -22 2 -13 11 9 19 5 37 -17 13 -17 18 -30
12 -34 -5 -3 -10 -12 -10 -18 0 -7 7 -4 15 7 15 20 35 14 35 -12 0 -14 2 -15
10 -2 10 16 -5 40 -26 40 -7 0 -24 16 -38 36 l-24 36 -13 -23z"/>
<path d="M4840 8736 c0 -8 -7 -19 -15 -26 -8 -7 -12 -17 -8 -22 3 -6 11 -2 17
9 9 16 16 19 34 12 12 -5 22 -14 22 -20 0 -7 3 -9 7 -5 4 3 -8 20 -25 36 -18
17 -32 23 -32 16z"/>
<path d="M4910 8734 c-15 -8 -19 -14 -9 -14 8 0 20 5 25 10 7 7 21 -5 43 -36
33 -48 35 -79 5 -67 -12 4 -15 3 -10 -5 4 -7 19 -9 35 -6 20 4 30 1 34 -10 4
-9 12 -16 19 -16 7 0 1 12 -14 25 -16 13 -28 32 -28 42 1 25 26 57 35 44 3 -6
15 -11 25 -11 12 0 25 -13 36 -35 15 -33 34 -55 34 -40 0 3 -10 23 -22 44 -28
50 -81 69 -104 37 -14 -21 -15 -21 -47 15 -30 34 -34 36 -57 23z"/>
<path d="M5840 8741 c0 -6 3 -11 8 -11 4 0 31 -16 61 -35 29 -19 59 -35 67
-35 8 0 26 -8 41 -17 14 -10 31 -18 37 -19 15 -2 100 -60 116 -79 7 -8 21 -15
31 -15 10 0 20 -4 23 -9 3 -5 32 -24 64 -41 31 -18 61 -39 65 -47 5 -7 12 -11
17 -8 5 3 16 -6 25 -20 8 -14 22 -37 31 -51 8 -14 18 -24 20 -21 6 6 -37 80
-53 90 -6 4 -18 14 -26 21 -7 8 -39 28 -70 46 -31 17 -60 36 -63 41 -3 5 -13
9 -23 9 -10 0 -25 7 -32 16 -25 31 -193 127 -203 117 -3 -3 -17 4 -33 14 -15
11 -35 23 -43 26 -8 4 -25 14 -37 23 -14 10 -23 12 -23 5z"/>
<path d="M4234 8708 c-6 -20 -8 -20 -19 -5 -13 18 -61 24 -50 7 4 -6 11 -8 16
-5 5 3 15 0 22 -7 11 -10 11 -17 -2 -40 -13 -23 -23 -28 -53 -28 -36 0 -86
-35 -72 -49 3 -3 10 2 15 11 6 10 16 15 27 12 14 -5 15 -4 2 5 -13 9 -13 11 2
11 9 0 19 -6 21 -12 4 -10 6 -10 6 0 1 7 14 12 31 12 20 0 28 4 24 13 -2 7 5
22 16 34 11 12 20 26 20 32 0 5 5 11 12 13 9 3 9 6 1 11 -7 4 -14 -2 -19 -15z"/>
<path d="M4361 8709 c-13 -5 -29 -8 -34 -6 -25 8 -87 -83 -87 -128 0 -29 15
-15 17 16 3 40 47 99 76 100 30 1 99 27 72 28 -11 0 -31 -5 -44 -10z"/>
<path d="M4527 8714 c-4 -4 -4 -17 -1 -29 3 -13 1 -26 -5 -29 -6 -4 -11 -15
-11 -24 1 -15 2 -15 15 2 8 10 14 34 13 52 -1 37 -2 37 -11 28z"/>
<path d="M3970 8695 c-11 -13 -10 -14 4 -9 9 3 16 10 16 15 0 13 -6 11 -20 -6z"/>
<path d="M4439 8697 c7 -9 18 -17 24 -17 5 0 16 -8 24 -17 10 -13 13 -14 10
-3 -2 8 -19 24 -38 34 -29 17 -32 17 -20 3z"/>
<path d="M5845 8700 c3 -5 8 -10 11 -10 2 0 4 5 4 10 0 6 -5 10 -11 10 -5 0
-7 -4 -4 -10z"/>
<path d="M4925 8680 c-3 -5 -17 -10 -29 -10 -39 0 -50 -25 -47 -109 1 -19 4
-31 7 -28 4 3 6 28 6 56 -2 48 16 80 36 67 5 -3 17 3 27 14 10 11 15 20 12 20
-3 0 -9 -4 -12 -10z"/>
<path d="M3896 8655 c-11 -8 -36 -16 -55 -16 -34 -2 -35 -2 -6 -6 17 -3 36
-10 43 -15 7 -6 15 -8 19 -4 3 3 1 6 -7 6 -29 0 13 30 44 31 26 0 28 2 11 9
-27 12 -27 11 -49 -5z"/>
<path d="M4674 8658 c-4 -7 -9 -26 -11 -43 -2 -27 -1 -28 9 -10 7 11 12 25 13
30 0 21 20 17 32 -6 12 -22 13 -22 13 -3 0 36 -40 59 -56 32z"/>
<path d="M3587 8633 c-4 -3 -7 -11 -7 -17 0 -6 5 -5 12 2 6 6 9 14 7 17 -3 3
-9 2 -12 -2z"/>
<path d="M4877 8633 c-4 -3 1 -12 10 -18 15 -11 15 -15 4 -29 -7 -9 -9 -16 -3
-16 17 0 23 31 9 51 -8 10 -17 16 -20 12z"/>
<path d="M4446 8606 c9 -25 64 -28 64 -4 0 7 -5 6 -14 -1 -11 -9 -17 -8 -29 4
-19 19 -28 19 -21 1z"/>
<path d="M5092 8569 c-18 -12 -31 -24 -28 -26 3 -3 17 4 32 16 l27 22 28 -31
c15 -16 31 -30 35 -30 4 0 0 8 -9 18 -10 10 -17 22 -17 25 0 14 27 7 43 -11
13 -15 14 -21 4 -32 -10 -12 -9 -12 5 -1 16 12 16 15 1 38 -12 18 -23 23 -40
20 -13 -2 -26 0 -29 4 -8 13 -15 11 -52 -12z"/>
<path d="M3873 8573 c-7 -3 -17 -22 -23 -43 -6 -22 -21 -52 -35 -68 -23 -27
-23 -28 -4 -40 11 -7 19 -8 19 -2 0 5 -5 10 -11 10 -6 0 -1 13 10 29 12 16 21
32 21 35 0 4 7 23 15 43 15 34 16 35 29 17 8 -10 17 -16 20 -13 9 9 -27 37
-41 32z"/>
<path d="M4940 8563 c19 -9 42 -16 50 -17 9 -1 16 -13 18 -28 2 -20 9 -28 23
-28 10 0 19 6 19 12 0 7 8 1 17 -12 10 -14 16 -29 15 -35 -2 -5 3 -4 10 3 11
11 10 15 -3 25 -9 7 -24 27 -33 46 -13 24 -20 30 -26 21 -5 -8 -13 -9 -21 -4
-18 11 -81 34 -94 33 -5 0 6 -7 25 -16z m100 -57 c-14 -14 -24 0 -16 21 6 15
8 15 16 3 6 -9 5 -19 0 -24z"/>
<path d="M4787 8541 c-4 -19 -15 -44 -25 -54 -13 -16 -14 -19 -2 -15 20 6 42
53 38 81 -3 17 -5 15 -11 -12z"/>
<path d="M3684 8529 c-8 -8 -14 -19 -14 -24 0 -4 8 1 18 11 9 11 25 18 34 16
10 -2 25 1 35 7 14 8 10 9 -20 8 -21 -1 -45 -9 -53 -18z"/>
<path d="M3811 8533 c0 -6 -4 -20 -7 -30 -5 -14 -4 -15 5 -7 7 7 11 20 8 30
-3 11 -5 14 -6 7z"/>
<path d="M5242 8528 c3 -18 -24 -58 -39 -58 -6 0 -15 -4 -18 -10 -3 -6 1 -7 9
-4 17 7 21 -6 8 -21 -5 -6 -5 -21 -1 -35 8 -24 9 -24 5 3 -2 18 2 31 10 34 8
3 11 9 8 14 -3 5 4 21 15 35 11 14 17 32 14 40 -6 17 -15 19 -11 2z"/>
<path d="M3405 8509 c-11 -17 1 -21 15 -4 8 9 8 15 2 15 -6 0 -14 -5 -17 -11z"/>
<path d="M3501 8500 c-17 -15 -19 -20 -7 -20 8 0 20 9 26 20 13 25 11 25 -19
0z"/>
<path d="M5381 8485 c-13 -36 -25 -44 -36 -24 -4 6 -13 8 -21 5 -8 -3 -24 4
-35 15 -11 11 -23 19 -25 16 -7 -7 33 -38 56 -42 13 -3 26 -9 30 -15 6 -10 16
-2 47 40 7 9 9 21 4 28 -4 7 -12 -1 -20 -23z"/>
<path d="M3560 8481 c-8 -5 -39 -14 -68 -20 -59 -12 -132 -46 -132 -62 0 -5
12 -1 28 10 15 11 59 29 99 40 67 18 121 40 98 40 -5 0 -17 -3 -25 -8z"/>
<path d="M3314 8453 c-16 -15 -36 -26 -44 -25 -9 1 -37 -20 -64 -48 -27 -28
-54 -49 -60 -47 -18 7 -79 -29 -116 -68 -37 -40 -125 -108 -151 -117 -8 -3
-49 -33 -91 -67 -64 -51 -76 -66 -80 -95 -2 -19 0 -32 4 -30 4 3 8 16 8 29 0
17 20 40 77 85 42 34 84 65 92 68 25 9 122 86 165 131 22 22 53 43 70 47 42 9
64 23 104 67 38 41 52 46 52 20 0 -12 9 -5 25 19 13 20 30 38 37 41 7 2 10 7
7 11 -3 3 -19 -6 -35 -21z"/>
<path d="M5960 8473 c0 -7 -7 -13 -15 -13 -8 0 -17 -11 -21 -25 -7 -29 -19
-32 -34 -7 -10 15 -10 15 -8 -3 5 -31 44 -32 52 -1 6 24 36 38 36 17 0 -5 6
-16 14 -23 12 -12 11 -18 -5 -39 -15 -20 -19 -21 -19 -6 0 9 -5 17 -10 17 -7
0 -7 -8 1 -22 l12 -22 23 27 c27 32 70 36 79 8 4 -13 18 -20 51 -24 27 -3 54
-13 68 -26 12 -11 28 -21 34 -21 7 0 24 -13 39 -30 14 -16 32 -30 39 -30 7 0
17 -6 21 -13 4 -7 22 -21 38 -31 17 -10 40 -32 53 -47 13 -16 30 -29 37 -29
25 0 242 -227 304 -318 22 -33 45 -63 51 -67 5 -3 18 -26 29 -51 12 -25 43
-73 71 -106 28 -33 50 -70 50 -83 0 -12 7 -28 15 -35 8 -7 15 -23 15 -36 0
-16 10 -28 30 -39 17 -9 30 -21 30 -28 0 -6 9 -23 20 -37 11 -14 20 -37 20
-51 0 -15 7 -32 15 -39 8 -7 15 -22 15 -34 0 -12 9 -25 23 -31 17 -8 22 -17
20 -45 -1 -19 1 -27 3 -17 5 15 8 14 33 -9 15 -14 41 -54 57 -90 16 -35 32
-64 37 -64 12 0 8 17 -8 30 -8 7 -15 18 -15 24 0 20 -37 86 -64 113 -14 14
-26 32 -26 40 0 7 -11 19 -25 25 -16 7 -25 19 -25 34 0 12 -7 24 -15 28 -9 3
-15 18 -15 38 0 18 -9 44 -20 58 -11 14 -20 31 -20 37 0 7 -14 20 -31 29 -22
11 -30 21 -26 34 3 11 -3 26 -14 36 -10 9 -19 26 -19 37 0 19 -75 127 -89 127
-3 0 -15 21 -25 48 -10 26 -29 58 -41 72 -12 14 -37 48 -56 75 -51 77 -273
305 -296 305 -7 0 -22 14 -35 30 -12 17 -27 30 -33 30 -7 0 -25 13 -41 30 -16
16 -34 30 -41 30 -6 0 -20 11 -31 25 -11 14 -25 25 -30 25 -6 0 -24 11 -40 25
-18 15 -49 28 -75 31 -32 5 -48 12 -54 27 -7 15 -19 21 -44 21 -28 1 -36 6
-51 36 -9 19 -17 29 -18 23z"/>
<path d="M3630 8463 c14 -3 29 -9 35 -14 5 -5 18 -9 30 -9 15 1 11 5 -14 15
-18 8 -43 14 -55 14 -18 -2 -17 -2 4 -6z"/>
<path d="M5420 8434 c0 -21 5 -46 10 -54 7 -10 8 1 4 35 -8 62 -14 70 -14 19z"/>
<path d="M5723 8427 c-19 -23 -24 -37 -15 -37 5 0 14 10 19 23 l11 22 10 -27
c10 -25 33 -32 49 -13 4 4 3 5 -4 1 -6 -3 -18 2 -25 12 -19 27 -35 33 -45 19z"/>
<path d="M5378 8411 c-9 -9 -24 -22 -32 -29 -9 -7 -16 -18 -16 -25 0 -7 8 -3
16 8 8 11 19 19 24 18 11 -3 43 34 33 39 -4 3 -16 -2 -25 -11z"/>
<path d="M6434 8408 c-4 -7 -4 -10 1 -6 5 5 17 -6 27 -23 11 -17 28 -33 38
-36 11 -3 29 -21 41 -40 12 -19 24 -32 26 -29 10 9 -37 74 -57 79 -11 3 -28
19 -37 36 -20 34 -28 38 -39 19z"/>
<path d="M5810 8392 c0 -13 35 -21 60 -15 11 3 17 9 14 15 -3 5 -11 4 -19 -2
-10 -8 -19 -8 -34 0 -12 6 -21 7 -21 2z"/>
<path d="M6360 8390 c0 -5 5 -10 11 -10 5 0 7 5 4 10 -3 6 -8 10 -11 10 -2 0
-4 -4 -4 -10z"/>
<path d="M5623 8369 c-4 -13 -12 -19 -22 -16 -9 2 -22 6 -29 8 -8 2 -21 -6
-29 -18 -9 -13 -11 -23 -5 -23 5 0 12 9 15 20 5 18 7 19 33 5 15 -7 31 -12 35
-10 4 3 12 -2 19 -10 9 -11 16 -12 31 -2 10 6 19 16 19 21 0 4 -7 2 -17 -5
-13 -11 -17 -11 -20 -1 -3 6 -9 9 -15 6 -7 -5 -9 2 -4 20 3 14 4 26 0 26 -3 0
-8 -9 -11 -21z"/>
<path d="M3311 8366 c-7 -8 -26 -18 -43 -21 -19 -5 -26 -10 -19 -14 13 -9 0
-23 -31 -34 -9 -3 -22 -16 -29 -29 l-12 -23 25 23 c13 12 30 22 36 22 6 0 19
11 27 24 9 13 24 27 33 30 9 4 28 13 42 21 24 14 24 15 4 15 -12 0 -27 -6 -33
-14z"/>
<path d="M6020 8365 c-7 -8 -8 -15 -2 -15 5 0 15 7 22 15 7 8 8 15 2 15 -5 0
-15 -7 -22 -15z"/>
<path d="M5710 8342 c26 -33 43 -42 34 -18 -3 8 -17 23 -32 32 l-26 17 24 -31z"/>
<path d="M5765 8350 c-4 -12 -5 -24 -2 -27 3 -2 8 5 12 17 4 12 5 24 2 27 -3
2 -8 -5 -12 -17z"/>
<path d="M3361 8344 c0 -12 6 -27 14 -34 10 -9 15 -9 15 -1 0 6 -4 11 -9 11
-5 0 -12 10 -14 23 -4 21 -4 21 -6 1z"/>
<path d="M5812 8320 c17 -35 22 -38 39 -27 10 6 19 17 19 24 0 27 21 22 31 -6
6 -17 15 -31 19 -31 5 0 3 15 -5 33 -7 17 -18 32 -24 31 -6 -1 -17 -2 -25 -2
-8 -1 -13 -9 -12 -18 2 -29 -19 -25 -32 6 -8 16 -17 30 -22 30 -4 0 1 -18 12
-40z"/>
<path d="M6120 8322 c0 -6 13 -21 29 -34 22 -19 26 -29 19 -41 -6 -11 -5 -17
2 -17 5 0 10 7 10 15 0 14 3 13 24 -2 14 -10 30 -28 37 -41 9 -16 15 -19 21
-10 4 7 8 9 8 4 0 -11 30 14 30 25 0 5 -8 4 -18 -2 -20 -13 -26 -9 -119 75
-24 21 -43 34 -43 28z"/>
<path d="M6450 8313 c0 -12 38 -48 45 -41 3 2 -6 15 -20 28 -14 13 -25 19 -25
13z"/>
<path d="M3148 8263 c-11 -25 -77 -68 -153 -102 -17 -7 -64 -49 -165 -145 -46
-44 -156 -170 -165 -189 -12 -26 -47 -80 -57 -87 -4 -3 -12 -17 -17 -30 -14
-33 -30 -55 -63 -92 -16 -17 -28 -38 -28 -48 0 -9 -22 -40 -49 -67 -27 -27
-54 -66 -61 -89 -16 -50 -16 -50 -73 -120 -26 -33 -68 -99 -93 -149 -25 -49
-56 -101 -70 -116 -13 -14 -24 -33 -24 -43 0 -10 -11 -40 -25 -68 -14 -27 -25
-55 -25 -62 0 -8 -9 -25 -21 -39 -11 -15 -21 -37 -22 -49 -1 -13 -12 -37 -24
-55 -13 -17 -23 -34 -23 -39 0 -10 50 48 52 61 0 6 2 15 2 20 1 6 24 55 50
110 27 55 50 111 50 123 1 13 10 28 19 34 10 5 32 37 49 71 17 34 39 79 50
100 10 21 43 67 73 102 30 35 55 73 55 84 0 29 20 61 73 115 26 27 47 56 47
65 0 8 20 41 45 72 25 32 45 64 45 73 0 8 6 19 13 23 14 9 47 56 62 90 9 19
119 145 165 189 101 96 148 138 165 145 78 35 141 78 157 107 10 17 13 32 8
32 -5 0 -15 -12 -22 -27z"/>
<path d="M6597 8255 c16 -33 83 -86 83 -65 0 5 -13 16 -29 24 -15 8 -34 29
-41 46 -7 16 -16 30 -21 30 -5 0 -1 -16 8 -35z"/>
<path d="M6710 8185 c14 -7 27 -11 30 -9 6 7 -22 24 -40 23 -9 0 -5 -6 10 -14z"/>
<path d="M6692 8160 c3 -8 13 -17 24 -18 24 -5 64 -41 64 -58 0 -7 29 -39 65
-71 36 -32 65 -63 65 -69 0 -7 19 -28 43 -47 23 -20 55 -47 71 -61 16 -14 34
-26 40 -26 11 0 -15 24 -101 97 -24 19 -43 40 -43 47 0 6 -29 37 -65 69 -36
32 -65 64 -65 71 0 17 -43 56 -61 56 -8 0 -21 6 -28 13 -11 10 -13 9 -9 -3z"/>
<path d="M6818 8113 c7 -3 16 -2 19 1 4 3 -2 6 -13 5 -11 0 -14 -3 -6 -6z"/>
<path d="M2755 8000 c-16 -17 -16 -20 -3 -15 9 4 19 13 22 21 7 19 2 18 -19
-6z"/>
<path d="M2659 7966 c-12 -22 -30 -36 -48 -39 -29 -6 -91 -77 -91 -105 0 -8
15 8 33 34 21 31 45 53 65 59 29 10 93 85 71 85 -5 0 -19 -15 -30 -34z"/>
<path d="M2429 7749 c-35 -44 -81 -101 -102 -127 -21 -26 -40 -58 -44 -72 -3
-14 -15 -35 -26 -47 -11 -13 -16 -23 -10 -23 15 0 43 34 43 52 0 8 13 33 29
54 78 104 120 156 154 193 20 22 33 42 29 45 -4 3 -37 -31 -73 -75z"/>
<path d="M7022 7805 c16 -41 34 -65 49 -65 33 0 69 -23 71 -44 1 -12 2 -28 3
-37 1 -22 102 -159 116 -159 6 0 -7 21 -28 48 -56 68 -72 96 -79 140 -6 41
-32 62 -74 62 -11 0 -20 3 -20 8 0 4 -10 18 -21 32 -11 14 -19 21 -17 15z"/>
<path d="M2505 7760 c-3 -5 -1 -10 4 -10 6 0 11 5 11 10 0 6 -2 10 -4 10 -3 0
-8 -4 -11 -10z"/>
<path d="M2505 7680 c-3 -5 -1 -10 4 -10 6 0 11 5 11 10 0 6 -2 10 -4 10 -3 0
-8 -4 -11 -10z"/>
<path d="M2247 7553 c-20 -23 -77 -131 -77 -147 0 -7 -9 -21 -20 -31 -11 -10
-22 -27 -26 -39 -4 -11 -15 -32 -25 -45 -11 -13 -19 -32 -19 -43 0 -10 -11
-35 -24 -56 -13 -21 -27 -53 -31 -72 -4 -19 -20 -65 -36 -101 -16 -36 -40
-113 -54 -170 -15 -57 -37 -140 -50 -184 -13 -44 -31 -123 -39 -175 -29 -174
-40 -245 -38 -253 2 -5 -4 -59 -12 -120 -8 -62 -15 -175 -16 -252 -1 -77 -3
-184 -5 -238 -4 -93 0 -142 26 -392 13 -131 12 -176 -4 -188 -8 -6 -7 -7 5 -4
9 3 19 -1 22 -9 3 -8 10 -14 16 -14 6 0 4 7 -5 16 -9 10 -15 31 -14 53 0 20
-4 86 -10 146 -30 282 -31 299 -18 307 9 6 9 8 -1 8 -10 0 -12 20 -8 90 3 50
6 152 6 228 1 75 8 187 16 249 8 61 14 115 12 120 -2 8 9 79 38 253 8 52 26
131 39 175 13 44 35 127 50 183 14 57 36 127 49 155 14 29 30 72 36 96 6 24
22 61 36 82 13 21 24 47 24 57 0 9 8 29 17 42 22 31 37 59 88 157 21 43 48 88
59 100 11 13 17 25 14 28 -2 3 -12 -3 -21 -12z"/>
<path d="M2386 7524 c-22 -19 -34 -34 -28 -34 14 0 77 58 71 64 -2 2 -22 -11
-43 -30z"/>
<path d="M6995 7500 c3 -5 8 -10 11 -10 2 0 4 5 4 10 0 6 -5 10 -11 10 -5 0
-7 -4 -4 -10z"/>
<path d="M7250 7483 c0 -13 33 -43 48 -43 12 0 16 -13 13 -38 -1 -7 14 -31 33
-54 20 -23 36 -44 37 -47 0 -3 2 -20 2 -38 1 -20 13 -43 30 -61 23 -24 27 -35
22 -62 -4 -25 -1 -38 15 -55 11 -12 23 -32 25 -45 2 -12 11 -30 19 -39 7 -9
17 -27 21 -41 4 -14 19 -42 32 -63 13 -20 22 -49 21 -65 -2 -30 18 -99 35
-120 6 -8 14 -37 19 -65 15 -96 18 -110 23 -116 3 -3 3 13 -1 34 -3 22 -7 57
-9 77 -1 20 -12 55 -24 78 -12 24 -20 45 -17 48 3 3 0 12 -6 19 -7 8 -11 30
-10 48 2 23 -7 50 -28 83 -16 27 -30 56 -30 64 0 9 -7 21 -15 28 -8 7 -15 18
-15 25 0 7 -11 28 -24 48 -18 26 -23 44 -19 67 4 26 -1 38 -23 61 -16 17 -29
42 -30 57 -1 15 -3 32 -3 38 -1 6 -17 29 -36 52 -20 22 -35 44 -34 49 4 22 -2
43 -13 43 -6 0 -22 10 -35 22 -13 12 -23 17 -23 11z"/>
<path d="M7350 7440 c0 -6 7 -10 15 -10 8 0 15 2 15 4 0 2 -7 6 -15 10 -8 3
-15 1 -15 -4z"/>
<path d="M2240 7410 c0 -5 7 -7 15 -4 8 4 15 8 15 10 0 2 -7 4 -15 4 -8 0 -15
-4 -15 -10z"/>
<path d="M2283 7374 c-12 -13 -27 -37 -35 -54 -7 -16 -19 -30 -25 -30 -7 0
-13 -4 -13 -10 0 -19 30 3 51 38 12 21 31 44 42 53 11 9 16 19 11 22 -5 3 -19
-5 -31 -19z"/>
<path d="M2316 7215 c-9 -26 -7 -32 5 -12 6 10 9 21 6 23 -2 3 -7 -2 -11 -11z"/>
<path d="M2301 7163 c-16 -17 -11 -25 8 -14 7 5 12 13 10 19 -2 6 -10 4 -18
-5z"/>
<path d="M2100 7135 c-7 -8 -8 -15 -2 -15 5 0 15 7 22 15 7 8 8 15 2 15 -5 0
-15 -7 -22 -15z"/>
<path d="M2133 7105 c-20 -20 -33 -39 -29 -42 3 -3 7 -4 9 -2 1 2 18 21 36 42
44 47 31 49 -16 2z"/>
<path d="M2244 7058 c-4 -24 -7 -54 -5 -66 1 -13 -4 -31 -11 -39 -11 -14 -11
-15 2 -11 9 3 15 18 16 39 0 19 4 51 8 72 5 21 6 40 4 43 -3 2 -9 -15 -14 -38z"/>
<path d="M2192 6985 c4 -17 -2 -31 -18 -46 -13 -13 -24 -29 -24 -37 0 -8 13 1
29 21 20 26 27 44 24 62 -3 14 -8 25 -10 25 -3 0 -3 -11 -1 -25z"/>
<path d="M2037 6993 c-4 -3 -7 -11 -7 -17 0 -6 5 -5 12 2 6 6 9 14 7 17 -3 3
-9 2 -12 -2z"/>
<path d="M7565 6970 c27 -12 43 -12 25 0 -8 5 -22 9 -30 9 -10 0 -8 -3 5 -9z"/>
<path d="M2216 6912 c-4 -7 -2 -12 3 -12 6 0 11 -13 11 -28 0 -16 9 -37 20
-47 11 -10 20 -13 20 -8 0 6 -7 16 -15 23 -18 15 -20 57 -2 63 6 2 8 8 4 13
-4 5 -12 2 -16 -5 -7 -11 -9 -11 -13 0 -3 10 -6 10 -12 1z"/>
<path d="M2027 6647 c-65 -73 -79 -94 -67 -102 5 -3 10 -1 10 5 0 18 44 67 58
64 8 -2 8 0 1 3 -6 3 5 21 27 44 21 22 33 39 28 39 -6 0 -32 -24 -57 -53z"/>
<path d="M2283 6694 c4 -7 0 -17 -9 -25 -25 -21 -36 -47 -22 -55 7 -4 10 -3 5
1 -4 5 5 21 20 37 22 23 25 30 13 41 -8 7 -10 7 -7 1z"/>
<path d="M2104 6668 c6 -21 -8 -74 -20 -71 -5 1 -12 12 -16 25 l-6 23 -1 -23
c-1 -12 5 -32 12 -43 10 -18 9 -23 -10 -36 -19 -13 -20 -17 -8 -29 24 -25 46
-15 105 46 32 33 54 60 50 60 -4 0 -14 -7 -21 -16 -12 -15 -15 -14 -30 5 -10
12 -20 17 -23 12 -4 -5 3 -16 14 -24 19 -13 18 -15 -20 -52 -27 -27 -44 -36
-57 -31 -11 5 -13 10 -7 14 12 7 38 61 49 99 3 13 1 31 -5 40 -10 15 -11 15
-6 1z"/>
<path d="M2030 6571 c-5 -11 -19 -22 -30 -26 -19 -6 -96 -142 -86 -152 2 -2
19 25 37 62 19 39 43 72 60 82 15 9 30 25 32 35 7 24 0 23 -13 -1z"/>
<path d="M2275 6539 c2 -37 42 -70 42 -35 0 7 -7 13 -16 12 -10 -1 -16 7 -16
21 0 11 -3 24 -6 27 -3 3 -5 -8 -4 -25z"/>
<path d="M2008 6513 c-27 -32 -33 -50 -11 -30 33 28 40 1 9 -32 -26 -27 -35
-61 -16 -61 5 0 7 6 5 13 -3 6 6 25 20 41 16 18 23 36 19 45 -3 9 -7 22 -7 29
0 16 -1 15 -19 -5z"/>
<path d="M7654 6500 c2 -14 12 -52 22 -85 10 -33 19 -91 20 -128 2 -38 8 -74
14 -82 6 -7 8 -25 4 -39 -5 -22 18 -96 31 -96 5 0 -7 44 -16 56 -5 6 -6 25 -3
43 4 19 2 37 -7 47 -7 9 -12 36 -10 65 2 45 -11 103 -46 204 -8 22 -12 29 -9
15z"/>
<path d="M2198 6477 c-32 -17 -55 -33 -53 -36 8 -7 103 42 109 57 3 6 4 12 3
11 -1 0 -28 -15 -59 -32z"/>
<path d="M2165 6431 c-3 -5 4 -13 16 -16 28 -9 33 -2 9 13 -11 6 -21 8 -25 3z"/>
<path d="M2330 6415 c-7 -8 -20 -15 -29 -15 -10 0 -27 -13 -39 -30 -27 -36
-18 -40 10 -4 30 38 52 28 53 -24 0 -23 -3 -42 -6 -42 -14 0 -70 -123 -65
-142 2 -12 -2 -31 -10 -44 -16 -23 -12 -44 8 -44 7 0 6 5 -1 14 -10 12 -8 19
8 35 17 17 19 25 10 39 -9 15 -6 28 16 68 15 27 39 59 53 71 15 13 20 20 10
17 -15 -5 -17 1 -16 46 1 35 6 54 17 60 9 5 11 10 5 10 -6 0 -17 -7 -24 -15z"/>
<path d="M1950 6366 c-9 -12 -8 -18 9 -32 19 -16 19 -19 4 -58 -9 -23 -23 -48
-33 -56 -22 -20 -10 -57 22 -69 37 -13 147 -22 124 -9 -10 5 -40 11 -67 12
-31 1 -55 8 -66 18 -16 16 -16 19 0 36 9 10 17 24 17 31 0 6 7 26 16 43 15 29
15 32 -5 51 -19 19 -19 21 -3 33 9 8 12 14 6 14 -6 0 -17 -6 -24 -14z"/>
<path d="M2045 6320 c-10 -11 -16 -22 -13 -25 2 -3 14 6 26 20 26 30 13 34
-13 5z"/>
<path d="M2030 6276 c0 -5 7 -17 16 -27 20 -22 4 -56 -28 -61 l-23 -3 23 -7
c19 -5 26 0 43 35 12 23 18 39 14 35 -4 -4 -16 3 -26 15 -10 12 -18 18 -19 13z"/>
<path d="M2101 6243 c-20 -39 -7 -113 20 -113 9 0 9 3 0 14 -9 11 -4 19 25 41
l36 28 -28 23 c-35 28 -41 29 -53 7z m59 -23 c8 0 -1 -11 -20 -25 -38 -28 -56
-24 -38 8 6 12 11 23 10 25 -1 1 -2 7 -2 14 0 6 7 4 18 -5 10 -10 25 -17 32
-17z"/>
<path d="M7769 6166 c9 -11 9 -15 -1 -19 -7 -2 -1 -4 14 -3 25 1 25 2 11 19
-19 20 -41 23 -24 3z"/>
<path d="M2302 6133 c15 -4 15 -7 1 -40 -8 -20 -24 -44 -36 -54 -12 -10 -17
-18 -11 -19 15 0 41 30 53 63 6 15 18 27 28 27 15 0 15 2 -3 15 -10 8 -26 14
-34 14 -11 -1 -11 -2 2 -6z"/>
<path d="M2014 6104 c-19 -15 -19 -15 0 -9 11 3 23 0 27 -7 5 -8 8 -5 6 10 -2
26 -7 27 -33 6z"/>
<path d="M1953 6084 c-34 -15 -42 -34 -20 -52 8 -7 16 -5 27 6 13 14 12 15 -3
9 -9 -3 -19 -2 -22 4 -4 5 7 14 24 20 17 6 31 15 31 20 0 5 -1 9 -2 8 -2 0
-18 -7 -35 -15z"/>
<path d="M7722 6030 c-1 -25 5 -64 13 -87 11 -31 12 -50 5 -68 -14 -38 -12
-68 6 -91 15 -18 15 -18 5 3 -13 27 -14 70 -2 78 10 6 5 71 -7 89 -4 6 -10 36
-13 66 -6 55 -6 55 -7 10z"/>
<path d="M7760 6061 c0 -6 4 -13 10 -16 6 -3 7 1 4 9 -7 18 -14 21 -14 7z"/>
<path d="M7578 6049 c-3 -8 -4 -39 -1 -67 5 -61 -2 -66 -23 -16 -8 20 -17 34
-20 32 -7 -8 31 -83 43 -85 6 -1 12 10 14 25 6 40 -5 130 -13 111z"/>
<path d="M1833 6033 c-4 -10 -1 -19 6 -21 9 -3 9 -7 0 -18 -8 -10 -8 -14 -1
-14 13 0 32 32 32 54 0 21 -29 20 -37 -1z m27 -3 c0 -5 -4 -10 -10 -10 -5 0
-10 5 -10 10 0 6 5 10 10 10 6 0 10 -4 10 -10z"/>
<path d="M1882 5960 c-15 -24 -15 -33 -2 -25 6 3 10 1 10 -4 0 -16 21 -13 42
5 16 16 18 16 24 0 3 -9 -1 -28 -11 -42 -23 -35 -12 -42 12 -7 23 34 23 52 1
66 -13 9 -21 7 -36 -6 -22 -20 -35 -12 -21 14 13 25 -3 24 -19 -1z"/>
<path d="M3929 5877 c-6 -13 -35 -34 -70 -50 -32 -15 -59 -29 -59 -31 0 -7 73
24 85 35 5 5 20 9 34 9 13 0 21 3 18 7 -4 3 0 17 8 30 9 13 11 23 5 23 -6 0
-15 -10 -21 -23z"/>
<path d="M1822 5845 c0 -22 3 -49 7 -59 7 -18 8 -18 14 -3 3 9 2 17 -3 17 -5
0 -11 19 -13 43 l-4 42 -1 -40z"/>
<path d="M3205 5858 c-29 -15 -85 -70 -85 -82 0 -6 19 9 43 32 45 45 57 50 57
28 0 -7 7 -19 15 -26 19 -16 19 -1 0 24 -8 10 -12 23 -9 27 7 11 4 11 -21 -3z"/>
<path d="M7792 5853 c2 -11 -2 -17 -10 -15 -8 1 -11 -2 -7 -8 10 -16 35 8 28
26 -7 20 -14 18 -11 -3z"/>
<path d="M3608 5841 c-21 -10 -42 -15 -49 -10 -7 4 -20 4 -28 0 -9 -5 -40 -11
-69 -14 -29 -3 -62 -13 -74 -22 -13 -8 -31 -15 -41 -15 -10 0 -29 -7 -42 -16
-14 -9 -31 -14 -40 -11 -8 4 -16 3 -19 -1 -9 -14 39 -11 61 3 12 8 30 15 40
15 10 0 28 7 41 15 12 9 45 19 74 22 29 3 60 9 69 14 8 4 21 4 29 -1 8 -5 19
-5 26 1 6 5 29 15 50 23 21 8 32 15 24 15 -9 1 -32 -7 -52 -18z"/>
<path d="M5360 5821 c-7 -23 -22 -47 -32 -52 -10 -5 -18 -15 -18 -21 0 -9 3
-9 12 0 21 21 31 13 24 -18 -3 -20 -2 -29 4 -25 6 4 10 21 8 39 -1 18 4 47 11
64 7 17 11 36 9 43 -2 6 -10 -7 -18 -30z"/>
<path d="M4056 5822 c-11 -14 -14 -22 -8 -18 7 4 12 1 13 -6 0 -7 5 -2 10 11
l9 24 35 -39 c35 -38 48 -72 60 -146 4 -28 13 -40 35 -52 17 -8 30 -11 30 -6
0 5 -9 12 -20 15 -26 8 -36 28 -44 88 -6 53 -33 107 -52 107 -7 0 -15 9 -19
19 -9 30 -28 31 -49 3z"/>
<path d="M5905 5840 c3 -5 23 -14 43 -20 46 -12 126 -71 111 -81 -6 -4 -21 -5
-33 -3 -20 4 -20 4 -1 -5 11 -4 27 -5 35 -1 15 8 73 3 100 -7 8 -4 43 -7 76
-7 64 -1 61 0 164 -90 23 -20 49 -31 120 -51 36 -9 74 -24 85 -31 11 -8 26
-14 35 -14 26 0 -52 36 -127 59 -39 11 -84 31 -98 44 -15 12 -44 36 -64 53
-22 20 -53 34 -81 39 -26 4 -50 16 -58 26 -19 28 -49 42 -58 27 -4 -6 -3 -8 4
-4 11 7 52 -30 52 -47 0 -5 -10 -6 -22 -2 -13 4 -42 10 -64 14 -23 4 -57 20
-75 36 -19 15 -58 39 -87 52 -59 26 -66 27 -57 13z"/>
<path d="M2148 5809 c-17 -28 -16 -31 2 -62 11 -17 20 -27 20 -22 0 6 -7 20
-15 33 -14 19 -14 24 1 47 9 14 15 27 13 30 -3 2 -12 -10 -21 -26z"/>
<path d="M5445 5827 c-36 -22 -77 -57 -65 -57 6 0 29 14 50 31 32 26 46 31 78
27 22 -2 38 0 36 4 -8 12 -76 8 -99 -5z"/>
<path d="M7666 5832 c-3 -6 -1 -14 5 -17 14 -9 20 -2 10 14 -6 8 -11 9 -15 3z"/>
<path d="M3735 5821 c-11 -5 -45 -11 -75 -15 -30 -4 -59 -11 -65 -16 -17 -15
-105 -41 -115 -35 -5 3 -24 -1 -42 -10 -21 -9 -24 -12 -8 -8 14 4 34 6 45 6
23 0 105 24 120 37 5 4 41 13 79 19 38 5 74 15 80 21 12 12 9 12 -19 1z"/>
<path d="M5596 5813 c-27 -7 -58 -21 -70 -32 -12 -10 -30 -21 -40 -23 -10 -1
-24 -12 -30 -23 -6 -11 -23 -34 -37 -51 -28 -33 -66 -121 -57 -130 3 -3 13 16
22 43 9 26 29 61 45 78 16 16 31 39 33 50 2 11 12 21 23 23 11 2 30 13 42 24
38 35 157 52 176 25 6 -9 7 -8 5 3 -6 21 -56 27 -112 13z"/>
<path d="M3140 5752 c-35 -18 -74 -41 -85 -51 -11 -10 -31 -22 -43 -26 -13 -4
-53 -36 -89 -71 -60 -59 -65 -66 -54 -87 11 -21 11 -21 8 -1 -5 24 88 121 143
149 19 10 49 28 66 41 37 29 93 53 159 69 l50 12 -45 -1 c-29 -1 -68 -13 -110
-34z"/>
<path d="M3710 5757 c-78 -28 -114 -46 -88 -47 9 0 19 4 23 9 3 5 37 19 76 31
56 18 76 20 95 11 16 -7 32 -7 49 -1 16 6 26 6 31 -1 3 -6 18 -9 32 -6 18 3
36 -3 58 -20 25 -18 34 -21 40 -11 4 7 4 10 0 6 -5 -4 -20 4 -34 18 -22 19
-33 23 -61 18 -23 -5 -32 -3 -27 4 4 7 -3 9 -21 5 -32 -7 -48 -6 -83 1 -14 3
-53 -4 -90 -17z"/>
<path d="M5285 5755 c3 -16 9 -58 14 -93 5 -34 17 -74 26 -88 25 -38 28 -24 5
21 -11 22 -20 57 -21 80 0 22 -7 56 -15 75 -13 33 -14 34 -9 5z"/>
<path d="M6421 5758 c45 -23 74 -42 129 -86 16 -12 31 -19 34 -14 3 5 -12 18
-32 30 -20 11 -47 30 -60 42 -13 12 -35 25 -50 30 -15 4 -36 11 -47 14 -11 3
1 -4 26 -16z"/>
<path d="M5417 5763 c-4 -3 -7 -14 -7 -23 0 -10 -10 -25 -22 -34 l-23 -16 25
9 c17 5 27 18 31 40 7 33 6 35 -4 24z"/>
<path d="M5596 5760 c8 -7 129 -20 244 -26 52 -3 102 -11 110 -17 13 -11 13
-10 1 6 -11 14 -30 17 -103 17 -49 0 -97 4 -106 9 -18 9 -155 20 -146 11z"/>
<path d="M7728 5745 c-3 -13 -2 -28 3 -32 17 -18 33 -133 23 -161 -6 -16 -9
-57 -6 -93 6 -86 6 -85 -8 -159 -6 -36 -9 -82 -6 -102 4 -25 0 -53 -14 -88
-24 -61 -24 -55 -4 -74 14 -14 18 -14 47 1 18 9 46 27 64 40 43 33 118 55 162
47 40 -7 93 -43 117 -79 8 -13 27 -74 41 -137 14 -63 40 -143 59 -181 85 -172
85 -253 4 -517 -45 -147 -90 -275 -145 -415 -26 -66 -66 -174 -90 -240 -40
-112 -65 -164 -128 -261 -14 -21 -35 -70 -46 -109 -28 -95 -78 -159 -160 -204
-55 -30 -75 -35 -131 -35 -59 -1 -73 3 -120 32 -51 32 -90 36 -90 9 0 -154
-86 -652 -140 -807 -32 -93 -94 -207 -159 -291 -10 -14 -28 -43 -39 -65 -19
-37 -20 -59 -18 -414 2 -392 24 -757 52 -875 31 -129 121 -257 191 -270 69
-13 163 -57 211 -99 26 -23 68 -53 94 -65 27 -13 64 -41 84 -64 19 -23 32 -33
28 -22 -12 33 -46 66 -99 92 -27 14 -72 45 -98 69 -47 42 -111 72 -202 95 -35
9 -56 23 -91 63 -55 62 -99 149 -113 219 -26 134 -45 482 -46 855 l-2 382 33
48 c18 26 42 64 53 84 12 20 26 40 32 43 14 9 81 154 102 220 46 143 107 475
127 685 6 63 15 119 19 123 5 5 26 -2 47 -17 55 -37 127 -51 194 -37 124 26
213 109 246 230 10 35 34 89 54 120 57 88 86 149 120 251 17 52 43 122 57 155
14 33 31 76 38 95 8 19 30 76 49 125 19 50 51 144 70 211 19 66 40 133 45 148
22 56 41 160 41 220 0 73 -18 141 -66 241 -19 40 -46 124 -60 187 -26 119 -42
150 -92 184 -70 48 -172 34 -271 -37 -48 -34 -57 -38 -69 -25 -12 12 -12 19 3
48 11 23 18 64 20 133 2 55 8 112 13 126 6 14 7 44 2 70 -7 46 -6 94 6 142 7
30 -13 144 -27 153 -5 3 -5 14 1 24 6 11 6 21 1 24 -5 3 -11 -5 -13 -19z"/>
<path d="M1820 5740 c0 -5 5 -10 11 -10 5 0 7 5 4 10 -3 6 -8 10 -11 10 -2 0
-4 -4 -4 -10z"/>
<path d="M2187 5723 c-10 -13 -16 -30 -14 -38 3 -7 -3 -30 -14 -51 -13 -26
-17 -49 -13 -69 4 -22 1 -35 -10 -44 -19 -16 -21 -37 -5 -47 7 -4 9 0 5 13 -4
13 0 25 10 33 11 10 14 23 10 45 -4 20 0 43 13 68 10 21 17 46 14 56 -3 12 3
24 17 34 12 8 18 17 13 20 -4 3 -16 -6 -26 -20z"/>
<path d="M5264 5668 c1 -63 5 -89 15 -93 8 -3 11 -14 7 -29 -3 -14 -3 -27 2
-30 9 -5 9 42 -1 64 -3 8 -10 51 -15 95 l-10 80 2 -87z"/>
<path d="M3186 5723 c-8 -24 -56 -53 -93 -54 -25 -2 -26 -2 -4 -6 47 -9 132
49 108 74 -3 2 -8 -4 -11 -14z"/>
<path d="M3560 5732 c0 -5 15 -19 33 -32 l32 -23 -29 31 c-31 34 -36 37 -36
24z"/>
<path d="M3775 5715 c-22 -8 -60 -19 -85 -26 -78 -20 -99 -29 -55 -22 22 3 48
10 57 14 9 5 27 9 40 10 13 0 41 9 63 19 47 22 37 24 -20 5z"/>
<path d="M4050 5725 c0 -5 16 -41 36 -80 20 -38 37 -87 39 -108 1 -21 6 -41
10 -45 19 -18 -8 100 -34 153 -34 68 -51 94 -51 80z"/>
<path d="M3349 5701 c-25 -19 -133 -51 -174 -51 -12 0 -38 -7 -56 -15 -38 -16
-22 -20 25 -6 17 6 66 17 109 27 42 9 87 24 100 34 12 10 31 20 42 23 19 4 19
5 -1 6 -12 0 -32 -7 -45 -18z"/>
<path d="M6366 5712 c-2 -4 18 -8 45 -9 26 -1 50 1 53 5 2 4 -18 8 -45 9 -26
2 -50 -1 -53 -5z"/>
<path d="M2001 5679 c8 -15 8 -24 0 -32 -8 -8 -11 -6 -11 5 0 9 -4 20 -10 23
-6 4 -7 -2 -1 -18 6 -16 6 -28 -2 -36 -7 -7 -7 -11 -1 -11 6 0 21 11 34 25 12
13 27 22 33 18 6 -3 7 -1 3 5 -4 7 -14 12 -22 12 -8 0 -14 7 -14 15 0 8 -5 15
-10 15 -7 0 -7 -7 1 -21z"/>
<path d="M4010 5663 c55 -66 73 -84 77 -79 3 2 -4 13 -14 24 -10 10 -31 36
-46 56 -15 20 -33 36 -38 36 -6 0 3 -17 21 -37z"/>
<path d="M5925 5691 c-11 -5 -24 -6 -29 -3 -5 3 -6 0 -2 -6 5 -8 15 -8 32 -2
16 7 32 7 44 0 10 -5 31 -9 47 -9 26 1 25 2 -7 9 -19 4 -42 10 -50 13 -8 3
-24 2 -35 -2z"/>
<path d="M6584 5688 c-5 -7 -3 -8 5 -3 8 5 24 -6 43 -29 16 -20 35 -36 42 -36
7 0 21 -9 31 -20 10 -11 22 -20 27 -20 11 0 63 -37 102 -72 17 -15 32 -25 35
-23 9 9 -26 38 -118 99 -53 35 -107 75 -120 90 -27 29 -36 32 -47 14z"/>
<path d="M6236 5683 c-3 -3 13 -15 36 -25 53 -24 58 -19 9 9 -21 12 -41 19
-45 16z"/>
<path d="M1872 5645 c-6 -14 -17 -25 -24 -25 -7 0 -19 -9 -26 -20 -7 -11 -8
-20 -3 -20 5 0 11 7 15 15 3 8 12 15 20 15 9 0 22 14 31 30 9 17 12 30 7 30
-5 0 -14 -11 -20 -25z"/>
<path d="M3450 5661 c0 -6 -15 -15 -32 -20 -30 -8 -31 -9 -7 -10 31 -1 67 23
51 33 -7 4 -12 3 -12 -3z"/>
<path d="M3530 5641 c0 -11 -44 -29 -100 -40 -28 -6 -35 -9 -19 -10 42 -2 129
28 129 44 0 8 -2 15 -5 15 -3 0 -5 -4 -5 -9z"/>
<path d="M6540 5637 c33 -16 84 -52 137 -96 101 -86 173 -132 173 -112 0 5
-13 14 -29 21 -16 6 -39 22 -52 36 -12 13 -28 24 -34 24 -6 0 -22 12 -36 26
-40 43 -122 100 -154 107 -30 6 -30 6 -5 -6z"/>
<path d="M4405 5615 c35 -15 60 -41 70 -73 5 -18 1 -25 -24 -40 -20 -11 -35
-31 -44 -59 -8 -23 -10 -40 -6 -37 5 3 12 19 17 37 5 20 18 37 36 45 15 8 30
20 32 27 10 26 -28 87 -62 101 -42 18 -59 17 -19 -1z"/>
<path d="M1854 5576 c-16 -14 -24 -25 -19 -25 14 0 59 38 53 45 -3 3 -19 -6
-34 -20z"/>
<path d="M2820 5581 c-8 -5 -36 -11 -61 -15 -57 -8 -152 -86 -132 -107 11 -10
8 -18 -14 -41 -15 -15 -32 -28 -38 -28 -17 0 -74 -63 -77 -85 -2 -11 -7 -26
-12 -34 -6 -9 -5 -12 5 -9 8 3 15 15 15 27 1 23 60 91 78 91 6 0 26 14 44 31
31 28 32 32 17 43 -16 11 -13 16 26 50 48 41 78 56 114 56 12 0 36 7 51 15 16
8 22 15 14 15 -8 0 -22 -4 -30 -9z"/>
<path d="M1870 5560 c0 -5 5 -10 11 -10 5 0 7 5 4 10 -3 6 -8 10 -11 10 -2 0
-4 -4 -4 -10z"/>
<path d="M2733 5503 c-21 -20 -45 -36 -53 -35 -11 2 -10 0 3 -8 20 -13 37 -5
37 16 0 8 3 14 8 14 12 0 68 49 55 50 -6 0 -29 -17 -50 -37z"/>
<path d="M2166 5503 c2 -7 -8 -33 -23 -58 -14 -25 -24 -48 -22 -50 2 -2 19 24
37 56 18 33 28 58 23 55 -5 -4 -11 -3 -14 1 -2 5 -2 3 -1 -4z"/>
<path d="M1857 5503 c-13 -12 -7 -26 6 -15 15 13 56 5 58 -12 1 -6 1 -18 0
-26 -2 -12 0 -13 7 -1 14 20 3 48 -21 55 -29 8 -42 7 -50 -1z"/>
<path d="M3727 5504 c-2 -2 -46 -6 -97 -9 -51 -3 -100 -10 -109 -16 -13 -8
-13 -9 4 -5 29 8 186 18 285 19 110 1 188 -7 203 -22 6 -6 18 -11 27 -10 8 0
4 5 -10 10 l-25 10 25 15 c15 10 17 13 5 8 -21 -8 -32 -8 -197 -1 -59 3 -109
3 -111 1z"/>
<path d="M1821 5490 c-1 -19 9 -32 33 -46 11 -6 24 -25 30 -42 6 -17 14 -31
19 -31 20 1 26 -10 28 -53 3 -51 -5 -68 -22 -51 -8 8 -8 13 0 17 6 4 11 13 11
21 0 9 -9 5 -25 -11 -28 -28 -31 -36 -11 -28 8 3 17 1 21 -5 3 -6 1 -11 -4
-11 -6 0 -11 -8 -11 -17 1 -17 1 -17 11 0 5 9 15 17 22 17 15 0 40 37 28 42
-13 5 -19 93 -7 110 6 8 25 22 41 31 34 18 19 23 -18 6 -14 -6 -30 -22 -36
-36 -9 -21 -14 -23 -26 -13 -8 7 -15 23 -15 35 0 16 -8 25 -25 29 -14 4 -30
17 -35 29 -5 12 -9 16 -9 7z"/>
<path d="M2965 5475 c-48 -30 -31 -34 19 -4 19 11 40 18 46 14 5 -3 10 -1 10
4 0 18 -33 12 -75 -14z"/>
<path d="M3265 5480 c-50 -23 -40 -26 15 -4 37 15 42 15 67 -1 17 -11 43 -17
71 -16 24 0 59 -6 77 -15 19 -9 42 -14 52 -11 15 4 14 5 -3 6 -12 0 -35 8 -50
16 -16 8 -50 14 -75 13 -29 -1 -55 5 -70 15 -29 21 -34 20 -84 -3z"/>
<path d="M2832 5479 c-51 -10 -156 -86 -158 -115 -1 -10 -2 -25 -3 -32 -1 -7
-21 -32 -46 -54 -25 -23 -45 -46 -45 -53 0 -7 -9 -20 -20 -30 -11 -10 -20 -25
-19 -34 0 -12 2 -13 6 -2 7 17 25 39 86 102 26 28 47 54 47 59 0 6 20 15 45
21 25 6 62 24 82 40 19 16 42 29 49 29 7 0 15 4 19 9 13 22 -38 4 -76 -26 -39
-31 -103 -52 -116 -39 -18 18 105 107 157 113 19 3 39 9 45 14 10 10 8 10 -53
-2z"/>
<path d="M5990 5467 c-25 -4 -58 -8 -75 -8 -29 -1 -29 -1 -5 -8 14 -4 33 -4
42 1 10 4 64 9 122 11 57 1 102 4 99 7 -7 8 -133 6 -183 -3z"/>
<path d="M6675 5450 c28 -16 58 -30 68 -30 10 0 27 -15 38 -34 11 -19 27 -37
36 -40 26 -10 25 0 -2 18 -14 9 -25 23 -25 31 0 8 -33 29 -76 50 -93 43 -105
44 -39 5z"/>
<path d="M2969 5430 l-24 -21 28 17 c23 14 32 14 57 4 19 -8 49 -10 89 -5 35
4 82 2 115 -5 57 -12 116 -6 116 11 0 6 -9 5 -22 -2 -16 -8 -39 -9 -92 0 -39
6 -100 10 -136 9 -36 -1 -74 1 -86 6 -14 5 -27 1 -45 -14z"/>
<path d="M7296 5400 c4 -25 15 -54 25 -66 23 -24 25 -48 4 -41 -8 4 -17 2 -20
-3 -4 -6 3 -10 14 -10 19 0 20 -6 20 -87 0 -54 6 -102 14 -123 8 -19 11 -44 8
-54 -7 -17 -9 -17 -28 8 -12 14 -24 26 -28 26 -4 0 7 -16 24 -35 28 -32 35
-53 34 -94 -1 -8 3 -9 8 -4 5 5 5 22 0 40 -10 34 -4 73 10 73 5 0 -1 15 -12
34 -17 30 -20 52 -20 146 1 97 -2 113 -19 130 -24 24 -26 60 -5 60 9 0 15 -10
16 -27 1 -19 3 -22 6 -10 3 10 2 30 -2 45 -5 21 -8 23 -16 11 -8 -12 -12 -11
-25 6 -14 19 -14 17 -8 -25z"/>
<path d="M2170 5409 c0 -5 -4 -7 -10 -4 -5 3 -7 0 -5 -8 3 -7 -3 -22 -15 -32
-11 -10 -20 -23 -20 -28 0 -5 14 7 30 28 28 35 37 55 25 55 -3 0 -5 -5 -5 -11z"/>
<path d="M7640 5401 c-14 -28 -13 -42 7 -57 16 -11 16 -13 -9 -24 l-26 -12 36
-38 c21 -21 39 -36 41 -34 3 3 -10 19 -28 38 -26 27 -29 35 -17 39 9 4 20 -1
25 -11 10 -18 5 59 -6 88 -4 8 -5 18 -5 23 3 14 -7 7 -18 -12z m20 -37 c0 -8
-4 -12 -10 -9 -5 3 -10 13 -10 21 0 8 5 12 10 9 6 -3 10 -13 10 -21z"/>
<path d="M6852 5400 c2 -8 21 -23 43 -34 35 -18 36 -20 16 -27 -12 -5 -21 -17
-21 -29 0 -18 -3 -19 -21 -10 -11 6 -25 10 -31 8 -6 -2 3 -10 20 -17 18 -8 32
-17 32 -22 0 -4 16 -24 35 -45 21 -22 33 -30 28 -18 -4 10 -19 31 -34 45 -20
19 -26 32 -22 48 6 24 36 44 48 33 4 -4 1 3 -6 16 -8 12 -18 22 -22 22 -5 0
-23 10 -39 22 -19 13 -29 16 -26 8z"/>
<path d="M1959 5364 c-9 -12 -6 -13 21 -7 30 6 33 4 25 -13 -14 -35 -17 -62
-7 -68 6 -3 8 2 5 13 -2 10 2 25 10 32 8 7 12 21 10 30 -6 22 -49 30 -64 13z"/>
<path d="M5730 5365 c0 -13 64 -34 130 -41 41 -4 78 -7 81 -6 7 1 158 -24 219
-36 64 -14 165 -60 236 -109 57 -39 110 -95 163 -170 12 -18 27 -33 33 -33 5
0 -1 13 -14 29 -12 17 -39 51 -58 77 -70 95 -235 191 -374 219 -97 19 -197 33
-286 41 -41 3 -85 12 -97 20 -23 15 -33 17 -33 9z"/>
<path d="M1733 5330 c-8 -22 -8 -32 0 -37 7 -3 9 -3 5 2 -4 4 -1 20 8 36 8 16
11 29 6 29 -4 0 -13 -13 -19 -30z"/>
<path d="M2898 5346 c-37 -6 -73 -18 -80 -27 -18 -21 -84 -69 -96 -69 -5 0
-15 -7 -22 -15 -7 -8 -10 -15 -6 -15 11 0 83 48 118 78 23 21 49 32 86 37 60
8 119 24 87 23 -11 0 -50 -6 -87 -12z"/>
<path d="M2145 5323 c3 -12 1 -24 -5 -28 -5 -3 -10 -16 -10 -29 0 -12 -6 -28
-12 -36 -11 -12 -10 -12 5 -1 9 7 17 22 17 33 0 11 10 34 22 51 13 19 16 27 6
19 -13 -10 -17 -10 -22 0 -3 7 -3 3 -1 -9z"/>
<path d="M2582 5315 c-30 -25 -73 -97 -86 -145 -4 -14 7 2 23 35 17 33 47 75
67 93 42 40 40 54 -4 17z"/>
<path d="M3490 5313 c-121 -19 -263 -66 -366 -119 -95 -49 -137 -83 -160 -126
-8 -16 -19 -28 -25 -28 -5 0 -22 -9 -37 -20 -15 -11 -54 -24 -87 -29 -45 -6
-51 -9 -24 -10 53 -2 95 9 117 29 10 10 28 21 40 24 12 4 22 13 22 20 0 24 83
90 166 133 176 92 375 133 607 127 147 -3 187 -14 239 -60 38 -34 115 -74 142
-74 8 0 19 -7 23 -15 5 -9 13 -11 22 -6 9 6 -1 14 -35 27 -65 24 -114 51 -144
80 -45 42 -103 55 -265 58 -90 1 -184 -3 -235 -11z"/>
<path d="M1835 5310 c4 -6 12 -8 18 -4 7 3 3 -2 -7 -10 -16 -13 -17 -16 -4
-16 8 0 21 6 27 14 9 11 8 15 -5 20 -23 9 -36 7 -29 -4z"/>
<path d="M2710 5285 c-19 -13 -42 -24 -50 -25 -11 0 -12 -2 -3 -8 9 -5 1 -21
-27 -52 -22 -25 -39 -49 -40 -55 0 -15 78 73 85 95 4 11 9 20 13 20 4 0 25 11
47 25 22 13 33 24 25 24 -8 0 -31 -11 -50 -24z"/>
<path d="M2854 5286 c-11 -8 -29 -33 -39 -55 -15 -33 -25 -43 -57 -52 -26 -7
-42 -18 -48 -33 -13 -36 -49 -56 -99 -56 -24 0 -41 -3 -38 -7 12 -12 90 -3
114 13 13 8 28 26 33 39 6 16 22 27 48 34 26 7 43 19 50 36 13 29 24 31 42 10
10 -12 10 -16 -1 -19 -40 -13 -42 -14 -16 -15 15 -1 27 4 27 9 0 6 8 10 18 10
9 0 24 5 32 10 11 8 8 9 -12 4 -37 -8 -81 24 -64 47 6 9 20 21 31 27 11 6 15
12 10 12 -6 0 -20 -6 -31 -14z"/>
<path d="M5728 5283 c-31 -3 -48 -9 -48 -17 0 -7 -10 -25 -21 -40 -12 -15 -19
-29 -16 -32 6 -6 47 50 47 64 0 21 238 30 258 10 7 -7 43 -13 86 -14 140 -2
256 -46 368 -138 36 -30 81 -76 98 -101 18 -26 34 -44 37 -41 3 3 -13 30 -37
61 -108 140 -278 224 -462 229 -45 1 -83 7 -90 14 -12 12 -106 14 -220 5z"/>
<path d="M6928 5272 c19 -21 27 -20 19 3 -4 8 -13 15 -22 15 -13 0 -12 -3 3
-18z"/>
<path d="M3383 5250 c-96 -26 -244 -91 -296 -131 -23 -18 -67 -59 -97 -91
l-55 -60 -95 -8 -95 -9 95 5 c52 3 104 5 115 5 15 0 16 2 6 8 -11 7 -8 12 10
22 13 7 28 12 32 11 5 -1 6 1 3 6 -17 27 96 115 221 173 98 45 233 83 269 76
14 -2 27 0 30 4 9 15 -67 9 -143 -11z"/>
<path d="M5860 5244 l-55 -13 50 4 c27 3 54 10 59 15 6 6 8 9 6 9 -3 -1 -30
-7 -60 -15z"/>
<path d="M3580 5239 c30 -4 80 -15 110 -24 73 -22 150 -33 150 -23 0 4 -16 8
-35 8 -19 0 -52 6 -72 14 -51 19 -136 36 -176 35 -22 -1 -15 -4 23 -10z"/>
<path d="M7021 5194 c1 -30 -1 -58 -4 -60 -3 -3 -1 -20 4 -37 6 -22 5 -33 -4
-39 -8 -5 -7 -8 6 -8 15 0 17 5 12 33 -3 17 -6 37 -6 42 0 6 2 36 4 68 2 31 0
57 -5 57 -4 0 -7 -25 -7 -56z"/>
<path d="M2146 5203 c-14 -20 -17 -35 -12 -72 4 -34 2 -52 -10 -69 -12 -18
-13 -28 -5 -50 l11 -27 -5 28 c-3 17 1 37 10 50 11 16 13 34 9 70 -5 38 -3 52
11 67 10 11 16 22 14 24 -2 2 -12 -7 -23 -21z"/>
<path d="M2080 5205 c-7 -9 -11 -17 -9 -20 3 -2 10 5 17 15 14 24 10 26 -8 5z"/>
<path d="M5825 5210 c-3 -5 -1 -10 4 -10 6 0 11 5 11 10 0 6 -2 10 -4 10 -3 0
-8 -4 -11 -10z"/>
<path d="M3542 5184 c-7 -8 -27 -14 -45 -14 -23 0 -28 3 -18 9 10 7 6 9 -13 8
-24 -2 -25 -3 -9 -15 11 -8 31 -11 53 -7 19 3 49 5 65 5 17 0 44 -1 60 -1 59
-1 260 -78 314 -120 13 -11 30 -19 39 -19 20 0 -39 39 -108 71 -76 36 -209 78
-245 77 -38 0 -69 5 -75 13 -3 4 -11 1 -18 -7z"/>
<path d="M5899 5186 c-2 -3 -38 -9 -80 -14 -76 -10 -99 -18 -274 -102 -55 -27
-111 -51 -125 -55 -14 -4 -37 -16 -51 -26 -15 -10 -37 -23 -50 -28 -22 -9 -22
-10 -4 -10 11 -1 36 10 55 22 19 13 57 32 85 43 27 10 87 38 133 61 45 24 90
43 98 43 8 0 26 8 41 17 46 31 305 54 358 32 17 -7 36 -13 43 -15 19 -4 147
-71 219 -115 35 -22 69 -39 76 -39 20 1 -91 67 -213 127 -111 55 -118 57 -210
60 -53 2 -98 2 -101 -1z"/>
<path d="M7817 5170 c-11 -15 -16 -18 -20 -8 -3 7 -6 2 -6 -12 l-1 -25 27 27
c15 15 24 30 21 33 -3 4 -13 -3 -21 -15z"/>
<path d="M1880 5160 c0 -11 -7 -31 -16 -45 -14 -21 -14 -26 0 -52 8 -15 15
-23 15 -18 1 6 -4 17 -9 25 -6 10 -5 22 4 35 18 28 26 64 15 71 -5 3 -9 -4 -9
-16z"/>
<path d="M3350 5150 c-36 -16 -89 -49 -118 -75 -48 -43 -57 -47 -113 -50 -60
-4 -126 -36 -114 -56 4 -5 16 3 28 16 19 22 33 26 90 30 65 4 71 7 119 50 52
46 129 89 138 76 3 -3 16 4 29 16 30 29 22 28 -59 -7z"/>
<path d="M2045 5130 c-25 -22 -40 -40 -33 -40 16 1 105 80 90 80 -6 0 -32 -18
-57 -40z"/>
<path d="M2630 5138 c-36 -14 -39 -17 -15 -14 31 4 85 23 85 29 0 8 -27 2 -70
-15z"/>
<path d="M3437 5149 c7 -7 15 -10 18 -7 3 3 -2 9 -12 12 -14 6 -15 5 -6 -5z"/>
<path d="M2520 5141 c0 -5 10 -12 23 -15 l22 -6 -25 -15 c-17 -10 -20 -14 -9
-15 21 0 40 22 31 36 -9 14 -42 26 -42 15z"/>
<path d="M5005 5115 c4 -11 8 -41 11 -66 2 -26 8 -57 13 -70 4 -13 7 -44 4
-69 -2 -25 -2 -42 1 -40 10 11 14 85 5 109 -5 13 -11 45 -14 72 -2 26 -9 56
-15 66 -11 17 -11 16 -5 -2z"/>
<path d="M2941 5102 c-6 -12 -11 -27 -11 -34 0 -7 7 0 15 16 9 16 13 31 11 33
-2 3 -9 -4 -15 -15z"/>
<path d="M3170 5111 c0 -6 4 -13 10 -16 6 -3 7 1 4 9 -7 18 -14 21 -14 7z"/>
<path d="M3487 5103 c-14 -13 -6 -41 12 -46 20 -5 32 16 24 41 -5 13 -25 16
-36 5z m24 -26 c-13 -13 -26 -3 -16 12 3 6 11 8 17 5 6 -4 6 -10 -1 -17z"/>
<path d="M5887 5104 c-4 -4 -23 -7 -43 -6 -31 1 -35 -1 -32 -21 4 -31 48 -37
48 -7 0 12 4 18 11 15 6 -4 8 -13 5 -21 -4 -10 0 -11 17 -5 12 5 22 16 22 26
0 19 -17 30 -28 19z m17 -25 c-3 -5 -10 -7 -15 -3 -5 3 -7 10 -3 15 3 5 10 7
15 3 5 -3 7 -10 3 -15z m-56 -8 c3 -8 -1 -12 -9 -9 -7 2 -15 10 -17 17 -3 8 1
12 9 9 7 -2 15 -10 17 -17z"/>
<path d="M1565 5074 c-73 -27 -133 -102 -154 -195 -42 -184 -74 -311 -86 -349
-71 -221 -71 -317 -1 -565 14 -49 33 -136 41 -193 21 -134 83 -333 141 -448
76 -152 246 -344 342 -386 99 -44 218 -29 292 38 l39 35 14 -23 c14 -22 39
-159 52 -283 15 -147 91 -497 115 -530 4 -5 13 -33 19 -62 7 -28 23 -66 37
-84 13 -18 24 -41 24 -51 0 -21 25 -75 46 -98 7 -9 26 -38 41 -65 25 -47 27
-58 28 -175 0 -69 5 -240 9 -380 9 -253 -4 -594 -35 -935 -18 -202 -26 -217
-131 -241 -79 -19 -171 -61 -162 -76 4 -6 9 -7 13 0 12 19 94 54 158 67 104
22 108 28 128 212 32 306 48 716 39 978 -4 138 -9 309 -9 380 -1 141 -1 141
-83 265 -12 19 -27 53 -33 74 -6 21 -19 51 -30 65 -11 15 -26 49 -34 76 -8 28
-23 77 -35 110 -25 69 -85 367 -95 470 -15 147 -42 288 -59 301 -20 14 -8 56
21 73 10 6 13 11 6 11 -6 0 -20 3 -30 6 -12 4 -14 3 -5 -3 19 -14 -10 -64 -64
-112 -72 -63 -180 -77 -270 -35 -49 23 -169 138 -236 225 -116 152 -210 384
-242 599 -15 99 -34 180 -67 290 -11 36 -23 108 -26 160 -6 96 6 168 52 310
14 44 67 259 81 330 16 86 84 175 156 204 32 14 45 14 95 2 32 -7 73 -21 91
-30 18 -9 32 -14 32 -12 0 11 -66 39 -120 52 -65 16 -56 16 -105 -2z"/>
<path d="M2729 5074 c-23 -28 -85 -54 -98 -41 -8 8 -14 8 -23 -2 -10 -11 -10
-13 0 -7 20 12 35 -4 20 -22 -15 -17 -8 -15 41 13 44 26 99 74 85 75 -6 0 -17
-7 -25 -16z"/>
<path d="M5047 5069 c4 -13 8 -18 11 -10 2 7 -1 18 -6 23 -8 8 -9 4 -5 -13z"/>
<path d="M3816 5061 c-3 -4 5 -8 16 -8 11 -1 28 -8 37 -16 29 -26 80 -48 86
-37 3 6 3 10 -2 11 -30 3 -48 10 -67 27 -23 21 -63 34 -70 23z"/>
<path d="M5628 5048 c-20 -12 -39 -27 -42 -34 -3 -7 16 0 41 17 26 16 53 29
60 29 12 0 14 -5 17 -42 1 -7 -12 -16 -29 -19 l-30 -7 31 -1 c35 -1 45 12 37
52 -7 34 -33 35 -85 5z"/>
<path d="M3784 5033 c-9 -33 15 -53 62 -53 33 0 52 14 35 24 -5 4 -11 1 -13
-5 -3 -8 -16 -10 -42 -5 -36 7 -38 9 -32 37 7 36 -1 39 -10 2z"/>
<path d="M7645 5006 c-38 -40 -39 -42 -22 -59 17 -17 17 -16 11 8 -4 15 -2 25
4 25 11 0 57 59 51 64 -2 2 -22 -15 -44 -38z"/>
<path d="M3307 5034 c-9 -10 20 -60 40 -69 38 -17 133 -22 263 -14 137 7 170
13 170 31 0 6 -6 5 -15 -2 -18 -15 -265 -30 -345 -21 -66 8 -78 15 -94 52 -7
16 -15 26 -19 23z"/>
<path d="M4020 5029 c-13 -9 -13 -10 0 -7 8 1 29 -6 47 -15 18 -9 40 -17 50
-17 10 0 35 -14 56 -31 20 -17 37 -26 37 -20 0 17 -66 61 -92 61 -14 0 -37 9
-51 20 -29 23 -27 23 -47 9z"/>
<path d="M6177 5033 c-4 -3 -7 -15 -7 -25 0 -10 -10 -22 -22 -27 -24 -9 -226
-27 -243 -22 -5 2 -43 5 -83 7 -41 2 -81 9 -90 16 -16 11 -16 10 -1 -5 24 -27
175 -34 341 -17 98 10 108 13 108 39 0 9 5 22 12 29 7 7 8 12 2 12 -6 0 -14
-3 -17 -7z"/>
<path d="M6444 5008 c13 -13 36 -36 50 -53 14 -16 26 -25 26 -19 0 14 -78 94
-92 94 -5 0 2 -10 16 -22z"/>
<path d="M2135 4984 c-15 -19 -25 -37 -24 -39 2 -2 17 14 32 36 35 49 29 52
-8 3z"/>
<path d="M4498 4994 c-4 -18 -17 -47 -30 -65 -66 -96 -110 -149 -142 -169 -20
-12 -36 -29 -36 -39 0 -16 -67 -73 -120 -101 -15 -8 -20 -15 -12 -18 12 -4 60
28 94 61 7 7 21 16 31 20 9 3 17 15 17 26 0 12 12 28 28 38 72 45 189 217 179
262 -1 9 -6 2 -9 -15z"/>
<path d="M1730 4996 c0 -3 16 -12 36 -21 25 -10 40 -26 52 -55 9 -22 20 -40
24 -40 10 0 -26 79 -43 95 -15 15 -69 31 -69 21z"/>
<path d="M7676 4973 c-12 -16 -14 -24 -6 -21 16 5 46 48 34 48 -5 0 -18 -12
-28 -27z"/>
<path d="M3230 4975 c-14 -8 -20 -14 -15 -14 6 0 21 6 35 14 14 8 21 14 15 14
-5 0 -21 -6 -35 -14z"/>
<path d="M6610 4961 c0 -6 4 -13 10 -16 6 -3 7 1 4 9 -7 18 -14 21 -14 7z"/>
<path d="M2048 4933 c-33 -36 -48 -66 -48 -95 1 -13 -2 -39 -5 -58 l-5 -35 10
32 c12 37 27 50 42 35 8 -8 3 -21 -15 -46 -32 -41 -35 -56 -7 -31 11 10 20 22
20 28 0 5 18 27 40 48 47 46 53 62 9 25 -49 -42 -50 -21 -2 31 24 27 49 57 55
68 6 11 -15 -9 -47 -43 -53 -58 -85 -77 -85 -51 0 18 21 53 53 87 17 17 26 32
21 32 -6 0 -22 -12 -36 -27z"/>
<path d="M5272 4950 c13 -43 134 -57 221 -25 26 10 46 19 44 22 -3 2 -24 -3
-48 -12 -87 -32 -155 -27 -203 14 -16 13 -18 14 -14 1z"/>
<path d="M5586 4941 c-10 -11 -26 -17 -39 -15 -21 4 -21 4 -2 -5 13 -6 25 -4
35 4 21 17 77 16 128 -3 38 -13 43 -18 37 -39 -4 -16 -2 -22 5 -18 5 3 10 15
10 26 0 23 -83 63 -114 55 -11 -3 -25 -1 -31 4 -8 7 -18 4 -29 -9z"/>
<path d="M3171 4924 c-19 -13 -29 -24 -23 -24 6 0 24 11 39 25 35 31 28 31
-16 -1z"/>
<path d="M7547 4927 c-10 -10 -16 -21 -13 -25 8 -8 39 24 35 35 -2 5 -12 0
-22 -10z"/>
<path d="M7705 4935 c-40 -14 -40 -14 -5 -8 19 3 42 9 50 14 22 12 1 9 -45 -6z"/>
<path d="M7953 4934 c-39 -20 -38 -48 3 -49 42 -1 71 -20 79 -52 4 -16 9 -23
12 -16 11 29 -61 94 -87 78 -20 -12 -19 15 2 29 20 14 25 14 45 1 12 -8 28
-15 35 -15 7 0 -2 9 -20 20 -38 24 -30 23 -69 4z"/>
<path d="M2486 4928 c3 -4 11 -5 19 -1 8 3 32 -2 53 -10 55 -22 157 -39 226
-38 58 1 166 35 166 53 0 4 -26 -4 -57 -18 -53 -24 -66 -25 -153 -21 -55 3
-120 14 -155 26 -59 20 -108 24 -99 9z"/>
<path d="M4028 4934 c6 -3 10 -9 7 -13 -2 -5 6 -6 19 -4 13 3 27 0 30 -6 8
-13 53 -13 81 -1 14 6 6 7 -22 3 -24 -3 -49 -1 -55 4 -7 6 -26 13 -43 16 -16
4 -24 4 -17 1z"/>
<path d="M6345 4930 c-28 -7 -27 -7 7 -5 30 2 39 -1 44 -17 4 -15 8 -17 14 -8
4 7 15 10 25 7 9 -4 14 -3 10 3 -3 6 -15 10 -25 10 -10 0 -22 5 -25 10 -7 11
-6 11 -50 0z"/>
<path d="M6580 4928 c14 -5 35 -14 48 -19 12 -5 30 -22 41 -39 18 -30 21 -31
102 -35 46 -2 98 -5 116 -7 18 -3 30 -1 27 3 -2 4 -12 8 -22 8 -9 1 -58 4
-108 7 -87 6 -92 8 -108 35 -20 33 -37 44 -86 52 -31 5 -32 5 -10 -5z"/>
<path d="M7003 4928 c38 -14 34 -34 -10 -49 -21 -7 -33 -14 -26 -16 18 -6 85
25 78 37 -3 5 0 10 7 11 18 1 -43 28 -62 28 -8 0 -3 -5 13 -11z"/>
<path d="M1859 4913 c5 -10 21 -28 35 -40 14 -12 28 -35 31 -50 3 -15 16 -48
27 -73 38 -79 56 -191 47 -282 -8 -79 -2 -348 8 -358 3 -3 3 59 0 137 -3 78
-2 177 2 221 6 61 4 99 -8 159 -9 43 -20 84 -24 91 -5 7 -18 41 -30 76 -12 35
-36 80 -54 100 -35 39 -50 47 -34 19z"/>
<path d="M3119 4914 c-9 -11 -23 -14 -46 -11 -18 3 -35 1 -38 -4 -14 -22 -86
-46 -146 -48 -35 -1 -73 -2 -84 -3 -107 -3 -347 11 -359 22 -9 6 -21 10 -28 7
-7 -2 -23 0 -35 4 -14 5 -23 5 -23 -1 0 -9 30 -15 53 -11 4 1 18 -4 29 -10 19
-10 268 -24 373 -21 64 2 89 1 93 -3 9 -9 -20 -34 -61 -54 -105 -51 -137 -55
-349 -49 -27 1 -51 -2 -55 -6 -4 -4 15 -7 42 -6 28 1 91 1 140 0 65 0 106 5
145 18 85 29 142 61 147 83 3 10 10 20 17 20 22 2 32 5 68 22 20 9 39 21 42
25 3 5 18 7 33 5 20 -3 34 2 47 16 11 12 17 21 14 21 -3 0 -12 -7 -19 -16z"/>
<path d="M3244 4915 c36 -19 45 -19 20 0 -10 8 -26 14 -34 15 -8 0 -2 -7 14
-15z"/>
<path d="M7634 4915 c-10 -8 -14 -14 -9 -15 15 0 40 18 34 24 -3 3 -14 -1 -25
-9z"/>
<path d="M7343 4898 c1 -14 6 -26 11 -25 5 1 11 -16 12 -38 2 -22 6 -51 9 -63
3 -13 0 -31 -6 -39 -10 -11 -9 -20 5 -45 18 -30 42 -236 31 -268 -4 -11 -1
-10 8 2 8 10 18 14 23 10 4 -4 2 1 -5 10 -7 10 -17 62 -21 118 -5 66 -14 109
-25 126 -17 26 -14 60 5 49 6 -4 6 4 0 22 -6 15 -11 46 -13 68 -2 22 -10 54
-19 70 l-16 30 1 -27z"/>
<path d="M2134 4839 c-1 -39 -7 -66 -18 -78 -9 -10 -16 -30 -16 -44 0 -15 -9
-36 -21 -48 -11 -11 -19 -23 -16 -25 10 -10 47 50 47 74 0 14 7 33 15 42 17
18 33 140 19 140 -5 0 -10 -27 -10 -61z"/>
<path d="M3306 4881 c-10 -11 -30 -19 -47 -19 -15 1 -35 -4 -43 -11 -10 -8
-16 -9 -21 -1 -3 5 -14 10 -23 10 -12 -1 -10 -5 8 -15 15 -8 29 -10 35 -4 5 5
23 9 40 9 19 0 39 8 50 20 21 23 36 22 138 -10 68 -21 88 -44 45 -53 -13 -3 8
-3 46 -1 37 1 71 5 74 8 3 3 -2 6 -11 6 -16 0 -22 18 -19 60 0 13 -1 13 -11
-1 -7 -9 -19 -14 -27 -12 -8 2 -5 -2 8 -8 12 -7 22 -20 22 -31 0 -23 -17 -24
-23 0 -4 16 -5 16 -6 0 -1 -23 -17 -23 -23 0 -5 17 -29 28 -129 60 -49 16 -63
15 -83 -7z"/>
<path d="M4022 4869 c-15 -19 -18 -27 -8 -23 16 6 51 54 39 53 -5 0 -18 -13
-31 -30z"/>
<path d="M6070 4883 c-8 -2 -24 -8 -35 -13 -11 -5 -31 -11 -45 -13 -22 -4 -21
-4 6 -6 16 0 34 -5 40 -9 5 -5 20 -5 34 -1 l25 8 -27 -2 c-31 -2 -42 16 -12
21 10 2 23 8 29 13 10 10 8 10 -15 2z"/>
<path d="M6176 4879 c3 -5 11 -9 17 -9 7 0 30 -9 52 -20 37 -19 38 -20 16 -2
-27 21 -95 46 -85 31z"/>
<path d="M1510 4864 c7 -7 19 -14 26 -14 24 0 107 -87 100 -105 -3 -9 -2 -13
4 -10 31 19 -21 86 -92 120 -30 15 -45 18 -38 9z"/>
<path d="M3642 4864 c-11 -12 -17 -12 -28 -3 -12 9 -13 9 -9 -3 4 -9 19 -14
39 -14 29 1 33 4 25 19 -11 20 -10 20 -27 1z"/>
<path d="M6368 4870 c-15 -4 -29 -6 -32 -3 -8 8 -46 -8 -46 -19 0 -7 4 -7 13
-1 6 6 28 11 47 13 85 5 94 2 135 -43 44 -49 92 -83 102 -73 3 3 0 6 -8 6 -7
0 -38 26 -69 58 -58 62 -91 76 -142 62z"/>
<path d="M7598 4862 c-16 -9 -28 -24 -28 -34 0 -9 -7 -23 -15 -32 -36 -35 -80
-250 -79 -381 1 -139 3 -157 20 -182 21 -33 36 -28 56 15 29 60 68 126 81 134
8 5 8 8 1 8 -17 0 -46 -43 -94 -138 -15 -31 -17 -32 -32 -15 -19 20 -21 37
-22 178 -1 134 40 332 76 368 10 10 18 27 18 38 0 11 11 24 25 31 14 6 25 15
25 20 0 10 0 10 -32 -10z"/>
<path d="M6105 4850 c10 -11 20 -20 23 -20 3 0 -3 9 -13 20 -10 11 -20 20 -23
20 -3 0 3 -9 13 -20z"/>
<path d="M3329 4848 c-11 -8 -10 -9 3 -5 9 3 23 -2 32 -12 11 -12 31 -18 59
-18 30 0 36 2 22 7 -11 5 -30 6 -42 3 -16 -4 -23 -1 -23 10 0 18 -33 28 -51
15z"/>
<path d="M6138 4842 c2 -7 8 -9 11 -4 3 5 13 12 21 15 8 3 3 5 -11 4 -18 -1
-25 -6 -21 -15z"/>
<path d="M1466 4834 c-5 -13 -3 -14 6 -7 7 6 20 13 28 16 10 4 8 6 -6 6 -12 1
-25 -6 -28 -15z"/>
<path d="M3010 4838 c0 -10 5 -18 10 -18 19 0 25 -2 38 -12 8 -7 12 -7 12 1 0
6 -4 12 -10 12 -5 1 -15 2 -20 3 -6 0 -15 8 -20 16 -8 13 -10 12 -10 -2z"/>
<path d="M5815 4838 c-22 -4 -83 -5 -137 -2 -53 3 -99 1 -102 -4 -3 -5 16 -7
44 -4 35 3 50 1 50 -7 0 -7 8 -10 18 -7 23 7 150 19 190 17 17 -1 32 0 32 3 0
8 -57 11 -95 4z"/>
<path d="M2775 4803 c-38 -12 -78 -14 -166 -10 -111 5 -149 -1 -149 -25 0 -6
8 -4 18 5 15 13 35 15 135 9 81 -5 128 -4 150 4 18 7 48 16 67 22 19 5 26 10
15 10 -11 0 -42 -6 -70 -15z"/>
<path d="M6430 4801 c-19 -10 -39 -17 -45 -15 -6 3 -22 1 -36 -5 -20 -7 -16
-8 21 -6 47 2 100 22 100 37 0 10 1 11 -40 -11z"/>
<path d="M2080 4793 c0 -4 5 -15 10 -23 8 -13 10 -13 10 2 0 9 -4 20 -10 23
-5 3 -10 3 -10 -2z"/>
<path d="M3025 4783 c17 -17 145 -64 163 -60 11 2 7 6 -13 11 -16 4 -52 16
-80 27 -80 33 -81 33 -70 22z"/>
<path d="M2997 4753 c4 -9 -1 -22 -13 -30 -18 -14 -18 -15 0 -11 24 4 40 44
21 52 -10 3 -12 0 -8 -11z"/>
<path d="M1526 4728 c-42 -37 -87 -235 -96 -418 -4 -80 -11 -155 -15 -168 -5
-15 -4 -22 4 -20 20 5 48 -102 59 -232 10 -115 25 -179 54 -234 18 -35 69 -96
80 -96 5 0 -6 19 -25 43 -69 85 -85 130 -98 282 -6 66 -16 138 -22 160 -6 22
-12 45 -12 51 0 6 -5 18 -11 25 -8 10 -9 62 -3 179 6 129 13 186 34 260 28
104 33 122 34 131 1 4 13 18 27 33 33 32 25 35 -10 4z"/>
<path d="M1911 4719 c-1 -15 8 -34 21 -45 l22 -19 -16 25 c-9 14 -18 35 -21
45 -4 16 -5 14 -6 -6z"/>
<path d="M6414 4725 c-17 -8 -67 -19 -112 -27 -45 -7 -77 -15 -71 -18 17 -11
229 40 229 55 0 7 -11 5 -46 -10z"/>
<path d="M5437 4719 c-9 -6 -17 -15 -17 -22 0 -7 7 -5 16 5 16 15 20 14 60
-20 24 -20 44 -42 44 -48 0 -15 68 -56 75 -44 3 4 -9 13 -25 19 -30 10 -49 36
-36 48 4 4 38 -10 76 -31 39 -20 70 -35 70 -33 0 10 -130 78 -142 75 -21 -3
-56 12 -62 27 -8 22 -39 35 -59 24z"/>
<path d="M6592 4709 c-22 -27 -53 -39 -72 -29 -9 5 -40 2 -70 -6 -30 -8 -73
-14 -95 -14 -41 0 -258 -50 -250 -58 5 -5 92 14 153 34 23 8 64 14 90 14 26 0
72 6 102 14 31 8 61 11 69 6 19 -11 59 5 80 31 l17 21 49 -22 c69 -32 156 -59
185 -60 14 0 38 -7 54 -15 16 -9 31 -13 34 -10 9 8 -1 13 -53 26 -102 23 -161
42 -208 65 -59 29 -63 29 -85 3z"/>
<path d="M1626 4698 c-9 -12 -16 -29 -16 -36 0 -8 -9 -31 -19 -51 -18 -32 -51
-145 -70 -243 -5 -20 -18 -52 -29 -72 -12 -20 -18 -36 -14 -36 14 0 46 64 53
105 14 80 52 209 70 239 10 17 19 40 19 50 0 11 7 28 17 38 9 10 14 21 11 24
-3 3 -13 -5 -22 -18z"/>
<path d="M3107 4704 c-2 -2 -36 -8 -77 -14 -102 -15 -107 -17 -170 -38 -31
-11 -79 -23 -108 -27 -28 -4 -55 -11 -58 -17 -4 -6 1 -8 12 -4 11 3 42 10 69
16 28 6 64 13 80 16 17 4 35 11 42 16 12 10 15 10 133 28 41 6 76 13 78 15 3
2 14 0 24 -6 13 -7 24 -7 30 -1 6 6 -1 11 -21 14 -17 3 -32 3 -34 2z"/>
<path d="M4779 4678 c-12 -23 -12 -23 10 -4 22 20 43 14 23 -6 -17 -17 -15
-33 3 -18 8 7 15 21 15 31 0 27 -37 24 -51 -3z"/>
<path d="M1427 4673 c-2 -5 -5 -25 -6 -47 -1 -21 -9 -52 -17 -68 -9 -17 -14
-32 -11 -34 8 -8 37 72 40 114 4 41 2 50 -6 35z"/>
<path d="M4132 4655 c-11 -14 -23 -25 -27 -25 -5 0 -23 -11 -41 -25 -18 -14
-37 -25 -41 -25 -11 0 -54 -46 -76 -82 -10 -16 -27 -28 -44 -30 -14 -2 -29
-10 -31 -18 -4 -12 -2 -13 9 -3 8 6 25 13 39 15 13 1 30 13 36 26 17 35 58 75
105 102 59 35 124 90 106 90 -9 0 -24 -11 -35 -25z"/>
<path d="M8170 4673 c0 -7 5 -15 11 -19 13 -7 3 -128 -13 -157 -7 -14 -7 -17
1 -13 11 7 15 -14 13 -64 -1 -24 -1 -24 8 -3 5 13 5 34 0 54 -5 17 -8 35 -6
38 2 3 7 34 11 68 5 49 3 67 -9 85 -9 12 -16 17 -16 11z"/>
<path d="M3150 4648 c-57 -20 -106 -34 -152 -43 -16 -3 -28 -9 -28 -14 0 -5
12 -6 28 -1 174 52 201 58 254 56 43 -3 61 1 70 12 11 13 11 14 -2 7 -17 -11
-103 -14 -110 -4 -3 3 -30 -2 -60 -13z"/>
<path d="M6592 4652 c7 -8 14 -9 23 -2 6 5 14 7 17 4 3 -3 9 -1 12 5 4 6 -7 9
-28 8 -26 -2 -32 -5 -24 -15z"/>
<path d="M2106 4644 c4 -19 -23 -137 -44 -193 -16 -40 -19 -63 -13 -90 5 -24
3 -47 -7 -70 -14 -35 -4 -81 17 -81 6 0 8 -7 5 -15 -5 -13 -9 -13 -23 -3 -14
11 -14 11 -3 -4 9 -11 10 -18 2 -23 -8 -5 -8 -11 1 -21 9 -11 8 -18 -2 -31
-12 -14 -12 -16 1 -11 8 3 15 18 16 34 1 40 13 64 33 65 12 0 11 2 -4 9 -41
16 -49 37 -33 78 9 23 12 49 7 69 -4 23 1 53 17 100 13 36 26 87 30 112 4 25
11 54 16 65 7 12 7 16 0 12 -6 -3 -12 -3 -15 1 -2 5 -3 3 -1 -3z"/>
<path d="M3035 4640 c-3 -6 1 -7 9 -4 18 7 21 14 7 14 -6 0 -13 -4 -16 -10z"/>
<path d="M6381 4621 c-5 -3 34 -14 87 -25 54 -10 104 -23 112 -29 12 -9 13 -9
3 3 -10 11 -9 17 4 32 9 10 11 18 6 18 -6 0 -13 -7 -17 -15 -7 -19 -25 -19
-113 3 -40 10 -77 16 -82 13z"/>
<path d="M3185 4602 c-48 -4 -178 -33 -199 -44 -11 -6 -61 -10 -112 -9 -68 2
-101 -2 -123 -14 -17 -8 -48 -16 -70 -18 -29 -1 -37 -5 -29 -14 6 -7 16 -9 26
-4 60 29 129 42 212 40 53 -2 94 2 102 8 37 31 273 57 315 35 19 -10 59 -10
68 0 7 6 -152 24 -190 20z"/>
<path d="M2893 4593 c-25 -9 -13 -22 12 -13 14 5 33 7 42 4 15 -5 16 -4 3 5
-16 11 -37 13 -57 4z"/>
<path d="M6120 4573 c-153 -22 -162 -24 -158 -28 2 -2 53 3 113 11 245 34 260
33 420 -34 59 -25 85 -34 104 -38 8 -1 34 -17 58 -34 24 -18 46 -30 49 -27 9
8 -89 67 -136 81 -25 7 -76 28 -115 46 -59 28 -83 33 -155 35 -47 1 -128 -4
-180 -12z"/>
<path d="M2051 4567 c-8 -10 -7 -14 4 -14 8 0 15 6 15 14 0 7 -2 13 -4 13 -2
0 -9 -6 -15 -13z"/>
<path d="M3739 4566 c-2 -3 -58 -8 -123 -11 -66 -4 -137 -13 -157 -20 -27 -10
-75 -12 -177 -8 -126 5 -145 4 -197 -16 -32 -12 -76 -24 -97 -26 -49 -5 -165
-67 -260 -139 -102 -76 -114 -88 -128 -116 -10 -19 -4 -16 26 14 57 59 188
151 268 190 138 67 202 80 381 81 96 0 174 5 195 12 19 6 80 14 135 17 55 4
121 9 146 12 30 4 49 2 53 -5 4 -6 17 -11 29 -11 20 0 19 2 -7 15 -26 14 -77
20 -87 11z"/>
<path d="M6460 4561 c8 -6 35 -13 60 -17 25 -3 54 -12 65 -18 25 -16 55 -27
55 -21 0 10 -78 43 -117 49 -23 3 -50 9 -60 12 -15 5 -15 4 -3 -5z"/>
<path d="M3182 4553 c37 -2 100 -2 140 0 40 1 10 3 -67 3 -77 0 -110 -1 -73
-3z"/>
<path d="M3043 4537 c-54 -20 -49 -28 8 -11 30 9 56 18 58 20 9 8 -35 2 -66
-9z"/>
<path d="M6170 4535 c-58 -7 -141 -12 -185 -10 -65 1 -74 0 -45 -8 36 -9 74
-8 290 14 l126 12 87 -41 c95 -44 238 -149 232 -169 -3 -7 0 -13 5 -13 44 0
-82 120 -175 166 -135 68 -154 70 -335 49z"/>
<path d="M3898 4518 c-13 -13 -26 -22 -30 -21 -4 2 -36 -4 -71 -12 -69 -16
-127 -41 -127 -55 0 -5 16 0 35 11 20 12 51 25 71 29 l35 8 -7 -31 c-3 -18
-10 -33 -15 -35 -5 -2 -9 -10 -9 -18 0 -29 20 -2 31 41 11 43 36 64 59 50 5
-3 17 4 27 16 10 11 27 25 38 29 17 7 17 9 3 9 -10 1 -28 -9 -40 -21z"/>
<path d="M2865 4480 c-67 -32 -302 -207 -291 -217 2 -3 37 22 78 54 89 70 211
153 225 153 6 0 16 7 23 15 15 18 15 18 -35 -5z"/>
<path d="M1359 4433 c-4 -147 -3 -185 3 -190 5 -2 8 -29 8 -60 0 -39 6 -66 21
-89 11 -19 22 -34 25 -34 7 0 -9 35 -20 42 -5 3 -12 35 -14 70 -2 35 -7 66
-11 71 -4 4 -6 57 -4 117 2 61 1 110 -2 110 -3 0 -5 -17 -6 -37z"/>
<path d="M7957 4443 c-5 -9 26 -164 41 -203 11 -33 8 -164 -7 -264 -19 -118
-85 -293 -137 -363 -31 -41 -89 -170 -70 -154 8 7 17 24 21 38 3 15 27 57 52
94 88 133 160 386 157 559 0 41 -11 111 -22 155 -12 44 -22 95 -24 113 -2 33
-4 37 -11 25z"/>
<path d="M3730 4415 c-12 -13 -29 -21 -37 -18 -8 3 -21 -4 -29 -16 -16 -22
-48 -28 -59 -11 -3 6 -12 10 -18 10 -8 0 -7 -3 2 -9 11 -7 11 -9 0 -13 -8 -3
5 -5 28 -6 33 -1 45 3 57 20 9 12 19 19 22 15 4 -3 19 2 33 12 14 10 33 20 40
23 13 4 12 5 -1 10 -10 4 -25 -3 -38 -17z"/>
<path d="M1905 4401 c4 -13 1 -28 -5 -36 -14 -17 -67 -45 -85 -45 -7 0 -28
-12 -47 -28 -31 -24 -33 -29 -20 -41 13 -12 14 -12 10 0 -6 18 23 41 88 68 29
13 60 32 70 44 19 21 19 22 1 40 -18 18 -19 18 -12 -2z"/>
<path d="M7414 4385 c-4 -16 1 -36 14 -57 13 -20 18 -39 13 -47 -5 -7 -6 -40
-4 -72 3 -43 0 -73 -13 -102 -10 -25 -16 -65 -16 -100 2 -61 -16 -110 -42
-120 -20 -8 -39 -44 -23 -44 7 0 20 -4 30 -8 10 -4 17 -3 17 4 0 6 -10 11 -22
11 l-23 1 25 22 c35 31 50 72 48 137 0 32 6 72 16 96 12 29 16 60 13 100 -2
33 0 67 5 78 8 14 4 26 -12 48 -15 20 -20 37 -16 54 4 13 4 24 1 24 -2 0 -7
-11 -11 -25z"/>
<path d="M8160 4323 c0 -12 -4 -24 -9 -27 -4 -3 -6 -17 -4 -30 4 -17 -5 -40
-25 -69 -16 -25 -33 -59 -37 -76 -3 -17 -11 -33 -16 -36 -5 -4 -9 -17 -9 -31
0 -14 -7 -40 -14 -59 -8 -19 -12 -35 -8 -35 12 0 8 -45 -4 -61 -15 -19 -54
-130 -44 -124 5 3 14 22 20 43 7 20 19 48 28 62 9 14 17 41 17 60 2 48 16 123
25 135 4 6 10 23 14 39 4 16 20 48 37 72 16 23 29 52 29 63 0 11 4 30 9 44 6
14 6 29 0 38 -7 11 -9 9 -9 -8z"/>
<path d="M1922 4288 c6 -24 15 -47 19 -52 14 -16 10 -26 -9 -26 -10 0 -28 -13
-40 -30 -32 -43 -26 -51 8 -10 24 29 32 33 47 24 12 -8 18 -23 17 -48 -1 -19
3 -33 7 -30 12 7 11 61 -1 69 -5 3 -10 14 -10 24 0 10 -7 32 -15 47 -8 16 -15
39 -15 52 0 12 -4 22 -9 22 -5 0 -4 -19 1 -42z"/>
<path d="M3262 4247 c15 -7 34 -22 43 -32 8 -11 15 -15 15 -9 0 16 -31 41 -60
48 -23 5 -23 5 2 -7z"/>
<path d="M7477 4158 c-2 -7 2 -30 9 -52 17 -48 18 -44 -8 -48 -19 -3 -24 -13
-34 -68 -6 -36 -16 -76 -21 -90 -6 -14 -8 -31 -6 -38 3 -7 -1 -19 -8 -28 -8
-10 -9 -18 -2 -25 11 -11 15 5 46 171 10 55 15 65 35 68 26 4 26 7 8 58 -7 22
-11 45 -9 52 3 6 2 12 0 12 -3 0 -7 -6 -10 -12z"/>
<path d="M7510 4145 c0 -5 11 -32 24 -60 41 -84 56 -128 66 -190 l9 -60 -4 62
c-4 58 -17 101 -53 183 -18 41 -42 78 -42 65z"/>
<path d="M2066 4070 c3 -19 15 -46 25 -59 11 -13 19 -36 19 -50 0 -39 6 -73
18 -103 14 -34 8 -52 -21 -66 -18 -8 -18 -11 -5 -11 10 -1 25 10 33 23 13 19
13 29 4 52 -12 30 -14 42 -22 112 -2 23 -12 51 -21 60 -9 10 -16 25 -16 33 0
8 -5 21 -11 29 -7 11 -8 6 -3 -20z"/>
<path d="M1946 4037 c-39 -70 -55 -87 -81 -87 -17 0 -27 -10 -38 -37 -28 -72
-29 -109 -7 -154 12 -23 19 -50 17 -60 -3 -11 -2 -21 2 -23 16 -10 9 48 -10
85 -22 44 -20 75 8 142 12 27 22 37 38 37 12 0 29 8 37 18 24 28 70 112 66
122 -2 6 -16 -14 -32 -43z"/>
<path d="M1996 4048 c14 -91 51 -271 63 -299 10 -25 41 -130 61 -207 17 -65
-4 -222 -30 -222 -8 0 -40 -73 -40 -88 1 -4 11 12 23 35 12 23 30 55 39 71 31
54 25 239 -11 317 -28 61 -79 272 -88 363 -3 34 -10 65 -15 68 -5 3 -6 -14 -2
-38z"/>
<path d="M2030 4069 c0 -5 5 -7 10 -4 6 3 10 8 10 11 0 2 -4 4 -10 4 -5 0 -10
-5 -10 -11z"/>
<path d="M1416 4005 c3 -27 11 -99 19 -160 21 -164 42 -210 144 -320 57 -61
68 -78 66 -104 -1 -18 2 -34 6 -37 4 -2 6 9 4 26 -5 34 3 37 46 14 17 -8 33
-13 37 -10 3 3 0 6 -7 6 -7 0 -9 5 -6 11 4 6 1 10 -6 8 -32 -4 -45 5 -120 84
-108 113 -137 173 -155 331 -8 67 -19 139 -23 161 -9 39 -9 39 -5 -10z"/>
<path d="M1864 4005 c-10 -8 -14 -15 -8 -15 5 0 19 7 30 15 10 8 14 15 8 15
-5 0 -19 -7 -30 -15z"/>
<path d="M5364 3962 c3 -5 18 -7 34 -4 24 3 34 -3 60 -36 18 -22 32 -43 32
-46 0 -3 15 -27 34 -54 40 -54 61 -127 53 -177 -3 -19 -2 -35 2 -35 13 0 12
84 -2 132 -8 26 -29 67 -46 93 -17 25 -31 48 -31 51 0 3 -14 23 -32 45 -27 33
-37 39 -70 39 -22 0 -37 -4 -34 -8z"/>
<path d="M3764 3828 c-33 -20 -25 -25 9 -6 25 14 49 16 57 6 3 -3 13 0 24 7
16 12 14 13 -22 12 -22 -1 -52 -10 -68 -19z"/>
<path d="M7585 3801 c-8 -36 -72 -137 -109 -170 -14 -14 -26 -34 -25 -45 0
-21 0 -21 9 0 5 12 14 25 20 29 38 23 134 195 117 211 -3 3 -8 -8 -12 -25z"/>
<path d="M3575 3798 c-42 -61 -64 -98 -56 -98 5 0 18 15 29 33 11 19 27 46 37
60 21 33 12 36 -10 5z"/>
<path d="M7444 3798 c-3 -12 -16 -29 -27 -39 -11 -9 -22 -30 -23 -47 -4 -62
-16 -132 -22 -132 -4 0 -8 -12 -9 -27 -1 -18 1 -22 8 -12 12 20 31 115 31 157
0 23 7 42 23 56 20 19 43 66 31 66 -2 0 -8 -10 -12 -22z"/>
<path d="M3714 3790 c-6 -6 -28 -13 -50 -15 -21 -3 -44 -12 -50 -20 -6 -8 -20
-15 -30 -16 -18 0 -18 -1 1 -8 15 -6 26 -2 41 15 13 13 29 21 40 18 11 -2 33
5 49 16 17 11 25 20 20 20 -6 0 -16 -5 -21 -10z"/>
<path d="M1626 3765 c4 -8 8 -15 10 -15 2 0 4 7 4 15 0 8 -4 15 -10 15 -5 0
-7 -7 -4 -15z"/>
<path d="M2157 3749 c12 -13 25 -36 28 -52 4 -15 10 -29 14 -32 4 -2 4 -39 -1
-81 -5 -45 -4 -91 1 -111 8 -28 6 -37 -15 -62 -31 -38 -31 -51 1 -21 14 13 25
29 25 37 0 7 6 13 13 13 8 0 9 2 1 8 -19 12 -24 62 -16 139 7 65 6 76 -18 124
-14 29 -32 55 -40 57 -10 3 -8 -3 7 -19z"/>
<path d="M1598 3745 c-3 -11 -9 -29 -13 -40 -6 -17 -5 -17 9 3 10 12 16 30 14
40 -3 15 -5 14 -10 -3z"/>
<path d="M1668 3753 c26 -5 57 -47 49 -67 -6 -14 29 -54 38 -44 3 3 -1 11 -10
18 -8 7 -15 19 -15 27 0 8 -7 27 -15 43 -12 23 -22 30 -43 29 -24 -2 -24 -2
-4 -6z"/>
<path d="M3974 3727 c-50 -54 -57 -66 -65 -118 -5 -33 -16 -56 -31 -69 -13
-11 -18 -19 -11 -20 22 0 53 52 53 89 0 40 18 71 64 113 16 16 27 30 25 33 -3
2 -19 -10 -35 -28z"/>
<path d="M1780 3710 c6 -11 17 -20 25 -20 11 0 10 5 -5 20 -11 11 -22 20 -25
20 -3 0 -1 -9 5 -20z"/>
<path d="M3901 3703 c7 -12 15 -20 18 -17 3 2 -3 12 -13 22 -17 16 -18 16 -5
-5z"/>
<path d="M7595 3710 c4 -6 24 -19 46 -30 21 -11 39 -27 39 -36 0 -8 12 -50 27
-92 32 -93 45 -261 22 -289 -12 -14 -12 -16 1 -11 22 7 26 160 5 235 -9 32
-18 67 -20 78 -11 57 -36 101 -71 127 -40 28 -60 35 -49 18z"/>
<path d="M1866 3681 c13 -14 87 -24 79 -11 -3 5 1 11 7 13 8 3 6 6 -4 6 -10 1
-18 -4 -18 -10 0 -11 -14 -9 -55 6 -16 6 -17 5 -9 -4z"/>
<path d="M3510 3675 c-7 -8 -18 -15 -25 -15 -7 0 -18 -7 -25 -16 -12 -13 -10
-14 16 -3 34 15 60 36 52 44 -3 3 -11 -1 -18 -10z"/>
<path d="M5772 3685 c15 -45 87 -116 140 -137 10 -4 18 -11 18 -16 0 -18 87
-101 175 -167 149 -112 193 -153 242 -228 62 -96 88 -158 104 -242 7 -38 19
-75 27 -82 8 -6 11 -16 7 -22 -3 -6 -2 -11 3 -11 38 0 7 208 -46 312 -30 58
-127 198 -137 198 -6 0 -23 12 -38 26 -16 14 -31 24 -33 21 -7 -7 48 -57 63
-57 6 0 30 -30 53 -67 24 -38 50 -77 60 -88 25 -28 67 -141 74 -200 4 -27 9
-62 12 -77 4 -20 1 -28 -8 -28 -10 0 -18 25 -27 78 -15 89 -46 164 -96 233
-19 27 -35 53 -35 58 0 14 -111 110 -215 185 -49 36 -94 69 -100 74 -24 22
-75 85 -75 92 0 5 -15 16 -34 25 -34 16 -87 63 -119 106 -10 13 -17 20 -15 14z"/>
<path d="M7580 3680 c0 -7 -19 -30 -42 -52 -23 -21 -37 -38 -32 -38 24 1 93
84 80 97 -3 3 -6 0 -6 -7z"/>
<path d="M7941 3661 c-51 -72 -97 -220 -73 -235 5 -3 6 9 4 25 -3 17 0 40 6
52 20 45 35 82 38 94 1 6 14 28 29 48 15 19 25 38 22 41 -2 3 -14 -8 -26 -25z"/>
<path d="M3705 3623 c-79 -90 -119 -128 -158 -146 -32 -16 -57 -37 -43 -37 20
0 131 78 153 108 15 20 32 42 37 47 44 43 78 85 70 85 -5 0 -32 -26 -59 -57z"/>
<path d="M1824 3661 c9 -14 -22 -34 -41 -27 -14 6 -15 5 -6 -5 9 -9 19 -9 35
-2 24 11 86 -2 101 -22 5 -6 7 -5 5 4 -2 8 -21 19 -42 25 -21 6 -35 14 -31 17
3 4 -1 9 -10 13 -9 3 -14 2 -11 -3z"/>
<path d="M3565 3648 c-27 -15 -75 -60 -75 -71 0 -5 17 6 39 26 21 19 44 37 52
39 8 3 12 8 9 11 -3 3 -14 1 -25 -5z"/>
<path d="M1977 3630 c12 -5 31 -27 42 -49 25 -49 33 -54 63 -41 l23 10 -24 -3
c-19 -2 -30 7 -51 43 -18 32 -34 46 -51 47 -24 3 -24 3 -2 -7z"/>
<path d="M2162 3628 c-7 -7 -11 -28 -10 -47 l1 -36 4 34 c3 19 12 41 21 48 9
7 12 13 7 13 -6 0 -16 -5 -23 -12z"/>
<path d="M3391 3629 c-13 -5 -30 -17 -37 -27 -7 -9 -15 -14 -19 -10 -9 9 -65
-11 -65 -23 0 -5 13 -3 29 6 23 11 31 12 34 2 4 -8 12 -4 25 13 11 13 35 30
54 36 18 7 26 13 18 13 -8 0 -26 -5 -39 -10z"/>
<path d="M1650 3624 c0 -5 9 -15 21 -22 12 -7 18 -16 15 -19 -7 -8 13 -33 26
-33 6 0 5 7 -2 15 -13 16 -6 50 9 40 5 -3 12 -1 16 4 6 10 -33 6 -43 -4 -3 -3
-14 2 -24 12 -10 9 -18 12 -18 7z"/>
<path d="M1750 3620 c0 -5 5 -10 11 -10 5 0 7 5 4 10 -3 6 -8 10 -11 10 -2 0
-4 -4 -4 -10z"/>
<path d="M3833 3589 c-24 -11 -43 -24 -43 -29 0 -6 -12 -10 -27 -10 -16 0 -37
-7 -47 -15 -17 -13 -17 -15 -4 -15 9 0 20 5 24 11 3 6 16 8 29 5 15 -4 25 -1
28 9 4 8 24 23 47 35 22 11 40 23 40 25 0 6 4 7 -47 -16z"/>
<path d="M1730 3569 c0 -11 4 -18 10 -14 5 3 7 12 3 20 -7 21 -13 19 -13 -6z"/>
<path d="M1649 3552 c11 -16 28 -35 38 -43 16 -12 15 -11 -1 9 -11 12 -16 22
-13 22 4 0 -2 9 -13 20 -29 29 -35 25 -11 -8z"/>
<path d="M3400 3529 c-30 -28 -67 -58 -82 -67 -16 -9 -28 -20 -28 -25 0 -8 39
17 84 53 70 57 105 90 94 90 -7 -1 -38 -24 -68 -51z"/>
<path d="M7479 3549 c-16 -17 -29 -36 -29 -43 1 -6 10 0 21 14 11 14 29 33 41
43 11 9 15 17 8 17 -7 0 -25 -14 -41 -31z"/>
<path d="M1476 3500 c8 -43 14 -51 14 -19 0 13 -5 31 -10 39 -7 11 -8 5 -4
-20z"/>
<path d="M1990 3520 c0 -6 4 -10 9 -10 6 0 22 -23 38 -52 15 -28 34 -53 41
-54 7 -1 8 0 2 3 -6 2 -22 29 -35 58 -23 48 -55 80 -55 55z"/>
<path d="M2059 3510 c-4 -9 3 -28 17 -45 13 -17 24 -25 24 -19 0 6 -6 17 -14
24 -8 6 -16 21 -18 33 -2 17 -5 18 -9 7z"/>
<path d="M4003 3480 c-24 -11 -43 -24 -43 -30 0 -5 12 -20 27 -33 14 -12 35
-30 45 -40 10 -9 51 -31 91 -48 39 -17 92 -39 116 -50 43 -20 81 -18 81 4 0 8
-3 8 -11 0 -8 -8 -28 -5 -73 12 -105 40 -179 75 -204 98 -72 65 -69 58 -31 75
19 8 48 18 64 22 27 7 28 8 5 8 -14 0 -44 -8 -67 -18z"/>
<path d="M5220 3455 c-30 -9 -76 -30 -102 -48 -65 -45 -272 -247 -253 -247 8
0 21 11 27 25 6 14 16 25 21 25 5 0 54 42 107 94 116 111 177 144 276 153 64
5 75 2 145 -30 54 -24 76 -30 76 -21 0 8 -8 14 -17 14 -9 0 -36 10 -61 22 -56
27 -146 33 -219 13z"/>
<path d="M1490 3441 c0 -6 4 -13 10 -16 6 -3 7 1 4 9 -7 18 -14 21 -14 7z"/>
<path d="M2241 3435 c0 -12 4 -26 9 -31 7 -7 8 -19 1 -37 -10 -26 -31 -37 -31
-17 0 20 -36 9 -54 -18 l-19 -27 24 21 c27 24 58 22 38 -2 -10 -12 -9 -18 4
-32 11 -10 17 -12 17 -4 0 7 -6 12 -12 12 -7 0 -1 11 13 23 28 26 43 65 30 81
-5 6 -11 20 -14 31 -5 20 -5 20 -6 0z"/>
<path d="M1546 3410 c14 -56 104 -119 104 -72 0 14 -2 14 -9 3 -7 -12 -14 -10
-39 10 -16 13 -37 38 -46 54 -14 26 -15 27 -10 5z"/>
<path d="M1864 3418 c-4 -7 -4 -10 1 -6 4 4 23 -1 41 -13 40 -24 134 -24 142
1 4 12 2 13 -9 3 -20 -20 -90 -16 -124 7 -35 23 -41 24 -51 8z"/>
<path d="M3503 3423 c-13 -2 -23 -13 -25 -26 -2 -12 -12 -23 -25 -27 -23 -5
-189 -158 -180 -166 2 -2 40 30 83 72 43 41 91 80 107 86 15 5 27 18 27 27 0
9 12 22 28 28 28 11 23 13 -15 6z"/>
<path d="M4034 3418 c-3 -5 2 -8 12 -6 11 2 18 -2 17 -9 -2 -9 8 -8 38 3 50
21 175 15 234 -11 92 -40 145 -68 156 -81 6 -8 17 -14 24 -14 7 0 24 -9 38
-20 36 -28 45 -25 13 5 -15 14 -33 25 -40 25 -8 0 -19 6 -25 14 -12 15 -86 52
-161 82 -51 20 -295 30 -306 12z"/>
<path d="M1685 3400 c5 -8 8 -38 7 -66 -1 -39 4 -56 16 -66 15 -11 15 -11 6 2
-16 21 -16 97 0 103 26 10 58 -106 32 -117 -6 -2 -3 -5 6 -5 14 -1 16 6 11 47
-6 52 -33 115 -41 94 -3 -10 -9 -9 -25 5 -13 11 -17 12 -12 3z"/>
<path d="M1786 3351 c10 -10 22 -17 27 -14 4 2 7 1 7 -4 0 -4 15 -16 33 -26
l32 -17 -27 24 c-19 17 -23 27 -15 35 8 8 8 11 -1 11 -7 0 -12 -5 -12 -11 0
-7 -10 -5 -25 5 -33 22 -43 20 -19 -3z"/>
<path d="M3199 3321 c-46 -23 -109 -71 -109 -82 0 -5 27 11 61 36 34 25 67 45
75 45 7 0 16 5 19 10 9 14 -5 12 -46 -9z"/>
<path d="M1560 3316 c0 -2 8 -10 18 -17 15 -13 16 -12 3 4 -13 16 -21 21 -21
13z"/>
<path d="M2120 3315 c0 -6 6 -28 14 -50 14 -41 15 -125 1 -160 -6 -16 -5 -18
5 -8 25 23 17 187 -11 218 -6 5 -9 5 -9 0z"/>
<path d="M3243 3253 c-66 -65 -160 -193 -201 -272 -43 -84 -51 -161 -27 -256
9 -38 14 -81 11 -95 -4 -21 1 -33 20 -50 13 -13 24 -30 24 -37 0 -18 30 -63
42 -63 5 0 0 13 -11 29 -12 16 -21 34 -21 39 0 6 -12 24 -26 41 -14 17 -22 31
-16 31 5 0 3 29 -5 68 -8 37 -17 94 -20 128 -5 54 -1 68 30 136 41 88 169 261
230 312 23 20 37 36 30 36 -6 0 -33 -21 -60 -47z"/>
<path d="M3936 3199 c3 -6 16 -9 27 -8 44 3 47 0 47 -45 0 -50 8 -76 22 -76 6
0 6 6 -2 14 -6 8 -10 33 -9 55 2 23 -2 46 -8 52 -14 14 -86 21 -77 8z"/>
<path d="M1659 3182 c5 -10 18 -25 28 -33 12 -10 11 -5 -6 19 -24 35 -38 43
-22 14z"/>
<path d="M2241 3184 c-1 -12 -8 -27 -16 -34 -23 -19 -19 -49 5 -43 13 3 20 0
21 -8 1 -8 2 -20 3 -28 0 -8 8 -16 16 -18 12 -4 12 -2 2 5 -7 5 -12 13 -11 18
5 27 -3 44 -21 44 -25 0 -26 14 -1 31 14 10 17 19 11 34 -8 19 -9 19 -9 -1z"/>
<path d="M3540 3171 c0 -30 26 -49 43 -32 15 15 4 43 -20 52 -21 7 -23 5 -23
-20z m35 -9 c0 -18 -20 -15 -23 4 -3 10 1 15 10 12 7 -3 13 -10 13 -16z"/>
<path d="M3214 3157 c-57 -61 -92 -113 -128 -190 -31 -66 -37 -89 -38 -150 0
-75 12 -135 37 -184 8 -15 15 -34 15 -41 0 -7 8 -27 17 -45 9 -18 16 -41 15
-52 -2 -20 -2 -20 7 0 7 19 4 29 -55 161 -21 47 -32 137 -23 197 11 86 74 199
163 294 16 18 27 35 25 38 -3 2 -19 -10 -35 -28z"/>
<path d="M7305 3170 c5 -8 8 -45 7 -82 -2 -37 1 -68 5 -68 13 0 7 140 -7 153
-10 9 -11 9 -5 -3z"/>
<path d="M2067 3051 c-23 -22 -40 -42 -37 -44 3 -3 25 15 50 39 56 54 45 59
-13 5z"/>
<path d="M2127 3041 c-14 -21 -44 -47 -69 -60 -24 -11 -37 -21 -30 -21 35 0
132 81 132 110 0 17 -7 11 -33 -29z"/>
<path d="M2913 3043 c-58 -37 -62 -44 -35 -64 16 -13 16 -13 2 5 -9 11 -11 21
-5 23 29 10 106 61 99 65 -5 3 -33 -10 -61 -29z"/>
<path d="M1981 3058 c-1 -9 -13 -26 -28 -37 -16 -11 -23 -21 -17 -21 17 0 57
47 51 62 -4 9 -6 8 -6 -4z"/>
<path d="M3436 3037 c3 -21 1 -24 -16 -20 -12 3 -29 -2 -40 -12 -11 -10 -31
-18 -44 -19 -17 -1 -34 -15 -55 -43 -17 -24 -27 -43 -21 -43 5 0 22 18 36 40
27 40 44 51 44 28 0 -8 3 -9 8 -3 10 14 59 45 72 45 18 0 11 -39 -10 -52 -11
-7 -20 -16 -20 -20 0 -23 42 23 54 59 12 35 12 44 1 53 -11 9 -13 7 -9 -13z"/>
<path d="M3160 3025 c-13 -14 -19 -25 -13 -25 12 0 48 38 41 45 -2 3 -15 -6
-28 -20z"/>
<path d="M1805 3020 c11 -13 35 -29 54 -37 31 -13 35 -13 50 3 15 17 15 17 -2
5 -15 -12 -24 -9 -70 19 -41 26 -48 28 -32 10z"/>
<path d="M3790 3014 c0 -5 8 -14 18 -21 15 -9 21 -7 30 8 7 10 8 19 3 19 -5 0
-11 -6 -14 -12 -3 -10 -7 -10 -20 1 -10 7 -17 9 -17 5z"/>
<path d="M6727 2949 c8 -103 -28 -298 -64 -340 -7 -8 -24 -51 -39 -95 -33
-105 -73 -176 -107 -192 -15 -7 -27 -21 -27 -30 0 -13 2 -14 9 -4 4 8 19 19
31 25 32 16 64 76 96 177 15 47 35 94 44 105 10 11 20 31 23 45 3 14 13 52 21
85 21 83 29 192 17 245 -9 41 -9 40 -4 -21z"/>
<path d="M4056 2949 c-21 -21 -34 -39 -30 -39 13 1 49 33 62 55 11 20 11 20
12 0 0 -12 5 -26 12 -33 15 -15 -4 -37 -54 -63 -21 -11 -38 -24 -38 -30 0 -6
12 -1 26 10 15 12 33 21 40 21 7 0 18 9 24 21 9 15 15 18 24 10 15 -13 79 5
70 20 -3 5 -16 2 -28 -7 -23 -14 -25 -13 -45 15 -12 16 -21 34 -21 39 0 24
-17 18 -54 -19z"/>
<path d="M4180 2978 c0 -6 3 -9 6 -6 3 4 22 -5 41 -18 20 -13 42 -24 50 -24 7
0 25 -7 38 -16 13 -9 29 -13 35 -9 6 4 22 0 35 -9 13 -9 38 -16 55 -16 17 0
48 -9 68 -19 33 -17 41 -17 62 -5 14 7 21 13 15 13 -5 1 -17 -3 -25 -9 -10 -6
-25 -2 -49 12 -22 14 -48 21 -71 20 -23 -2 -42 3 -50 13 -7 8 -28 15 -47 15
-21 0 -32 4 -28 10 4 6 3 10 -2 9 -27 -5 -55 4 -81 26 -32 27 -52 32 -52 13z"/>
<path d="M1943 2953 c9 -2 23 -2 30 0 6 3 -1 5 -18 5 -16 0 -22 -2 -12 -5z"/>
<path d="M2675 2893 c14 -33 25 -107 20 -127 -5 -19 -5 -19 5 -4 13 21 -6 148
-22 148 -6 0 -7 -8 -3 -17z"/>
<path d="M4770 2880 c-8 -6 -27 -8 -41 -5 -15 4 -48 -3 -76 -14 -28 -11 -54
-17 -59 -13 -4 4 -4 2 0 -5 5 -9 19 -7 58 8 29 11 62 18 75 14 13 -3 33 0 44
6 16 8 27 8 43 0 55 -28 208 -42 242 -22 16 9 14 10 -11 4 -16 -4 -43 -7 -60
-6 -50 2 -159 24 -169 34 -13 12 -27 11 -46 -1z"/>
<path d="M3365 2833 c0 -24 5 -38 15 -41 12 -4 12 -2 3 8 -7 7 -9 25 -6 41 3
16 2 29 -3 29 -5 0 -9 -16 -9 -37z"/>
<path d="M2280 2794 c0 -8 5 -12 10 -9 6 3 10 10 10 16 0 5 -4 9 -10 9 -5 0
-10 -7 -10 -16z"/>
<path d="M3998 2757 c-50 -26 -73 -35 -78 -26 -5 7 -10 8 -14 1 -16 -26 32
-18 97 17 64 33 81 38 152 40 44 2 82 5 85 8 3 2 -35 3 -83 2 -81 -3 -95 -7
-159 -42z"/>
<path d="M3898 2778 c-9 -7 -18 -19 -20 -27 -2 -8 -22 -20 -44 -27 -39 -13
-39 -13 -4 -8 23 4 44 17 62 37 l26 32 23 -20 22 -20 -12 23 c-13 25 -30 28
-53 10z"/>
<path d="M4284 2778 c-5 -7 -3 -8 6 -3 10 6 12 4 7 -8 -3 -10 -2 -17 3 -17 6
0 10 7 10 15 0 16 12 20 24 8 4 -4 44 -8 89 -10 119 -4 178 -10 210 -22 16 -6
43 -11 61 -11 18 0 46 -5 62 -10 20 -7 50 -7 94 0 36 5 85 13 110 16 48 6 90
27 90 46 0 6 -10 2 -22 -9 -13 -12 -43 -24 -68 -27 -25 -3 -75 -11 -112 -16
-47 -8 -74 -8 -87 0 -11 5 -35 10 -53 10 -18 0 -49 5 -68 10 -42 13 -105 19
-217 23 -45 2 -85 6 -89 10 -11 11 -42 8 -50 -5z"/>
<path d="M6121 2759 c-15 -12 -33 -18 -44 -15 -15 4 -17 2 -9 -6 9 -9 18 -8
37 0 19 9 32 9 46 1 14 -7 29 -7 49 -1 16 6 31 7 35 4 3 -4 3 1 0 10 -6 16 -9
16 -30 2 -19 -12 -28 -13 -45 -4 -11 6 -18 15 -15 21 9 14 3 11 -24 -12z"/>
<path d="M3596 2755 c-3 -8 -3 -21 0 -29 3 -8 -2 -16 -13 -20 -15 -4 -15 -5 2
-3 15 2 20 10 22 35 1 35 -2 40 -11 17z"/>
<path d="M6454 2734 c-9 -22 -27 -60 -40 -85 -13 -26 -24 -57 -24 -68 0 -14
-9 -25 -25 -31 -24 -9 -37 -50 -15 -50 6 0 10 -7 10 -15 0 -8 -8 -15 -18 -15
-26 0 -34 11 -21 27 9 9 8 13 0 13 -18 0 -26 -31 -10 -41 11 -7 11 -9 1 -9 -7
0 -10 -4 -7 -10 3 -5 1 -10 -5 -10 -6 0 -9 -4 -6 -9 3 -4 18 -6 33 -3 24 5 25
6 8 13 -21 7 -21 8 31 24 15 5 15 8 -1 32 -17 25 -17 27 1 40 10 7 21 13 25
13 3 0 9 17 13 39 3 21 12 44 20 50 8 7 18 27 22 44 3 17 13 42 22 55 8 12 12
25 9 29 -3 3 -14 -12 -23 -33z"/>
<path d="M3260 2730 c-7 -10 -18 -16 -24 -13 -6 3 -5 0 2 -8 18 -20 15 -50 -7
-56 -19 -5 -19 -5 0 -24 25 -25 24 -38 -3 -49 -13 -5 -17 -9 -11 -9 26 -2 47
-52 45 -107 -1 -29 1 -55 6 -58 12 -7 5 120 -8 144 -6 12 -9 28 -6 36 3 8 1
25 -4 39 -6 16 -6 27 1 31 6 3 9 17 6 30 -6 33 6 38 42 19 35 -18 41 -18 41
-5 0 6 -9 10 -19 10 -11 0 -26 9 -34 20 -13 19 -14 19 -27 0z"/>
<path d="M3730 2729 l-25 -21 26 15 c14 9 41 17 60 20 l34 4 -35 1 c-22 1 -44
-6 -60 -19z"/>
<path d="M6177 2677 c-46 -47 -87 -96 -121 -142 -16 -22 -49 -61 -72 -87 -24
-26 -44 -52 -44 -57 0 -6 -18 -23 -40 -37 -22 -15 -40 -33 -40 -41 0 -14 -66
-83 -80 -83 -14 0 -52 -49 -47 -62 4 -11 6 -11 6 0 1 13 39 51 53 52 12 0 78
72 78 85 0 7 18 25 40 40 22 15 42 35 45 44 3 9 20 32 38 51 18 19 50 57 71
84 40 53 71 89 127 148 20 21 32 38 27 38 -6 0 -24 -15 -41 -33z"/>
<path d="M3465 2690 c3 -6 20 -10 37 -10 38 0 34 5 -10 13 -21 4 -31 3 -27 -3z"/>
<path d="M5715 2664 c-16 -8 -22 -12 -12 -9 11 3 29 8 41 11 11 3 50 -4 86
-15 47 -15 67 -17 75 -9 7 7 7 9 -1 5 -6 -3 -39 3 -73 13 -74 23 -77 24 -116
4z"/>
<path d="M3570 2653 c-25 -8 -67 -18 -94 -22 -31 -4 -51 -12 -54 -21 -4 -12
-2 -13 9 -4 8 7 32 14 54 17 22 2 67 13 99 23 52 16 68 16 142 6 46 -7 93 -16
104 -20 18 -7 19 -9 5 -36 -17 -33 -19 -52 -5 -61 5 -3 7 0 5 8 -3 7 1 29 10
49 9 23 11 39 5 43 -16 10 -160 35 -198 34 -21 0 -57 -7 -82 -16z"/>
<path d="M5973 2651 c-7 -11 -25 -21 -40 -24 l-28 -4 27 -2 c15 0 33 6 41 14
8 8 18 11 21 7 4 -3 4 1 0 11 -8 21 -7 21 -21 -2z"/>
<path d="M6248 2639 c-14 -23 -15 -35 -8 -50 14 -25 23 -25 15 1 -3 11 -2 27
3 35 8 15 10 15 22 0 11 -13 11 -21 2 -36 -7 -11 -8 -19 -2 -19 18 0 24 52 8
64 -8 6 -17 17 -19 23 -2 7 -12 -1 -21 -18z"/>
<path d="M3700 2600 c23 -17 25 -26 26 -97 0 -43 6 -88 12 -99 6 -12 8 -25 4
-29 -4 -3 -2 -6 3 -5 22 5 35 -1 35 -15 0 -8 5 -15 10 -15 17 0 6 23 -26 51
-29 27 -31 32 -27 89 5 75 -10 126 -40 134 -21 5 -21 4 3 -14z"/>
<path d="M5707 2603 c-4 -3 -1 -16 7 -27 30 -47 36 -173 10 -213 -8 -13 -10
-23 -5 -23 19 0 32 41 32 103 0 75 -5 98 -25 130 -9 13 -13 27 -9 30 3 4 4 7
1 7 -2 0 -8 -3 -11 -7z"/>
<path d="M5826 2580 c2 -16 -3 -50 -11 -76 -8 -27 -12 -50 -10 -52 3 -3 6 1 9
9 2 8 9 29 15 48 13 41 14 88 2 95 -4 3 -7 -8 -5 -24z"/>
<path d="M3430 2585 c0 -2 10 -10 23 -16 20 -11 21 -11 8 4 -13 16 -31 23 -31
12z"/>
<path d="M3875 2564 c-18 -13 -20 -26 -20 -123 0 -93 3 -112 19 -130 31 -34
130 -42 110 -9 -6 9 -9 9 -12 0 -6 -20 -49 -13 -79 12 -26 23 -28 29 -31 120
-3 77 -1 96 10 96 16 0 78 -98 78 -122 0 -9 5 -20 10 -23 17 -10 1 44 -29 98
-14 26 -34 50 -44 53 -14 5 -16 9 -6 20 8 10 15 11 24 4 10 -8 15 -7 21 2 4 7
4 10 -1 6 -4 -4 -13 -4 -19 1 -7 6 -19 4 -31 -5z"/>
<path d="M3986 2545 c-20 -31 -20 -62 0 -111 9 -22 16 -62 15 -91 -1 -50 28
-123 50 -123 5 0 -2 18 -16 40 -19 30 -25 52 -24 88 1 26 -6 64 -15 86 -20 48
-20 70 0 101 19 30 64 34 86 8 8 -10 23 -40 33 -68 10 -27 24 -59 31 -70 9
-13 10 -25 4 -35 -5 -8 -9 -31 -8 -50 l1 -35 4 35 c3 19 8 39 12 45 13 16 21
46 12 41 -9 -6 -41 55 -56 104 -12 42 -35 60 -75 60 -29 0 -41 -6 -54 -25z"/>
<path d="M5423 2559 c-12 -4 -26 -17 -32 -28 -18 -34 -12 -34 18 -2 17 18 35
29 44 25 24 -9 37 -108 24 -199 -6 -48 -6 -48 8 10 12 47 12 74 4 127 -11 70
-24 83 -66 67z"/>
<path d="M3346 2545 c-24 -18 -14 -20 13 -3 15 9 25 9 46 0 14 -7 35 -12 45
-12 27 0 189 -165 231 -236 19 -31 46 -62 60 -68 14 -6 40 -28 58 -48 18 -21
37 -36 42 -33 4 3 15 -7 23 -22 8 -15 15 -22 16 -15 0 16 -93 106 -132 127
-14 8 -40 39 -57 68 -17 30 -72 95 -122 145 -72 73 -96 92 -119 92 -16 0 -32
5 -35 10 -9 15 -47 12 -69 -5z"/>
<path d="M4168 2540 c12 -5 25 -16 28 -25 5 -12 10 -13 20 -4 14 12 70 4 92
-13 6 -6 12 -8 12 -4 0 16 72 -76 79 -101 7 -25 2 -72 -14 -133 -4 -15 0 -12
10 10 17 37 22 129 9 153 -20 32 -84 100 -84 88 0 -11 -3 -11 -15 -1 -8 7 -35
13 -60 14 -25 1 -51 8 -57 14 -7 7 -19 12 -27 11 -10 0 -7 -4 7 -9z"/>
<path d="M5202 2507 c-22 -10 -102 -119 -102 -140 0 -14 6 -7 54 66 46 69 63
80 96 64 30 -15 38 -48 44 -169 l4 -98 -30 -25 c-23 -20 -40 -25 -83 -25 -44
0 -55 3 -60 19 -9 28 -33 16 -49 -24 -14 -32 -16 -33 -89 -40 -77 -7 -182 8
-194 29 -11 17 -2 189 11 221 30 70 127 127 191 111 28 -7 84 -95 86 -136 l1
-25 7 25 c11 38 -51 137 -90 145 -52 12 -108 -5 -152 -44 -53 -48 -67 -84 -68
-178 -1 -104 -14 -138 -24 -62 -4 37 -3 64 4 78 8 14 8 21 1 21 -5 0 -10 9
-10 21 0 28 -34 101 -57 120 -19 17 -83 42 -90 35 -2 -1 16 -11 41 -20 64 -24
93 -88 100 -213 3 -63 1 -95 -7 -102 -7 -5 -68 -11 -136 -13 -159 -4 -161 -2
-153 134 6 123 44 196 101 199 25 2 25 2 3 6 -13 3 -34 -3 -47 -11 -43 -28
-62 -82 -68 -193 -5 -90 -4 -105 13 -125 17 -22 24 -23 152 -23 105 0 135 3
144 15 10 12 17 12 35 3 51 -25 129 -35 210 -28 l81 7 15 36 c14 33 16 35 28
19 20 -28 137 -22 166 9 21 22 21 22 61 4 71 -32 129 0 127 69 l-1 36 -8 -39
c-4 -22 -16 -45 -26 -53 -24 -17 -64 -17 -90 2 -12 8 -25 11 -29 7 -4 -4 -5 5
-3 21 3 15 1 30 -3 33 -5 3 -8 33 -7 67 2 73 -9 142 -25 155 -20 16 -51 19
-75 9z"/>
<path d="M5083 2503 c-7 -3 -13 -12 -13 -21 1 -15 2 -15 11 1 8 14 14 16 25 6
8 -7 14 -7 14 -1 0 12 -21 21 -37 15z"/>
<path d="M4235 2476 c-30 -31 -54 -92 -48 -118 7 -25 43 -77 43 -61 0 6 -7 16
-15 23 -31 26 -12 110 32 146 15 11 22 23 17 26 -5 3 -18 -5 -29 -16z"/>
<path d="M4403 2493 c9 -2 25 -2 35 0 9 3 1 5 -18 5 -19 0 -27 -2 -17 -5z"/>
<path d="M5369 2459 c-21 -23 -27 -43 -33 -100 -7 -76 -4 -89 22 -89 14 0 14
1 -1 13 -15 10 -16 22 -9 81 6 47 14 71 25 78 18 10 43 49 30 47 -4 0 -20 -14
-34 -30z"/>
<path d="M5582 2473 c-32 -15 -63 -58 -62 -85 1 -7 9 2 18 20 9 19 31 42 48
53 l31 19 13 -30 c8 -19 10 -46 5 -76 -8 -55 -51 -101 -113 -121 l-37 -12 36
3 c23 1 50 13 70 30 28 24 33 25 41 12 5 -9 14 -13 20 -10 6 4 25 11 42 15 25
5 26 7 8 8 -13 1 -32 -3 -42 -9 -25 -13 -31 6 -19 61 10 44 8 91 -5 122 -10
21 -12 21 -54 0z"/>
<path d="M3790 2455 c13 -14 26 -23 28 -20 7 7 -29 45 -41 45 -6 0 0 -11 13
-25z"/>
<path d="M3060 2458 c0 -10 4 -18 9 -18 4 0 20 -11 35 -25 14 -13 26 -21 26
-18 0 3 9 -2 20 -12 11 -10 20 -14 20 -8 0 5 -21 25 -47 43 -27 19 -51 39 -55
44 -5 7 -8 4 -8 -6z"/>
<path d="M4583 2463 c9 -2 23 -2 30 0 6 3 -1 5 -18 5 -16 0 -22 -2 -12 -5z"/>
<path d="M5218 2458 c5 -5 16 -8 23 -6 8 3 3 7 -10 11 -17 4 -21 3 -13 -5z"/>
<path d="M3690 2379 c72 -66 131 -96 156 -80 17 11 17 11 -4 6 -27 -8 -78 21
-144 82 -26 24 -51 43 -55 43 -4 -1 17 -23 47 -51z"/>
<path d="M5710 2400 c0 -16 2 -30 4 -30 2 0 6 14 8 30 3 17 1 30 -4 30 -4 0
-8 -13 -8 -30z"/>
<path d="M4883 2412 c-6 -4 -14 -21 -17 -37 -6 -28 -6 -29 4 -6 6 14 16 31 22
38 12 15 9 16 -9 5z"/>
<path d="M6330 2395 c-13 -14 -21 -27 -18 -30 2 -3 15 6 28 20 13 14 21 27 18
30 -2 3 -15 -6 -28 -20z"/>
<path d="M5830 2385 c-13 -14 -21 -28 -18 -31 4 -3 14 6 23 20 9 13 24 27 33
29 14 4 15 5 1 6 -8 0 -26 -10 -39 -24z"/>
<path d="M6279 2379 c-18 -35 -38 -119 -28 -119 5 0 9 10 9 23 0 12 9 42 20
66 21 46 21 69 -1 30z"/>
<path d="M5754 2338 l-19 -23 25 20 c14 11 27 21 29 22 2 2 0 3 -6 3 -5 0 -18
-10 -29 -22z"/>
<path d="M6194 2345 c-3 -8 4 -26 15 -41 16 -20 21 -22 21 -10 0 9 -7 19 -15
22 -10 4 -13 13 -10 25 7 22 -3 26 -11 4z"/>
<path d="M5055 2315 c0 -18 3 -31 8 -28 4 2 7 15 7 28 0 13 -3 26 -7 28 -5 3
-8 -10 -8 -28z"/>
<path d="M5120 2292 l5 -57 3 49 c2 27 0 52 -5 57 -4 4 -6 -18 -3 -49z"/>
<path d="M6498 2267 c-14 -12 -31 -40 -37 -63 -6 -22 -22 -60 -36 -85 -14 -24
-27 -51 -31 -59 -3 -8 -10 -23 -15 -32 -5 -10 -9 -23 -9 -29 0 -6 -18 -30 -41
-52 -23 -23 -36 -43 -30 -45 29 -10 -13 -77 -52 -85 -19 -4 -18 -4 5 -6 33 -1
73 49 65 81 -5 16 3 30 28 54 19 18 35 38 35 44 0 11 18 51 71 152 10 20 19
46 19 58 0 12 17 37 38 55 41 38 33 48 -10 12z"/>
<path d="M3870 2275 c0 -21 119 -49 137 -31 3 3 -9 5 -28 5 -19 -1 -51 6 -71
15 -21 9 -38 14 -38 11z"/>
<path d="M4156 2239 c-20 -16 -35 -20 -59 -15 -23 4 -28 3 -17 -4 24 -15 55
-12 83 10 l25 20 26 -35 c27 -34 28 -35 101 -35 79 0 105 6 105 23 0 7 -4 7
-12 -1 -7 -7 -41 -12 -84 -12 -72 0 -73 1 -100 35 -14 19 -30 35 -34 35 -4 0
-19 -10 -34 -21z"/>
<path d="M5599 2240 c-31 -26 -15 -26 18 0 14 11 21 20 15 20 -5 0 -20 -9 -33
-20z"/>
<path d="M4176 2196 c7 -19 32 -28 40 -14 4 7 3 8 -5 4 -6 -4 -14 0 -17 8 -3
9 -10 16 -15 16 -4 0 -6 -6 -3 -14z"/>
<path d="M4054 2172 c3 -2 29 -5 59 -5 30 -1 50 1 44 6 -12 7 -110 7 -103 -1z"/>
<path d="M5255 2154 c-27 -8 -73 -13 -102 -12 -28 2 -49 0 -46 -4 7 -12 108
-10 140 3 15 6 53 14 83 18 48 8 50 9 15 9 -22 0 -62 -6 -90 -14z"/>
<path d="M2478 2120 c9 -22 18 -34 20 -26 4 18 -16 66 -27 66 -5 0 -2 -18 7
-40z"/>
<path d="M4286 2143 c51 -4 52 -5 60 -41 4 -20 9 -30 11 -21 3 14 10 15 46 7
22 -5 46 -13 53 -19 18 -14 122 -4 143 15 10 9 24 16 32 16 8 0 21 5 29 11 11
7 6 8 -20 4 -19 -4 -45 -17 -58 -28 -20 -18 -24 -19 -32 -7 -5 8 -10 19 -10
24 0 5 -3 6 -7 2 -5 -4 -8 -13 -8 -19 0 -19 -43 -20 -80 -3 -18 9 -40 16 -48
16 -29 0 -47 12 -47 31 0 17 -7 19 -57 17 l-58 -2 51 -3z"/>
<path d="M4750 2128 c0 -4 7 -8 15 -8 8 0 15 4 15 8 0 5 -7 9 -15 9 -8 0 -15
-4 -15 -9z"/>
<path d="M4705 2109 c-11 -17 1 -21 15 -4 8 9 8 15 2 15 -6 0 -14 -5 -17 -11z"/>
<path d="M4110 2102 c-8 -4 -16 -15 -16 -24 -2 -24 51 -25 60 -2 11 29 -9 42
-44 26z m35 -12 c3 -6 -1 -13 -10 -16 -19 -8 -30 0 -20 15 8 14 22 14 30 1z"/>
<path d="M4936 2095 c-3 -8 -1 -15 4 -15 13 0 22 18 11 24 -5 3 -11 -1 -15 -9z"/>
<path d="M4748 2082 c-6 -22 -10 -24 -77 -20 -41 2 -70 -1 -68 -6 2 -5 33 -8
70 -7 48 2 73 -2 89 -13 28 -20 70 -20 124 -2 22 8 54 16 70 18 16 2 34 10 41
19 13 18 72 14 86 -5 6 -7 7 -6 4 4 -5 20 -74 31 -91 14 -17 -16 -118 -45
-172 -50 -24 -1 -50 3 -60 11 -17 12 -13 13 36 13 30 0 63 1 73 3 20 3 18 20
-3 27 -7 3 -10 0 -6 -6 9 -15 -27 -24 -68 -17 -21 4 -36 14 -38 24 -3 12 -6
10 -10 -7z"/>
<path d="M2449 2063 c6 -12 16 -25 21 -28 6 -3 10 -15 10 -25 0 -10 5 -22 10
-25 21 -13 -2 50 -27 75 -23 23 -24 23 -14 3z"/>
<path d="M2640 2043 c0 -7 16 -28 36 -47 30 -29 39 -33 54 -23 10 6 16 15 13
19 -2 5 3 20 11 33 10 15 12 25 6 25 -6 0 -18 -16 -26 -35 -8 -19 -18 -35 -23
-35 -5 0 -23 17 -40 37 -17 21 -31 32 -31 26z"/>
<path d="M4644 2028 c-3 -5 16 -8 42 -8 26 0 45 3 41 6 -9 9 -78 11 -83 2z"/>
<path d="M2774 2013 c-15 -48 -25 -63 -42 -63 -10 0 -19 -6 -19 -14 0 -12 5
-11 26 2 39 25 46 35 46 65 1 31 -3 35 -11 10z"/>
<path d="M4734 2006 c-3 -8 -4 -23 -1 -33 3 -12 5 -9 6 9 0 14 7 29 14 31 9 4
9 6 -1 6 -7 1 -15 -5 -18 -13z"/>
<path d="M2544 1980 c3 -14 6 -38 7 -55 1 -16 3 -23 5 -15 3 9 19 21 36 28 18
6 29 15 25 19 -4 4 -13 1 -19 -5 -19 -19 -28 -14 -44 21 -12 24 -14 26 -10 7z"/>
<path d="M4160 1945 c12 -13 26 -22 31 -20 4 3 14 -3 21 -12 7 -10 31 -27 53
-37 59 -29 63 -30 35 -7 -14 11 -30 21 -37 21 -6 0 -19 7 -28 16 -20 20 -83
64 -92 64 -4 0 4 -11 17 -25z"/>
<path d="M4613 1948 c18 -29 23 -63 8 -54 -4 3 -16 -3 -26 -14 -23 -25 -39
-26 -32 -1 2 10 0 25 -5 32 -8 11 -9 11 -5 -1 7 -25 -12 -52 -33 -45 -10 3
-21 2 -23 -2 -12 -19 76 -13 108 7 28 17 34 18 38 5 4 -8 2 -17 -3 -20 -6 -4
-10 -12 -10 -18 0 -7 5 -4 11 6 6 9 14 15 19 12 5 -3 12 0 16 6 4 7 3 9 -3 6
-10 -6 -33 33 -33 57 0 7 -10 21 -22 32 l-22 19 17 -27z"/>
<path d="M4315 1919 c36 -18 69 -28 81 -24 14 3 24 -1 27 -9 8 -21 44 -39 52
-26 4 6 3 10 -2 9 -16 -4 -43 14 -43 28 0 11 -7 13 -24 9 -14 -3 -42 4 -74 19
-29 14 -58 25 -64 24 -7 0 14 -14 47 -30z"/>
<path d="M3382 1924 c-11 -12 -11 -15 0 -19 42 -14 68 -8 68 15 0 15 -7 20
-27 20 -16 -1 -34 -7 -41 -16z m58 -4 c0 -5 -12 -10 -26 -10 -14 0 -23 4 -19
10 3 6 15 10 26 10 10 0 19 -4 19 -10z"/>
<path d="M2549 1878 c7 -10 19 -18 27 -18 7 0 15 -10 17 -22 4 -20 4 -19 6 5
1 20 -4 27 -17 27 -10 0 -24 6 -32 13 -12 10 -12 9 -1 -5z"/>
<path d="M4080 1866 c0 -2 17 -14 37 -26 38 -22 108 -36 97 -19 -3 5 -16 9
-29 9 -14 0 -40 9 -60 20 -36 20 -45 23 -45 16z"/>
<path d="M2641 1818 c-4 -12 -2 -36 5 -57 9 -28 18 -37 39 -39 16 -2 30 -13
37 -28 6 -13 15 -24 19 -24 5 0 -1 15 -11 34 -16 26 -25 32 -44 29 -22 -5 -25
-1 -31 40 -4 25 -4 50 0 56 3 6 4 11 0 11 -3 0 -9 -10 -14 -22z"/>
<path d="M6897 1815 c-4 -8 -2 -17 3 -20 6 -4 10 3 10 14 0 25 -6 27 -13 6z"/>
<path d="M3156 1711 c-13 -21 6 -40 40 -39 19 1 34 4 34 8 0 13 -39 19 -43 7
-2 -6 -9 -7 -15 -3 -22 13 -1 27 30 21 21 -5 28 -4 24 4 -9 13 -62 15 -70 2z"/>
<path d="M2608 1688 c12 -6 22 -14 22 -19 0 -7 43 -63 92 -121 12 -14 27 -24
31 -21 5 3 -5 17 -22 30 -17 13 -31 31 -31 38 0 8 -10 21 -21 29 -12 8 -30 28
-40 45 -10 17 -27 31 -36 30 -15 0 -14 -2 5 -11z"/>
<path d="M2670 1670 c0 -13 10 -24 25 -30 13 -5 27 -20 31 -34 4 -17 17 -29
41 -37 19 -6 37 -8 40 -5 4 3 -8 9 -26 12 -28 6 -60 40 -51 54 1 3 -9 11 -24
18 -17 9 -25 19 -22 28 3 8 1 14 -4 14 -6 0 -10 -9 -10 -20z"/>
<path d="M3104 1517 c-9 -9 -7 -20 8 -44 15 -25 17 -36 8 -53 -14 -26 -34 -26
-27 0 3 11 1 23 -4 26 -5 3 -9 -9 -9 -25 0 -24 4 -31 20 -31 11 0 20 5 20 10
0 6 9 19 20 30 16 16 17 20 5 20 -19 0 -20 19 -1 26 14 5 14 40 0 53 -4 3 -5
-1 -2 -10 4 -9 3 -22 -2 -29 -11 -18 -32 -2 -25 21 7 22 5 23 -11 6z"/>
<path d="M2740 1506 c0 -3 20 -35 45 -72 25 -36 45 -70 45 -76 0 -6 20 -28 45
-50 25 -22 45 -48 45 -59 0 -11 13 -25 31 -34 16 -9 34 -26 39 -38 l9 -22 0
23 c1 16 -10 29 -34 43 -20 12 -35 29 -35 39 0 10 -20 36 -45 58 -25 22 -45
44 -45 50 0 12 -77 129 -91 137 -5 4 -9 4 -9 1z"/>
<path d="M3305 1470 c-9 -15 4 -50 20 -50 8 0 17 5 20 11 5 6 12 4 21 -8 7
-10 14 -14 14 -10 0 4 -10 21 -22 37 -22 31 -42 38 -53 20z m38 -14 c6 -16
-19 -30 -28 -16 -7 11 2 30 15 30 4 0 10 -6 13 -14z"/>
<path d="M3397 1473 c-14 -13 -6 -25 8 -13 32 27 26 -1 -11 -47 -55 -69 -57
-73 -48 -73 5 0 20 17 34 38 14 20 33 43 42 50 24 18 23 52 0 52 -10 0 -22 -3
-25 -7z"/>
<path d="M3495 1394 c-18 -18 -16 -35 6 -43 12 -3 12 -2 1 11 -11 14 -9 19 10
32 12 9 17 16 11 16 -6 0 -19 -7 -28 -16z"/>
<path d="M3424 1350 c-20 -8 -84 -66 -84 -77 0 -3 18 11 40 31 35 31 45 35 82
32 24 -2 34 -1 23 1 -11 3 -24 8 -30 13 -5 4 -19 4 -31 0z"/>
<path d="M4379 1234 l-24 -25 -16 20 c-24 29 -33 26 -13 -4 9 -14 20 -25 25
-25 13 0 76 59 63 60 -6 0 -21 -12 -35 -26z"/>
<path d="M3462 1220 c-18 -9 -30 -19 -26 -23 4 -4 1 -13 -7 -20 -8 -6 -12 -11
-10 -10 10 6 30 -37 25 -54 -5 -16 -4 -16 7 1 9 15 9 24 0 38 -16 25 3 63 27
52 36 -15 59 -15 74 -1 8 9 21 17 29 18 27 5 99 -13 99 -25 0 -11 90 -83 99
-79 2 1 7 7 12 14 9 15 -16 49 -35 49 -6 -1 -1 -9 12 -19 15 -13 18 -21 10
-24 -16 -5 -88 50 -88 67 0 7 -23 17 -51 22 -42 9 -55 8 -83 -7 -33 -17 -93
-16 -65 2 26 16 3 15 -29 -1z"/>
<path d="M3365 1203 c-31 -8 -41 -21 -26 -35 8 -9 11 -9 9 -1 -2 6 2 13 7 15
16 5 18 -39 1 -45 -8 -3 -22 3 -32 14 -9 10 -22 19 -28 19 -6 -1 -1 -9 12 -19
12 -11 22 -24 22 -31 0 -6 5 -8 11 -5 18 12 73 -23 133 -84 33 -34 68 -63 78
-67 10 -3 18 -11 17 -17 -4 -35 4 -49 35 -62 35 -15 54 -53 33 -67 -7 -4 -8
-8 -2 -8 5 0 4 -5 -3 -12 -17 -17 -15 -33 2 -19 36 30 26 111 -14 111 -20 0
-53 38 -44 52 6 10 45 -9 60 -30 9 -13 13 -12 26 6 8 12 18 19 23 14 4 -4 2 3
-4 16 -6 12 -17 22 -23 22 -7 0 -7 -4 0 -13 7 -8 6 -17 -3 -30 -10 -14 -14
-15 -18 -3 -3 7 -25 24 -49 36 -49 24 -128 91 -128 108 0 19 16 22 48 10 27
-11 34 -10 44 5 7 9 25 18 40 19 15 1 24 6 22 10 -7 11 -57 -2 -70 -19 -9 -11
-17 -11 -38 -2 -20 9 -29 9 -40 0 -12 -10 -22 -7 -54 13 -38 24 -39 26 -32 65
4 23 7 40 6 40 0 -1 -10 -3 -21 -6z"/>
<path d="M2910 1193 c0 -14 47 -56 57 -52 5 2 -6 17 -24 32 -18 16 -33 25 -33
20z"/>
<path d="M3147 1153 c-4 -3 -7 -14 -7 -24 0 -10 -9 -20 -22 -22 -16 -4 -13 -5
7 -4 24 2 29 6 27 21 -2 10 2 23 10 27 7 5 8 9 2 9 -6 0 -14 -3 -17 -7z"/>
<path d="M3000 1147 c0 -2 16 -22 35 -43 35 -38 50 -37 17 1 -19 24 -52 50
-52 42z"/>
<path d="M3180 1139 c0 -5 -4 -7 -10 -4 -5 3 -10 1 -10 -4 0 -6 9 -16 20 -23
26 -17 25 -32 -2 -52 -23 -16 -23 -16 5 -4 31 13 37 52 10 63 -17 6 -17 7 1
21 17 12 18 14 3 14 -9 0 -17 -5 -17 -11z"/>
<path d="M3625 1090 c-8 -13 12 -40 29 -40 6 0 3 7 -7 14 -22 17 -6 30 26 21
17 -5 19 -4 7 4 -19 14 -47 14 -55 1z"/>
<path d="M3118 1050 c29 -26 42 -46 40 -59 -2 -10 7 -30 19 -43 12 -12 23 -34
26 -48 4 -22 4 -21 6 6 1 20 -6 38 -19 49 -12 11 -20 29 -18 41 2 15 -10 32
-41 58 -57 48 -67 45 -13 -4z"/>
<path d="M3555 1060 c-16 -16 -26 -32 -24 -35 3 -2 21 11 39 30 19 19 29 35
24 35 -6 0 -23 -13 -39 -30z"/>
<path d="M3657 1039 c-27 -28 -31 -59 -7 -59 6 0 28 9 50 20 39 20 39 20 50 1
8 -16 3 -26 -35 -59 -25 -22 -45 -45 -45 -51 0 -14 35 -14 62 0 16 9 24 7 42
-10 23 -22 56 -28 56 -11 0 14 50 1 73 -18 12 -11 17 -11 17 -3 0 7 -18 20
-40 28 -31 12 -39 20 -34 32 16 40 12 52 -6 16 -11 -22 -21 -44 -23 -50 -3 -5
-18 3 -35 18 -20 19 -32 25 -37 17 -4 -6 -13 -9 -21 -6 -8 3 -14 1 -14 -4 0
-6 -8 -10 -17 -10 -12 0 -2 14 31 44 26 25 45 49 41 55 -3 6 0 11 7 11 7 0 2
7 -10 16 -20 14 -26 13 -68 -6 -56 -24 -68 -18 -31 16 15 14 27 29 27 34 0 14
-1 13 -33 -21z"/>
<path d="M3334 1041 c4 -6 20 -11 36 -11 15 0 30 -5 32 -11 2 -6 12 -1 22 10
11 12 14 21 8 21 -7 0 -12 -5 -12 -10 0 -10 -21 -8 -74 7 -12 3 -16 1 -12 -6z"/>
<path d="M4453 1029 c9 -30 -21 -61 -57 -57 -30 3 -31 2 -31 -35 0 -26 -8 -47
-23 -64 -25 -28 -23 -54 5 -52 17 1 17 2 1 6 -23 6 -23 10 6 44 l24 29 19 -30
c14 -22 22 -27 33 -20 13 8 12 10 -2 10 -10 0 -18 4 -18 8 0 5 -9 19 -20 32
-11 13 -20 35 -20 49 1 25 1 25 15 7 8 -11 15 -14 15 -8 0 7 9 12 20 12 29 0
55 44 40 67 -9 14 -10 14 -7 2z"/>
<path d="M4487 1015 c-6 -36 24 -52 48 -25 10 11 16 22 13 25 -3 3 -11 -1 -18
-10 -19 -23 -33 -18 -28 10 3 14 2 25 -2 25 -4 0 -10 -11 -13 -25z"/>
<path d="M5475 965 c20 -16 33 -21 41 -14 7 6 16 4 24 -6 7 -8 18 -15 24 -15
6 0 -2 11 -19 24 -20 16 -32 20 -37 13 -5 -8 -13 -6 -26 6 -10 9 -23 17 -28
17 -5 -1 4 -12 21 -25z"/>
<path d="M5408 962 c-16 -9 -28 -25 -27 -37 0 -19 1 -18 9 3 9 22 21 28 33 16
3 -3 -3 -14 -14 -25 -10 -10 -19 -24 -19 -30 0 -5 13 2 29 18 23 23 26 30 14
36 -11 7 -12 12 -2 23 15 18 10 17 -23 -4z"/>
<path d="M5900 957 c0 -21 -9 -33 -35 -48 -36 -21 -62 -80 -49 -112 3 -9 1
-25 -6 -36 -7 -14 -7 -21 -1 -21 13 0 25 45 16 60 -12 19 16 79 46 101 38 27
55 57 40 72 -8 8 -11 3 -11 -16z"/>
<path d="M3255 933 c37 -56 48 -85 35 -93 -7 -5 -6 -11 5 -20 8 -7 15 -18 15
-26 0 -15 89 -104 104 -104 5 0 -12 20 -37 45 -49 47 -68 80 -72 128 -2 16
-12 38 -22 50 -11 12 -23 30 -26 40 -4 9 -11 17 -17 17 -6 0 1 -17 15 -37z"/>
<path d="M4131 884 c-7 -16 -14 -43 -16 -59 -1 -25 2 -31 19 -33 14 -1 17 1 8
7 -19 12 -11 75 10 79 9 2 18 -5 21 -15 4 -14 5 -13 6 5 1 13 -5 22 -13 22 -8
0 -16 5 -18 11 -2 6 -10 -2 -17 -17z"/>
<path d="M5191 890 c-13 -11 -29 -20 -35 -20 -16 0 -86 -65 -86 -79 0 -6 16 4
35 23 47 47 71 60 78 42 8 -21 43 -9 55 19 9 19 8 25 -4 29 -19 7 -15 9 -43
-14z m36 -15 c-4 -8 -14 -15 -23 -15 -16 0 -16 2 1 20 20 22 31 20 22 -5z"/>
<path d="M3947 889 c-9 -6 -17 -18 -17 -27 1 -16 1 -16 11 1 12 20 29 23 29 4
0 -8 9 -22 20 -32 11 -10 20 -25 20 -33 0 -12 3 -12 15 -2 13 10 15 9 15 -9 0
-12 -7 -24 -15 -27 -8 -4 -15 -11 -15 -17 0 -18 38 23 44 49 6 24 26 34 26 13
0 -5 5 -7 11 -3 8 5 7 10 -4 16 -9 5 -14 15 -11 23 10 25 -4 17 -18 -10 -13
-24 -15 -24 -37 -9 -12 9 -30 29 -40 44 -13 22 -20 26 -34 19z"/>
<path d="M5301 851 c-8 -5 -12 -17 -9 -28 3 -10 -1 -24 -9 -31 -7 -7 -12 -25
-12 -40 2 -27 2 -27 6 -2 7 36 23 51 46 44 13 -4 17 -2 13 5 -4 6 -2 11 3 11
6 0 11 5 11 11 0 8 -5 7 -15 -1 -13 -10 -18 -11 -28 -1 -9 10 -8 15 7 27 21
15 10 19 -13 5z"/>
<path d="M3590 810 c-8 -5 -10 -10 -5 -10 6 0 17 5 25 10 8 5 11 10 5 10 -5 0
-17 -5 -25 -10z"/>
<path d="M3690 805 c0 -13 68 -85 81 -85 15 0 10 -30 -6 -37 -14 -5 -14 -8 2
-26 10 -11 33 -26 52 -34 28 -12 32 -18 28 -41 -5 -25 -4 -26 9 -7 12 16 18
17 32 8 9 -6 16 -17 14 -25 -1 -7 4 -5 12 5 10 13 21 17 38 12 18 -5 20 -4 8
4 -8 6 -25 11 -38 11 -23 0 -131 56 -144 74 -3 5 1 20 9 33 14 21 14 23 -3 30
-11 4 -36 25 -56 47 -20 23 -37 37 -38 31z"/>
<path d="M3423 753 c-4 -9 -1 -19 5 -21 16 -5 42 -55 42 -81 0 -14 17 -28 63
-50 34 -17 78 -46 97 -66 19 -19 38 -35 44 -35 6 0 -7 18 -29 40 -36 37 -127
90 -155 90 -8 0 -11 9 -8 25 3 14 -1 30 -8 36 -17 14 -18 36 -3 41 5 2 7 11 4
21 -9 22 -44 22 -52 0z m38 -8 c-1 -15 -24 -12 -29 3 -3 9 2 13 12 10 10 -1
17 -7 17 -13z"/>
<path d="M3774 758 c-5 -7 -3 -8 5 -3 7 4 23 2 36 -5 23 -12 23 -14 7 -39 -16
-24 -14 -23 25 8 23 19 48 31 55 27 7 -3 33 -19 58 -34 47 -30 56 -52 34 -88
-13 -22 -3 -44 21 -44 5 0 2 7 -8 14 -27 21 -3 30 27 11 13 -9 27 -26 31 -38
5 -12 11 -30 14 -41 4 -13 17 -20 41 -21 l35 -3 -32 10 c-20 7 -33 18 -33 27
0 9 -18 38 -40 64 -22 28 -37 54 -33 63 3 8 0 20 -6 27 -6 7 -11 28 -13 45 -1
18 -6 32 -11 32 -5 0 -6 -13 -2 -30 8 -37 -4 -38 -43 -5 -32 27 -61 32 -80 13
-9 -9 -16 -8 -30 5 -22 20 -48 22 -58 5z"/>
<path d="M5760 741 c0 -10 -7 -24 -15 -31 -15 -13 -18 -83 -3 -74 5 3 6 14 3
25 -4 12 2 29 14 45 22 28 27 54 11 54 -5 0 -10 -8 -10 -19z"/>
<path d="M4312 723 c-2 -29 18 -63 37 -63 21 0 87 34 99 51 7 10 24 19 38 19
14 0 23 4 19 10 -8 13 -56 -6 -75 -29 -8 -10 -30 -23 -49 -30 -42 -14 -58 -3
-64 42 l-4 32 -1 -32z"/>
<path d="M4940 729 c0 -9 -7 -20 -16 -23 -9 -4 -14 -9 -11 -13 4 -3 13 0 21 6
11 10 20 10 36 1 12 -6 24 -9 27 -6 3 3 -3 9 -13 13 -10 4 -24 14 -31 22 -11
14 -12 14 -13 0z"/>
<path d="M4211 693 l-11 -28 21 25 c18 21 22 22 30 8 9 -17 40 -19 39 -2 -1 5
-8 8 -16 6 -8 -2 -14 2 -14 8 0 22 -37 9 -49 -17z"/>
<path d="M5381 679 c0 -13 4 -33 9 -44 7 -14 8 -8 3 20 -7 46 -13 59 -12 24z"/>
<path d="M3046 674 c-7 -18 19 -54 40 -54 7 0 15 -6 18 -12 3 -7 4 -4 3 7 -1
12 3 19 11 18 22 -5 12 12 -21 35 -40 26 -43 27 -51 6z m53 -38 c-5 -6 -16 -2
-29 9 -27 24 -15 39 15 18 14 -11 20 -22 14 -27z"/>
<path d="M3418 583 c6 -2 12 -13 12 -24 0 -11 10 -23 23 -28 13 -5 36 -25 51
-45 15 -20 32 -33 38 -30 6 4 13 2 17 -3 14 -21 80 -53 121 -59 25 -3 55 -13
67 -20 33 -20 42 -16 14 6 -13 11 -37 20 -54 20 -27 0 -71 18 -158 66 -15 8
-34 25 -43 39 -10 14 -29 30 -43 36 -14 5 -23 12 -19 16 8 8 -13 33 -28 32 -7
0 -6 -2 2 -6z"/>
<path d="M3340 565 c0 -16 57 -75 72 -75 7 0 30 -11 51 -25 20 -14 37 -23 37
-19 0 10 -30 32 -70 51 -19 9 -47 30 -62 47 -15 17 -27 26 -28 21z"/>
<path d="M3321 556 c-2 -26 25 -77 43 -82 12 -4 33 -15 48 -25 15 -11 29 -15
32 -10 3 5 -16 18 -43 30 -38 16 -52 28 -64 58 -9 21 -16 34 -16 29z"/>
<path d="M3914 514 c21 -39 75 -75 97 -64 10 6 26 7 36 4 17 -5 17 -5 1 6 -12
7 -24 8 -35 1 -20 -11 -78 29 -88 60 -4 10 -10 19 -15 19 -5 0 -3 -12 4 -26z"/>
<path d="M3731 507 c-1 -9 10 -22 23 -29 14 -6 26 -20 28 -31 3 -20 68 -78 68
-60 0 5 -14 17 -31 27 -22 13 -29 24 -26 37 4 14 -3 24 -23 34 -15 8 -30 20
-33 27 -3 8 -6 6 -6 -5z"/>
<path d="M4227 431 c3 -11 11 -22 19 -25 17 -7 17 4 0 27 -17 22 -25 22 -19
-2z"/>
<path d="M4040 420 c-5 -42 -5 -72 1 -76 11 -6 16 29 8 61 -4 17 -8 23 -9 15z"/>
<path d="M4907 357 c-10 -39 -55 -55 -140 -52 -58 2 -69 0 -78 -17 -6 -11 -8
-22 -6 -25 3 -2 10 4 16 14 8 17 20 19 73 18 92 -3 155 28 146 72 -3 13 -6 11
-11 -10z"/>
<path d="M3835 361 c8 -14 65 -41 65 -31 0 5 -14 16 -32 24 -36 18 -41 19 -33
7z"/>
<path d="M4561 344 c-1 -7 -36 -11 -98 -11 -109 0 -173 -9 -173 -24 0 -9 17
-47 25 -57 2 -2 16 9 31 24 l29 28 -29 -18 c-23 -15 -30 -16 -37 -5 -14 22
-11 28 16 35 45 11 243 5 251 -7 7 -12 46 -11 64 2 12 8 10 9 -7 4 -31 -8 -61
2 -66 23 -3 9 -5 12 -6 6z"/>
<path d="M3731 301 c-12 -21 -5 -31 20 -31 18 0 33 26 23 41 -9 15 -33 10 -43
-10z m30 -14 c-13 -13 -26 -3 -16 12 3 6 11 8 17 5 6 -4 6 -10 -1 -17z"/>
<path d="M5540 307 c-14 -6 -42 -21 -63 -35 -20 -14 -40 -22 -44 -19 -3 4 -11
-3 -17 -16 -8 -15 -31 -28 -71 -41 -66 -20 -127 -49 -164 -78 -13 -10 -35 -18
-49 -18 -29 0 -101 -31 -102 -43 0 -5 16 0 36 12 19 12 48 21 64 21 17 0 54
16 85 35 30 20 85 45 123 56 37 12 78 32 93 45 14 13 30 24 35 24 6 0 19 9 29
20 10 11 25 20 34 20 19 0 48 17 41 23 -3 3 -16 0 -30 -6z"/>
<path d="M3886 275 c5 -21 3 -25 -16 -25 -16 0 -20 4 -16 15 3 8 1 15 -4 15
-12 0 -14 -37 -2 -43 4 -3 16 -1 27 3 16 6 31 -4 71 -45 29 -29 49 -45 47 -35
-3 11 -20 29 -37 41 -18 12 -40 39 -49 61 -19 43 -31 50 -21 13z"/>
<path d="M3977 261 c20 -18 39 -28 50 -25 11 3 26 -3 37 -15 14 -16 23 -18 37
-10 16 8 26 3 56 -26 20 -19 46 -36 57 -37 41 -2 45 -3 52 -11 4 -4 12 -7 18
-7 6 0 2 6 -9 12 -20 12 -25 14 -57 16 -10 1 -31 14 -47 30 -50 46 -61 53 -61
42 0 -16 -18 -12 -51 12 -23 17 -32 20 -38 10 -6 -10 -11 -9 -21 3 -7 9 -23
21 -34 26 -14 7 -10 0 11 -20z"/>
<path d="M4250 258 c0 -20 72 -62 107 -63 13 0 28 -6 35 -13 20 -20 32 -13 13
8 -10 11 -27 19 -39 18 -29 -3 -93 28 -105 50 -10 16 -10 16 -11 0z"/>
<path d="M3755 250 c-19 -8 -19 -9 1 -9 12 -1 49 -28 84 -61 34 -33 69 -60 76
-60 8 0 14 -7 14 -15 0 -21 47 -38 68 -25 15 9 14 10 -4 5 -11 -3 -29 2 -40
10 -18 14 -18 16 -2 29 17 12 17 14 0 28 -24 22 -62 40 -62 31 0 -4 14 -16 31
-25 17 -10 27 -23 24 -28 -9 -14 -49 10 -90 54 -57 60 -79 74 -100 66z"/>
<path d="M7120 245 c0 -11 213 -246 218 -241 2 3 -39 54 -92 113 -99 111 -126
138 -126 128z"/>
<path d="M5207 229 c-16 -4 -34 -12 -40 -17 -19 -15 -135 -34 -220 -37 -43 -1
-84 -8 -90 -14 -7 -7 -7 -11 -1 -11 6 0 13 3 17 6 3 3 41 7 84 9 43 2 101 9
128 15 28 6 63 12 78 12 17 1 23 4 16 8 -8 5 -5 10 10 15 11 3 24 4 29 1 4 -2
14 -1 21 3 20 13 -1 19 -32 10z"/>
<path d="M4523 210 c-4 -16 -14 -20 -51 -20 -63 0 -46 -11 21 -14 31 -2 67
-10 81 -20 14 -9 26 -12 26 -7 0 6 24 12 53 14 l52 4 -55 1 c-30 0 -61 1 -68
1 -7 1 -17 11 -22 24 -7 17 -9 18 -9 5 -1 -10 -6 -18 -12 -18 -7 0 -9 10 -5
25 4 14 4 25 0 25 -3 0 -8 -9 -11 -20z"/>
<path d="M7211 214 c7 -9 18 -26 24 -37 6 -12 19 -23 30 -25 18 -3 18 -2 -3
13 -13 9 -21 22 -19 28 2 7 -3 17 -12 24 -23 18 -36 16 -20 -3z"/>
<path d="M7280 189 c0 -11 25 -22 39 -17 6 1 -1 8 -14 15 -14 6 -25 7 -25 2z"/>
<path d="M4347 163 c-4 -3 -7 -11 -7 -17 0 -6 4 -4 10 4 8 12 10 12 16 -3 3
-9 10 -14 16 -11 5 3 4 11 -3 20 -13 15 -22 18 -32 7z"/>
<path d="M5079 143 c-13 -17 -13 -17 6 -3 11 8 22 16 24 17 2 2 0 3 -6 3 -6 0
-17 -8 -24 -17z"/>
<path d="M4515 140 c3 -5 12 -10 19 -10 8 0 19 -7 26 -15 7 -8 18 -15 24 -15
17 1 -43 50 -60 50 -8 0 -12 -4 -9 -10z"/>
<path d="M7304 138 c1 -7 16 -17 32 -23 16 -5 43 -20 59 -32 l30 -22 -18 -33
c-17 -32 -17 -32 0 -9 23 31 51 96 29 68 -13 -17 -15 -17 -33 6 -10 13 -34 27
-55 31 -20 4 -39 11 -42 17 -2 5 -3 4 -2 -3z"/>
<path d="M4306 131 c-6 -10 12 -19 61 -31 19 -5 31 -4 27 1 -3 5 -13 9 -22 9
-10 0 -27 7 -39 15 -12 8 -24 11 -27 6z"/>
<path d="M5018 135 c-2 -3 -24 -6 -47 -7 -23 -1 -38 -5 -34 -9 4 -4 28 -4 53
1 34 6 49 5 61 -6 8 -8 20 -14 25 -14 10 1 -34 40 -45 40 -4 0 -10 -2 -13 -5z"/>
<path d="M4225 94 c11 -8 38 -20 60 -26 22 -6 48 -21 58 -32 15 -19 17 -19 11
-2 -5 13 -1 23 11 32 10 8 14 14 8 14 -7 0 -14 -4 -17 -9 -8 -12 -82 5 -110
24 -27 20 -47 19 -21 -1z"/>
<path d="M4445 79 c-30 -4 -4 -6 63 -5 62 1 115 -2 118 -6 3 -4 10 -8 17 -8 8
0 8 3 -1 12 -13 13 -118 17 -197 7z"/>
<path d="M7476 82 c-4 -6 2 -16 13 -22 14 -7 22 -7 27 2 4 6 3 8 -4 4 -6 -3
-15 1 -20 10 -6 11 -12 13 -16 6z"/>
<path d="M2471 54 c-12 -15 -21 -34 -20 -43 0 -13 1 -14 6 -1 3 8 15 27 25 43
25 35 16 35 -11 1z"/>
<path d="M7507 30 c-16 -10 -25 -20 -20 -23 9 -6 61 29 53 36 -3 2 -18 -4 -33
-13z"/>
<path d="M2386 15 c4 -8 8 -15 10 -15 2 0 4 7 4 15 0 8 -4 15 -10 15 -5 0 -7
-7 -4 -15z"/>
</g>
</svg>
