<?xml version="1.0" standalone="no"?>
<!DOCTYPE svg PUBLIC "-//W3C//DTD SVG 20010904//EN"
 "http://www.w3.org/TR/2001/REC-SVG-20010904/DTD/svg10.dtd">
<svg version="1.0" xmlns="http://www.w3.org/2000/svg"
 width="150.000000pt" height="112.500000pt" viewBox="0 0 150.000000 112.500000"
 preserveAspectRatio="xMidYMid meet">
<metadata>
Created by potrace 1.16, written by Peter Selinger 2001-2019
</metadata>
<g transform="translate(0.000000,112.500000) scale(0.011610,-0.011610)"
fill="#000000" stroke="none">
<path d="M9330 8310 c-31 -7 -223 -52 -465 -110 -44 -11 -123 -29 -175 -40
-87 -19 -321 -74 -775 -181 -157 -37 -608 -146 -700 -169 -22 -5 -177 -42
-345 -81 -303 -70 -366 -90 -381 -119 -5 -8 -29 -87 -55 -175 -51 -177 -67
-215 -90 -215 -8 0 -28 -7 -43 -15 -25 -12 -34 -31 -70 -143 -22 -70 -41 -139
-41 -154 0 -14 13 -42 29 -62 17 -21 28 -43 26 -49 -2 -7 -13 -44 -24 -83 -21
-70 -42 -94 -85 -94 -27 0 -56 -36 -65 -80 -6 -25 -21 -83 -35 -130 -14 -47
-24 -92 -23 -101 2 -9 15 -31 30 -48 15 -18 27 -40 27 -50 0 -9 -14 -57 -30
-106 -40 -118 -39 -139 8 -182 92 -86 142 -121 207 -147 39 -15 86 -36 105
-46 19 -10 53 -23 75 -30 22 -7 60 -23 85 -35 45 -23 88 -41 103 -43 4 -1 21
-9 37 -17 17 -9 30 -13 30 -10 0 3 12 -2 28 -11 l27 -16 -25 20 c-13 11 -38
24 -55 28 -16 4 -32 7 -35 8 -3 1 -39 19 -81 39 -42 20 -79 37 -84 37 -4 0
-35 13 -69 29 -33 15 -94 42 -134 58 -94 39 -242 162 -242 203 0 14 14 66 30
115 17 49 30 99 30 111 0 11 -13 38 -30 59 -16 21 -30 39 -30 42 0 2 9 36 21
76 12 39 26 90 31 112 17 69 31 89 73 103 55 18 69 36 90 117 23 87 22 98 -9
136 -31 37 -32 58 -5 135 11 32 25 75 30 94 20 69 32 91 60 105 15 8 35 15 43
15 22 0 28 15 86 210 29 96 57 181 63 188 21 27 69 41 367 111 168 39 323 76
345 81 381 95 1355 325 1740 410 44 10 148 35 230 56 91 23 175 38 215 38 60
1 69 -2 125 -40 108 -74 175 -119 202 -134 53 -31 58 -57 72 -347 7 -147 18
-366 25 -485 10 -203 10 -218 -7 -239 -16 -20 -16 -24 -2 -45 14 -21 13 -24
-18 -49 -30 -25 -84 -60 -256 -168 -41 -26 -69 -47 -62 -47 15 0 306 183 339
213 12 12 20 28 17 36 -3 8 0 19 7 24 9 6 8 7 -4 3 -25 -8 -29 6 -10 32 15 19
16 39 9 169 -4 82 -15 306 -25 499 -17 333 -19 352 -41 382 -12 18 -26 32 -30
32 -4 0 -59 34 -122 76 -63 42 -128 83 -146 90 -35 15 -86 16 -143 4z"/>
<path d="M7390 7722 c0 -5 6 -16 13 -26 10 -14 11 -32 6 -70 -7 -42 -15 -57
-50 -88 -23 -21 -39 -38 -35 -38 15 0 69 47 81 71 18 34 21 108 6 137 -12 22
-21 29 -21 14z"/>
<path d="M7265 7679 c-16 -5 -50 -10 -75 -10 -25 -1 -52 -7 -61 -15 -8 -8 -53
-21 -100 -29 -102 -19 -149 -34 -149 -46 0 -5 -7 -9 -15 -9 -24 0 -35 -42 -21
-81 15 -44 45 -97 46 -83 0 16 46 28 104 26 26 0 46 2 43 5 -11 10 -93 9 -122
-3 -29 -12 -30 -12 -52 37 -12 27 -20 55 -17 62 13 34 68 59 172 79 65 12 110
26 115 35 5 8 18 13 30 12 32 -4 130 10 147 21 13 9 13 10 0 9 -8 0 -28 -5
-45 -10z"/>
<path d="M7086 7323 c-39 -6 -112 -82 -143 -149 -47 -103 -29 -207 49 -285 56
-56 106 -74 188 -66 89 9 129 26 174 71 84 83 88 231 10 333 -14 18 -31 33
-38 33 -8 0 -21 11 -29 24 -13 19 -30 25 -92 35 -42 6 -79 10 -83 10 -4 -1
-20 -4 -36 -6z m114 -14 c40 -6 73 -18 85 -30 11 -11 32 -28 47 -39 37 -28 78
-119 78 -172 0 -71 -18 -117 -65 -163 -61 -62 -158 -88 -253 -69 -40 8 -128
92 -148 141 -22 51 -20 130 3 184 24 54 111 145 144 152 40 7 42 7 109 -4z"/>
<path d="M7290 7223 c0 -13 29 -38 35 -31 3 3 -4 13 -15 23 -11 10 -20 13 -20
8z"/>
<path d="M9308 7182 c-10 -2 -18 -8 -18 -13 0 -6 6 -7 16 -1 9 5 25 7 35 5 11
-3 19 -3 19 0 0 7 -33 13 -52 9z"/>
<path d="M9293 7131 c-15 -11 -183 -284 -183 -298 0 -4 -11 -25 -25 -46 -35
-50 -69 -50 -113 -1 -18 20 -35 34 -38 31 -9 -9 63 -77 81 -77 8 0 15 -5 15
-11 0 -23 60 34 81 79 13 26 52 94 87 152 36 58 73 119 84 137 16 27 23 30 46
24 15 -4 31 -17 37 -29 5 -12 13 -22 16 -22 10 0 -1 38 -15 48 -15 12 -63 21
-73 13z"/>
<path d="M9403 7106 c9 -7 17 -18 17 -23 0 -6 7 -16 15 -23 8 -7 15 -9 15 -6
0 14 -32 55 -48 60 -15 5 -15 5 1 -8z"/>
<path d="M9470 7052 c0 -12 19 -26 26 -19 2 2 -2 10 -11 17 -9 8 -15 8 -15 2z"/>
<path d="M8606 6906 c-30 -62 -69 -135 -85 -161 -17 -27 -36 -64 -42 -84 -6
-20 -18 -44 -26 -53 -23 -26 -76 -16 -118 21 -20 17 -41 31 -46 31 -15 0 -198
91 -205 101 -7 12 -41 11 -48 0 -4 -5 3 -7 14 -4 12 3 28 -1 38 -10 20 -18
176 -97 191 -97 6 0 28 -16 50 -35 24 -22 45 -33 54 -29 9 3 24 1 35 -5 25
-13 54 17 72 74 7 22 22 53 33 68 29 42 127 235 127 251 0 21 27 38 48 32 11
-4 28 -22 38 -41 10 -19 22 -35 26 -35 4 0 -4 19 -18 43 -20 33 -33 43 -54 45
-27 2 -32 -4 -84 -112z"/>
<path d="M9445 6980 c3 -5 8 -10 11 -10 2 0 4 5 4 10 0 6 -5 10 -11 10 -5 0
-7 -4 -4 -10z"/>
<path d="M8689 6963 c-13 -16 -12 -17 4 -4 9 7 17 15 17 17 0 8 -8 3 -21 -13z"/>
<path d="M9520 6971 c0 -5 7 -15 17 -22 15 -13 15 -12 4 9 -12 23 -21 28 -21
13z"/>
<path d="M9560 6946 c0 -3 9 -10 20 -16 11 -6 20 -8 20 -6 0 3 -9 10 -20 16
-11 6 -20 8 -20 6z"/>
<path d="M8840 6870 c85 -77 100 -78 18 0 -35 33 -67 60 -73 60 -5 0 19 -27
55 -60z"/>
<path d="M7950 6698 c-7 -62 -14 -149 -15 -193 l-3 -80 8 85 c13 143 31 264
42 278 6 7 8 15 4 19 -3 3 -6 0 -6 -8 0 -11 -2 -11 -8 -1 -5 7 -14 -36 -22
-100z"/>
<path d="M8000 6769 c0 -34 -24 -249 -41 -364 -6 -38 -16 -119 -24 -180 -7
-60 -16 -124 -20 -141 -5 -22 -2 -34 9 -43 11 -9 16 -10 16 -2 0 6 -5 11 -11
11 -8 0 -9 11 -4 33 3 17 13 82 20 142 8 61 18 142 24 180 6 39 18 133 27 210
9 77 20 145 24 150 4 6 2 16 -6 23 -12 11 -14 8 -14 -19z"/>
<path d="M9440 6759 c0 -5 5 -7 10 -4 6 3 10 8 10 11 0 2 -4 4 -10 4 -5 0 -10
-5 -10 -11z"/>
<path d="M8464 6742 c-17 -11 -23 -38 -12 -53 8 -11 9 -11 5 2 -3 9 1 26 9 38
16 22 16 25 -2 13z"/>
<path d="M9424 6725 c-10 -8 -14 -15 -8 -15 6 0 17 7 24 15 16 19 9 19 -16 0z"/>
<path d="M9330 6720 c-20 -6 -21 -8 -5 -8 11 0 31 4 45 8 20 6 21 8 5 8 -11 0
-31 -4 -45 -8z"/>
<path d="M9501 6674 c0 -11 3 -14 6 -6 3 7 2 16 -1 19 -3 4 -6 -2 -5 -13z"/>
<path d="M9368 6655 c-6 -13 -23 -29 -37 -35 -25 -10 -25 -10 4 -4 16 3 30 6
31 7 0 1 8 14 17 30 10 15 13 27 7 27 -6 0 -15 -11 -22 -25z"/>
<path d="M9436 6655 c-25 -19 -17 -19 25 0 24 10 28 14 14 14 -11 0 -29 -6
-39 -14z"/>
<path d="M8885 6610 c-4 -6 -9 -8 -13 -6 -4 2 -16 -2 -27 -10 -10 -8 -16 -14
-12 -14 13 0 77 29 77 34 0 10 -19 7 -25 -4z"/>
<path d="M8730 6560 c-11 -11 -33 -20 -49 -20 -17 0 -32 -3 -34 -7 -12 -19 66
-4 88 17 17 16 32 21 50 18 14 -3 27 -2 30 1 2 4 -12 8 -30 9 -23 2 -41 -4
-55 -18z"/>
<path d="M9445 6500 c-27 -11 -57 -20 -65 -20 -8 0 -34 -10 -57 -23 -23 -12
-72 -38 -108 -57 -77 -41 -156 -99 -163 -119 -3 -8 17 4 44 26 27 23 81 58
119 78 39 21 82 46 96 56 14 10 38 21 55 24 16 4 55 16 87 28 57 20 59 20 77
1 11 -10 33 -66 50 -124 17 -58 45 -150 61 -205 16 -55 38 -129 50 -164 18
-56 19 -65 5 -80 -10 -11 -12 -21 -6 -31 5 -8 10 -22 10 -32 0 -19 -78 -125
-126 -170 -19 -18 -34 -37 -34 -42 0 -5 -10 -20 -21 -33 -23 -23 -72 -41 -319
-113 -80 -23 -208 -62 -285 -86 -77 -23 -176 -53 -220 -64 -140 -38 -250 -73
-260 -83 -7 -7 -3 -7 10 -3 45 16 175 56 250 76 44 11 143 41 220 64 77 24
167 51 200 60 65 19 169 50 305 91 81 25 130 55 130 80 0 6 15 25 34 43 51 48
126 151 126 174 0 10 -4 28 -10 38 -7 13 -6 21 5 30 16 14 20 46 6 54 -4 3
-14 27 -21 53 -7 27 -25 91 -40 143 -16 52 -43 145 -61 205 -44 154 -52 160
-144 125z"/>
<path d="M7916 6399 c-15 -68 -26 -141 -31 -197 -3 -35 -10 -83 -16 -106 -6
-23 -9 -58 -6 -77 4 -33 4 -33 5 6 1 22 6 56 12 75 5 19 13 66 16 105 3 38 12
101 20 139 8 38 12 71 10 74 -3 2 -7 -6 -10 -19z"/>
<path d="M9299 6388 c-7 -18 -18 -37 -24 -43 -7 -5 -18 -26 -25 -45 -20 -52
-49 -90 -77 -101 -27 -10 -86 12 -113 43 -8 9 -55 37 -104 61 -89 45 -99 47
-156 23 -8 -4 -24 -25 -34 -49 -11 -23 -30 -53 -42 -67 -12 -14 -29 -41 -38
-60 -29 -62 -83 -127 -115 -138 -26 -9 -35 -7 -63 13 -209 148 -230 158 -280
128 -18 -11 -82 -36 -143 -57 -97 -34 -150 -55 -135 -55 17 -1 261 89 281 102
13 9 31 17 40 17 17 0 157 -90 217 -140 35 -29 72 -31 114 -9 21 11 98 122 98
140 0 7 11 24 24 38 13 15 34 46 47 71 35 65 78 88 121 65 13 -7 50 -27 83
-45 33 -17 67 -39 75 -48 23 -25 62 -43 103 -46 45 -4 66 16 101 97 14 31 29
57 33 57 8 0 34 72 29 78 -2 1 -9 -12 -17 -30z"/>
<path d="M8689 6277 c-89 -63 -169 -147 -169 -179 0 -7 -5 -19 -12 -26 -7 -7
-8 -12 -2 -12 6 0 18 17 27 38 10 20 30 51 45 67 38 41 128 115 140 115 5 0
15 7 22 15 20 24 -1 16 -51 -18z"/>
<path d="M6124 6223 c3 -6 0 -30 -8 -52 -7 -22 -10 -38 -5 -35 16 10 29 78 17
89 -8 7 -9 6 -4 -2z"/>
<path d="M6086 6067 c-9 -23 -16 -52 -16 -63 0 -11 -5 -25 -12 -32 -9 -9 -9
-12 0 -12 6 0 14 12 17 28 3 15 12 47 20 71 20 58 13 64 -9 8z"/>
<path d="M6995 6070 c-29 -11 -58 -55 -89 -135 -16 -38 -34 -77 -40 -85 -11
-14 -26 -46 -75 -162 -11 -27 -24 -48 -29 -48 -6 0 -43 14 -83 31 -41 17 -115
48 -165 69 -50 21 -100 43 -110 48 -30 16 -113 52 -121 52 -5 1 -26 9 -48 20
-22 11 -44 19 -49 20 -5 0 -30 17 -55 37 l-46 37 34 -37 c19 -20 50 -42 69
-48 19 -6 46 -17 60 -25 15 -8 30 -14 35 -14 4 0 44 -17 90 -39 45 -21 93 -42
107 -46 14 -4 54 -22 90 -40 36 -18 84 -38 108 -45 23 -7 42 -17 42 -21 0 -4
14 -6 31 -5 32 2 45 16 55 56 6 25 78 182 132 289 15 30 40 63 54 74 l27 20
53 -26 c127 -61 185 -87 195 -87 22 0 63 -42 63 -66 0 -13 -16 -64 -36 -112
-79 -194 -115 -295 -112 -314 4 -25 -8 -20 218 -107 102 -40 208 -83 235 -95
28 -13 65 -27 82 -30 18 -4 35 -12 38 -17 4 -5 16 -9 28 -9 12 0 49 -14 82
-32 70 -37 141 -43 193 -16 18 9 58 22 90 29 31 7 63 17 69 22 7 5 25 7 40 3
27 -5 27 -5 5 6 -16 8 -29 8 -45 0 -12 -5 -44 -15 -72 -22 -27 -6 -65 -18 -83
-26 -65 -30 -95 -29 -179 8 -43 20 -105 45 -138 56 -33 11 -82 30 -110 41
-135 55 -268 107 -345 137 -47 18 -89 39 -95 48 -6 10 2 42 27 108 61 155 88
222 99 241 6 10 13 40 16 66 5 43 3 50 -22 69 -15 12 -34 22 -41 22 -7 0 -28
8 -46 18 -18 10 -60 29 -93 42 -33 13 -69 29 -80 37 -22 15 -31 15 -60 3z"/>
<path d="M9650 5946 c0 -2 7 -9 15 -16 9 -7 15 -8 15 -2 0 5 -7 12 -15 16 -8
3 -15 4 -15 2z"/>
<path d="M6985 5890 c-3 -5 -14 -10 -23 -10 -14 -1 -68 -70 -81 -104 -2 -6
-32 -70 -67 -141 -81 -169 -103 -189 -170 -154 -21 10 -42 19 -47 19 -12 0
-208 84 -259 111 -20 10 -43 19 -51 19 -8 0 -31 14 -52 30 -21 17 -40 28 -43
26 -9 -9 53 -56 88 -66 19 -6 44 -17 54 -25 11 -8 26 -15 35 -15 8 0 46 -15
85 -34 39 -18 89 -39 111 -46 22 -7 50 -20 62 -28 32 -20 92 -18 114 5 16 16
74 127 143 273 49 103 94 148 130 128 9 -5 26 -11 39 -13 12 -3 39 -12 60 -21
31 -14 37 -22 38 -48 0 -26 2 -28 8 -11 5 11 4 28 -1 38 -8 16 -61 43 -98 51
-14 3 -47 15 -62 23 -4 2 -9 -1 -13 -7z"/>
<path d="M6980 5820 c0 -5 5 -10 11 -10 5 0 7 5 4 10 -3 6 -8 10 -11 10 -2 0
-4 -4 -4 -10z"/>
<path d="M7131 5774 c0 -11 3 -14 6 -6 3 7 2 16 -1 19 -3 4 -6 -2 -5 -13z"/>
<path d="M5880 5756 c-6 -8 -19 -37 -29 -63 -16 -45 -20 -48 -56 -53 -43 -5
-50 -15 -79 -105 -21 -65 -20 -77 5 -109 17 -22 20 -34 13 -64 -11 -54 -6 -73
29 -110 27 -28 146 -102 200 -124 30 -13 18 6 -16 23 -129 65 -208 127 -208
165 -1 10 2 35 6 55 6 30 3 43 -15 67 l-23 31 22 68 c27 81 36 93 70 93 36 0
48 10 57 45 10 42 42 85 63 85 10 0 44 -12 76 -26 31 -15 78 -32 103 -39 26
-7 56 -16 67 -20 13 -4 11 -1 -5 8 -14 8 -40 18 -59 22 -19 4 -63 20 -97 36
-69 32 -105 36 -124 15z"/>
<path d="M7150 5713 c-13 -32 -36 -92 -52 -133 -57 -147 -79 -227 -69 -252 7
-18 38 -35 142 -77 74 -30 148 -60 164 -68 17 -8 65 -28 108 -44 43 -16 88
-34 100 -41 12 -7 30 -13 40 -15 23 -4 155 -68 187 -90 14 -10 26 -24 28 -31
4 -21 -17 -88 -48 -155 -39 -84 -70 -178 -70 -210 0 -22 6 -28 38 -36 20 -6
55 -11 78 -11 22 0 45 -5 51 -11 6 -6 42 -13 79 -16 38 -2 89 -13 114 -24 25
-11 77 -26 117 -34 39 -8 85 -21 102 -30 17 -8 31 -13 31 -11 0 13 -68 38
-133 51 -40 8 -92 23 -117 34 -25 11 -76 22 -114 24 -37 3 -73 10 -79 16 -6 6
-30 11 -53 11 -62 0 -104 18 -104 43 0 24 22 93 33 103 4 4 7 14 7 23 0 9 15
48 34 87 19 39 36 88 38 110 2 21 7 42 11 45 16 12 -132 91 -230 123 -29 10
-55 22 -58 27 -4 5 -13 9 -21 9 -8 0 -56 17 -107 38 -51 21 -150 63 -221 93
-85 35 -132 60 -138 74 -6 14 -1 41 18 95 14 41 37 104 49 140 13 36 35 94 49
129 14 36 24 66 22 68 -2 3 -14 -22 -26 -54z"/>
<path d="M6170 5725 c0 -8 29 -12 39 -5 9 5 4 8 -13 8 -14 0 -26 -2 -26 -3z"/>
<path d="M5919 5688 c-7 -18 -21 -44 -30 -58 -9 -14 -20 -43 -23 -65 -3 -22
-16 -67 -30 -100 -27 -68 -59 -171 -50 -162 6 6 32 77 74 201 11 32 20 68 20
79 0 11 8 29 17 39 16 18 45 89 39 95 -2 2 -9 -11 -17 -29z"/>
<path d="M6050 5641 c0 -13 60 -55 67 -47 4 3 4 7 2 9 -2 1 -19 12 -36 25 -18
12 -33 18 -33 13z"/>
<path d="M5927 5620 c-9 -13 -17 -35 -17 -47 0 -35 32 -94 50 -91 21 4 25 53
7 91 -8 18 -17 41 -19 52 -3 19 -4 19 -21 -5z m42 -103 c1 -39 -20 -30 -38 16
-8 22 -11 47 -6 64 l7 28 18 -40 c10 -22 19 -53 19 -68z"/>
<path d="M8444 5302 c-97 -53 -114 -63 -114 -67 0 -3 19 5 41 17 23 13 60 33
83 45 22 12 37 22 31 22 -5 0 -24 -8 -41 -17z"/>
<path d="M6630 5257 c-21 -10 -120 -149 -205 -289 -27 -44 -52 -45 -116 -7
-30 17 -83 47 -119 67 -36 19 -73 42 -83 50 -18 16 -79 24 -167 21 -70 -2 -90
-1 -165 10 -63 10 -73 9 -113 -10 -40 -20 -55 -20 -110 -4 -19 6 -31 -2 -73
-46 -62 -67 -68 -81 -56 -135 10 -41 9 -44 -31 -90 -69 -77 -60 -97 85 -205
62 -46 93 -63 93 -49 0 5 -4 10 -9 10 -10 0 -105 70 -163 120 -21 18 -38 40
-38 50 0 9 19 39 42 65 42 47 42 47 31 97 -10 49 -9 51 26 93 20 23 44 52 54
65 14 16 24 20 40 15 56 -18 80 -17 116 4 35 19 44 20 107 10 38 -6 89 -10
114 -9 107 5 201 -4 213 -21 7 -8 26 -22 42 -31 17 -8 48 -25 70 -38 152 -88
178 -95 208 -62 10 10 17 23 17 27 0 14 182 285 191 285 4 0 14 2 21 5 8 3 38
-10 66 -30 28 -19 55 -35 58 -35 11 0 117 -71 147 -98 32 -30 34 -54 8 -90
-10 -15 -30 -49 -44 -77 -14 -27 -47 -79 -75 -114 -45 -58 -49 -67 -40 -92 5
-16 19 -31 30 -35 12 -3 98 -47 192 -97 270 -143 345 -182 446 -235 70 -37
104 -61 129 -93 18 -24 43 -49 56 -56 12 -7 52 -53 90 -103 37 -50 78 -103 92
-118 53 -58 68 -72 78 -72 5 0 -4 13 -20 29 -52 51 -80 84 -145 175 -35 48
-74 93 -87 99 -13 6 -33 25 -44 44 -27 43 -49 58 -209 141 -74 39 -192 101
-261 139 -69 37 -172 91 -228 118 -126 62 -130 72 -67 150 25 31 58 79 72 108
15 29 35 64 45 79 28 38 24 79 -8 110 -31 28 -136 98 -147 98 -4 0 -26 13 -49
29 -54 38 -76 43 -107 28z"/>
<path d="M8301 5250 c-30 -26 -20 -25 21 0 18 11 26 20 18 20 -8 -1 -26 -10
-39 -20z"/>
<path d="M6876 5223 c-3 -3 2 -11 13 -17 10 -6 36 -24 58 -41 23 -16 49 -35
58 -40 10 -6 21 -28 25 -50 l8 -40 1 35 c1 42 -4 50 -50 78 -19 12 -44 31 -55
43 -23 26 -49 40 -58 32z"/>
<path d="M5930 5191 c0 -8 50 -34 56 -29 1 2 -11 11 -27 20 -16 9 -29 14 -29
9z"/>
<path d="M6611 5043 c-34 -49 -84 -122 -111 -163 -72 -112 -95 -134 -133 -127
-18 3 -55 18 -82 35 -28 16 -106 62 -175 102 -69 40 -160 95 -203 123 -43 27
-79 48 -82 45 -9 -8 302 -202 415 -258 25 -12 52 -29 61 -36 8 -8 36 -17 62
-20 41 -6 48 -4 71 21 14 15 47 61 73 101 67 104 163 237 182 251 15 11 15 12
0 13 -9 0 -44 -39 -78 -87z"/>
<path d="M6727 5086 c15 -13 30 -22 32 -20 7 7 -31 44 -46 44 -8 0 -2 -10 14
-24z"/>
<path d="M5925 5056 c17 -7 41 -23 54 -35 13 -11 39 -23 57 -27 18 -3 38 -12
45 -20 6 -8 17 -14 23 -14 6 1 -2 11 -18 25 -21 17 -27 27 -20 37 5 8 2 6 -8
-4 -13 -14 -22 -16 -42 -8 -14 5 -25 15 -24 22 2 7 -3 12 -10 10 -7 -1 -23 4
-35 13 -12 8 -28 15 -37 15 -8 -1 -1 -7 15 -14z"/>
<path d="M6780 5066 c0 -2 9 -6 20 -9 11 -3 18 -1 14 4 -5 9 -34 13 -34 5z"/>
<path d="M5677 5020 c-8 -22 -13 -40 -11 -40 7 0 36 71 31 76 -2 2 -11 -14
-20 -36z"/>
<path d="M6838 5012 c4 -44 0 -60 -28 -114 -18 -35 -41 -72 -51 -84 -11 -11
-19 -30 -19 -43 0 -12 -14 -54 -31 -93 -38 -87 -40 -122 -8 -153 25 -25 232
-155 529 -333 96 -57 203 -124 237 -147 33 -24 71 -46 82 -50 12 -3 33 -22 48
-42 30 -39 44 -107 48 -235 2 -43 6 -95 11 -115 4 -21 8 -60 9 -88 1 -27 5
-96 10 -152 9 -115 4 -127 -48 -138 -18 -4 -40 -14 -50 -23 -14 -13 -24 -13
-54 -4 -20 6 -39 10 -41 7 -2 -2 14 -9 37 -16 35 -10 43 -10 59 4 10 9 33 18
52 20 55 7 63 27 55 147 -12 167 -12 190 -3 190 5 0 2 13 -7 30 -9 18 -17 68
-20 132 -8 178 -29 254 -80 282 -11 6 -63 38 -115 72 -52 34 -162 101 -245
151 -316 189 -481 295 -507 323 -26 28 -27 31 -14 67 8 21 23 58 35 83 11 25
21 56 21 69 0 14 6 32 14 40 27 31 86 158 86 185 0 24 2 26 23 16 l22 -11 -21
18 c-12 10 -26 26 -31 37 -8 14 -9 5 -5 -32z"/>
<path d="M6750 5043 c0 -4 5 -15 10 -23 8 -13 10 -13 10 2 0 9 -4 20 -10 23
-5 3 -10 3 -10 -2z"/>
<path d="M6992 5001 c-8 -4 -12 -10 -11 -12 7 -9 -35 -67 -44 -62 -6 3 -7 1
-3 -5 11 -18 24 -14 31 7 3 10 14 29 25 41 27 31 28 48 2 31z"/>
<path d="M5713 4982 c-11 -7 -19 -40 -28 -116 -2 -21 -2 -36 2 -33 3 4 7 21 9
39 7 71 15 98 32 107 9 6 13 10 7 11 -5 0 -15 -4 -22 -8z"/>
<path d="M5643 4930 c4 -14 7 -31 7 -37 0 -7 4 -13 9 -13 6 0 6 12 1 31 -11
38 -26 55 -17 19z"/>
<path d="M5454 4802 c-11 -8 -58 -82 -52 -82 3 0 19 20 37 45 32 45 35 51 15
37z"/>
<path d="M6581 4634 c-1 -29 7 -53 29 -87 39 -61 50 -61 14 1 -15 26 -31 65
-35 87 l-6 40 -2 -41z"/>
<path d="M6242 4577 c-23 -11 -145 -156 -209 -250 -20 -29 -40 -47 -52 -47
-11 0 -41 17 -68 38 -76 61 -305 224 -308 220 -4 -3 49 -44 235 -183 138 -103
156 -107 203 -38 64 93 185 239 210 252 19 10 29 11 47 1 47 -25 250 -193 255
-211 7 -22 -2 -38 -95 -170 -36 -51 -77 -109 -91 -130 -15 -21 -29 -36 -31
-33 -3 3 -9 -3 -12 -13 -4 -9 -4 -14 0 -10 4 4 14 -2 21 -13 8 -11 29 -26 46
-34 30 -13 136 -86 367 -256 118 -87 161 -116 361 -251 81 -54 158 -111 171
-127 14 -16 34 -35 46 -41 12 -6 22 -18 22 -26 0 -13 50 -55 65 -55 6 0 -10
17 -74 81 -76 78 -115 109 -236 190 -182 121 -222 149 -345 239 -56 41 -119
87 -139 101 -20 14 -72 52 -116 83 -43 32 -93 63 -110 70 -56 24 -61 40 -26
88 170 235 194 276 185 312 -10 40 -255 229 -292 225 -4 0 -17 -5 -30 -12z"/>
<path d="M5511 4559 c-1 -13 -11 -15 -55 -11 -42 3 -80 -3 -162 -27 -88 -26
-112 -30 -137 -21 -59 20 -81 13 -125 -39 -52 -62 -65 -93 -52 -127 17 -44 11
-64 -33 -117 -24 -29 -51 -65 -61 -80 -10 -16 -33 -35 -52 -43 -30 -13 -42
-13 -90 0 -71 19 -89 12 -148 -56 -46 -53 -46 -54 -40 -108 l6 -55 -61 -69
c-63 -71 -72 -97 -50 -139 10 -18 8 -24 -17 -44 -16 -13 -50 -35 -76 -49 -42
-21 -53 -23 -90 -14 -87 20 -102 15 -157 -47 -53 -60 -59 -80 -41 -142 9 -32
7 -37 -61 -115 -61 -71 -69 -85 -66 -114 3 -29 -2 -38 -32 -60 -61 -44 -90
-74 -85 -87 3 -8 -4 -16 -18 -20 -24 -8 -88 -63 -88 -77 0 -5 14 7 31 27 17
19 39 35 49 35 19 0 36 17 42 40 2 8 28 34 60 57 58 44 77 63 59 63 -6 0 -11
11 -11 23 0 15 26 54 71 105 70 81 70 81 60 119 -18 63 -13 77 43 139 l53 59
72 -13 c67 -11 74 -11 114 9 23 12 59 35 79 51 35 27 36 30 22 56 -22 43 -18
54 47 128 l60 69 -5 57 c-5 56 -5 57 40 107 62 69 71 73 135 56 66 -18 120 -6
146 31 10 14 39 52 66 84 48 61 55 87 37 135 -12 31 -4 50 53 118 42 49 60 55
114 36 25 -8 48 -5 133 20 103 31 208 42 194 20 -4 -8 -1 -8 12 -1 11 5 26 7
34 5 10 -3 11 -2 4 4 -6 4 -14 15 -17 23 -5 13 -6 13 -6 -1z"/>
<path d="M5570 4550 c-8 -5 -10 -10 -5 -10 6 0 17 5 25 10 8 5 11 10 5 10 -5
0 -17 -5 -25 -10z"/>
<path d="M8290 4543 c0 -6 5 -15 10 -18 6 -4 8 -10 5 -15 -3 -4 2 -13 9 -19
25 -21 26 4 1 35 -13 16 -24 24 -25 17z"/>
<path d="M5539 4467 c14 -15 27 -25 29 -22 3 3 11 -4 19 -15 8 -11 21 -20 29
-20 8 0 14 -4 14 -9 0 -6 10 -16 23 -23 53 -30 97 -60 97 -67 0 -7 52 -35 58
-31 2 1 14 -6 28 -14 13 -9 24 -12 24 -7 0 5 -15 14 -32 21 -35 14 -131 79
-137 93 -2 5 -14 12 -28 18 -13 5 -21 14 -18 19 4 6 3 9 -2 8 -16 -4 -51 13
-57 27 -3 8 -11 15 -17 15 -7 0 -22 8 -33 17 -15 13 -14 10 3 -10z"/>
<path d="M6566 4453 c41 -39 84 -65 84 -54 0 6 -10 16 -22 22 -12 6 -33 22
-47 35 -14 13 -30 24 -36 24 -5 0 4 -12 21 -27z"/>
<path d="M5421 4454 c-18 -8 -31 -17 -29 -20 7 -7 55 13 63 25 7 13 9 13 -34
-5z"/>
<path d="M8311 4428 c17 -18 51 -44 75 -59 23 -15 50 -39 60 -54 39 -59 -9
-188 -130 -352 -35 -48 -89 -123 -118 -166 l-53 -78 -50 6 c-48 5 -54 9 -132
92 -45 48 -84 85 -87 83 -2 -3 32 -44 77 -92 79 -84 84 -87 135 -94 47 -5 56
-3 78 17 13 12 24 26 24 31 0 5 45 69 100 143 145 192 202 328 171 407 -6 15
-29 40 -52 55 -22 16 -58 43 -79 61 -48 41 -61 42 -19 0z"/>
<path d="M5296 4435 c10 -8 23 -15 28 -15 14 0 136 -79 186 -119 25 -20 77
-57 115 -81 39 -24 84 -56 100 -70 17 -15 53 -39 80 -55 28 -15 58 -35 68 -43
10 -9 17 -10 17 -4 0 6 -25 26 -56 44 -31 18 -75 49 -99 68 -23 19 -69 51
-101 70 -32 19 -81 53 -108 75 -59 47 -89 66 -169 112 -60 34 -96 45 -61 18z"/>
<path d="M5187 4394 c-23 -38 -30 -44 -42 -34 -9 7 -15 8 -15 2 0 -8 22 -22
34 -22 8 0 57 83 54 91 -2 5 -16 -12 -31 -37z"/>
<path d="M6245 4402 c-15 -10 -124 -148 -168 -212 -63 -90 -117 -140 -152
-141 l-30 -1 30 -7 c26 -7 36 -2 68 28 22 20 60 65 85 101 41 57 105 139 162
208 22 27 38 28 47 5 10 -27 65 -93 77 -93 7 0 8 3 1 8 -16 11 -65 80 -65 90
0 17 -38 27 -55 14z"/>
<path d="M6345 4370 c3 -5 13 -10 20 -10 17 0 44 -38 50 -71 3 -12 10 -27 16
-33 9 -8 9 -6 1 10 -6 12 -9 24 -6 27 10 10 -28 65 -53 76 -30 14 -36 14 -28
1z"/>
<path d="M6450 4296 c0 -2 7 -6 15 -10 8 -3 15 -1 15 4 0 6 -7 10 -15 10 -8 0
-15 -2 -15 -4z"/>
<path d="M6394 4235 c-4 -14 -4 -29 0 -32 3 -4 -1 -14 -9 -23 -9 -10 -24 -33
-34 -51 -86 -162 -116 -217 -130 -234 -12 -14 -15 -30 -12 -54 6 -37 18 -47
209 -177 46 -31 89 -62 95 -68 7 -6 39 -29 72 -50 33 -21 71 -47 85 -57 14
-11 52 -38 85 -61 78 -55 327 -237 388 -284 26 -21 47 -45 47 -56 0 -23 -54
-46 -134 -57 -34 -5 -88 -19 -121 -31 -33 -12 -85 -28 -116 -35 -60 -15 -242
-104 -260 -128 -9 -12 -71 -27 -113 -27 -51 0 -87 28 -453 345 -83 72 -160
138 -172 148 -22 18 -22 18 -4 46 10 16 66 81 125 146 67 74 109 128 114 148
6 29 0 36 -107 139 -116 110 -154 132 -198 116 -30 -11 -205 -173 -251 -232
-19 -25 -40 -45 -47 -43 -12 2 -353 301 -467 410 -39 37 -75 67 -80 67 -13 0
129 -132 356 -333 102 -91 183 -168 180 -172 -4 -3 0 -3 8 0 8 3 31 26 50 51
39 50 223 225 255 242 33 17 71 -7 189 -119 90 -86 108 -108 102 -125 -3 -12
-49 -68 -102 -125 -123 -134 -142 -159 -148 -191 -3 -21 1 -30 22 -44 15 -10
92 -74 171 -143 171 -149 251 -217 340 -289 l66 -53 65 5 c81 6 100 10 108 22
17 23 191 112 250 128 32 8 90 26 130 40 41 14 88 26 105 27 18 0 57 8 87 18
49 16 55 21 58 48 3 31 -11 45 -158 150 -36 26 -99 72 -140 103 -41 31 -97 72
-125 90 -27 18 -63 44 -80 57 -16 14 -66 49 -110 78 -89 60 -210 143 -300 208
-64 46 -81 83 -52 115 8 10 34 55 59 102 54 103 60 114 89 163 12 22 23 54 24
73 2 40 -2 44 -11 9z"/>
<path d="M12803 4237 c-3 -5 -10 -6 -17 -4 -6 2 -24 -2 -41 -10 -24 -11 -25
-13 -5 -8 14 4 33 7 42 6 10 0 20 4 23 9 3 5 20 6 38 4 17 -3 43 -2 55 3 18 7
10 9 -33 9 -31 -1 -59 -5 -62 -9z"/>
<path d="M12698 4230 c-9 -6 -27 -9 -40 -9 -20 2 -97 -15 -138 -29 -8 -3 -26
-5 -40 -4 -14 0 -54 -5 -90 -13 -82 -18 -251 -37 -353 -41 -43 -1 -84 -8 -92
-14 -8 -7 -15 -9 -15 -6 0 4 -9 2 -21 -4 -11 -6 -74 -13 -140 -15 -72 -2 -126
-8 -134 -15 -8 -7 -38 -18 -67 -26 l-53 -13 45 5 c25 3 55 13 68 21 16 10 60
16 142 18 65 2 128 9 139 15 12 6 21 8 21 4 0 -3 7 -1 15 6 8 6 49 13 92 14
102 4 271 23 353 41 36 8 76 13 90 13 14 -1 32 1 40 4 42 15 118 30 141 29 14
0 34 6 45 14 22 16 17 19 -8 5z"/>
<path d="M4975 4164 c-19 -26 -35 -54 -34 -63 0 -13 1 -14 6 -1 3 8 13 24 23
35 24 28 53 75 47 75 -4 0 -22 -21 -42 -46z"/>
<path d="M12810 4144 c-28 -13 -41 -13 -67 -4 -22 7 -38 8 -50 1 -10 -5 -52
-12 -93 -16 -41 -3 -95 -9 -120 -12 -25 -3 -61 -7 -80 -8 -31 -3 -67 -8 -203
-31 -17 -3 -75 -11 -127 -17 -52 -7 -100 -16 -107 -20 -6 -4 -38 -10 -70 -13
-32 -4 -66 -10 -76 -16 -9 -5 -21 -7 -25 -4 -5 3 -26 1 -48 -5 -40 -9 -142
-27 -204 -36 -19 -3 -66 -6 -105 -8 -38 -2 -140 -8 -225 -13 -85 -5 -161 -7
-168 -4 -12 4 -70 -5 -192 -30 -30 -7 -73 -13 -95 -14 -22 -1 -65 -4 -95 -8
-30 -4 -80 -9 -110 -11 -30 -2 -91 -7 -135 -10 -44 -3 -95 -6 -113 -5 -19 0
-40 -4 -48 -8 -14 -8 8 -7 166 4 154 10 186 13 240 20 30 4 73 7 95 8 22 1 65
7 95 14 122 25 180 34 192 30 7 -3 83 -1 168 4 85 5 187 11 225 13 39 2 86 5
105 8 62 9 164 27 204 36 22 6 43 8 48 5 4 -3 16 -1 25 4 10 6 44 12 76 16 32
3 63 8 69 12 5 4 24 8 42 11 62 8 171 23 186 27 8 1 42 6 75 11 33 4 69 10 80
12 11 2 36 6 55 7 19 2 55 6 80 9 25 3 79 9 120 12 41 4 83 11 93 17 13 7 28
6 48 -3 24 -9 35 -9 57 1 15 7 50 16 77 20 49 7 49 8 10 8 -22 1 -56 -6 -75
-14z"/>
<path d="M11505 4068 c-11 -7 -32 -11 -47 -9 -14 1 -45 -3 -68 -9 -23 -6 -81
-13 -128 -15 -78 -4 -85 -2 -68 10 11 8 15 15 9 15 -7 0 -15 -5 -18 -11 -4 -6
-17 -14 -29 -19 -33 -13 182 -4 236 10 27 7 59 10 72 8 14 -3 34 3 47 13 27
21 24 24 -6 7z"/>
<path d="M6157 4053 c-4 -3 -7 -24 -7 -45 0 -48 -27 -105 -42 -90 -8 8 -8 16
1 26 7 9 11 20 9 27 -2 6 -10 0 -17 -14 -11 -21 -11 -28 2 -47 l15 -22 17 25
c9 14 20 52 25 84 8 61 8 67 -3 56z"/>
<path d="M11129 4045 c-31 -17 -318 -55 -325 -43 -3 5 -13 7 -22 5 -10 -2 -30
3 -46 11 -30 14 -35 13 -131 -29 -11 -5 -49 -11 -85 -14 -81 -6 -120 -12 -128
-19 -3 -3 10 -4 29 -1 19 3 65 8 104 11 38 3 74 9 79 14 6 6 16 10 24 10 8 0
29 7 47 16 30 14 36 14 62 0 24 -13 25 -15 8 -17 -80 -8 -125 -16 -132 -22 -3
-4 10 -4 28 -1 19 2 51 6 71 9 20 2 46 10 57 17 14 9 24 9 31 2 7 -7 54 -5
153 8 136 17 191 31 203 49 7 12 4 11 -27 -6z"/>
<path d="M4895 4030 c-3 -5 -2 -10 4 -10 5 0 13 5 16 10 3 6 2 10 -4 10 -5 0
-13 -4 -16 -10z"/>
<path d="M4794 4000 c0 -13 4 -16 10 -10 7 7 7 13 0 20 -6 6 -10 3 -10 -10z"/>
<path d="M4840 4016 c0 -12 82 -96 94 -96 6 0 31 -25 55 -55 24 -30 47 -55 50
-55 3 -1 71 -64 151 -140 92 -89 152 -140 165 -139 18 0 18 1 3 7 -19 8 -266
238 -340 317 -25 27 -50 53 -55 57 -4 3 -34 30 -65 59 -32 28 -58 49 -58 45z"/>
<path d="M4761 3993 c0 -12 -10 -24 -21 -28 -11 -4 -27 -20 -35 -36 -9 -16
-19 -29 -24 -29 -12 0 -81 -72 -81 -84 0 -6 39 29 86 78 56 57 84 93 81 104
-3 12 -5 11 -6 -5z"/>
<path d="M5930 4001 c0 -8 -8 -11 -20 -8 -11 3 -18 1 -14 -4 3 -5 11 -9 19 -9
16 0 30 18 21 27 -3 4 -6 1 -6 -6z"/>
<path d="M9780 3944 c-40 -15 -80 -36 -85 -44 -3 -6 -18 -10 -32 -10 -23 0
-24 2 -12 17 13 15 12 15 -13 -1 -18 -12 -38 -16 -67 -12 -22 3 -43 1 -45 -3
-3 -4 -19 -8 -36 -9 -25 -1 -99 -42 -75 -42 5 0 16 7 26 16 9 8 31 16 48 16
18 1 34 4 36 8 2 4 39 5 82 4 51 -2 82 1 93 9 47 39 75 44 193 34 26 -2 49 -1
51 2 3 4 -17 7 -42 8 -26 1 -60 4 -77 7 -16 3 -37 3 -45 0z"/>
<path d="M9419 3886 c-2 -2 -18 -6 -35 -9 -17 -3 -41 -10 -52 -16 -12 -6 -25
-10 -29 -9 -19 4 -179 -15 -189 -23 -7 -6 -22 -6 -37 0 -15 6 -43 9 -64 7 -21
-2 -43 1 -49 5 -7 6 -23 3 -40 -6 -16 -8 -22 -15 -13 -15 8 0 20 5 27 12 8 8
15 8 24 1 7 -6 30 -9 51 -7 21 2 49 -1 64 -7 15 -6 30 -6 37 0 10 8 170 27
189 23 4 -1 17 3 29 9 11 6 35 13 52 16 26 4 63 23 45 23 -3 0 -8 -2 -10 -4z"/>
<path d="M6100 3870 c0 -5 6 -10 13 -10 8 0 7 -4 -3 -11 -13 -8 -13 -9 2 -7 9
2 24 -6 32 -17 8 -11 17 -18 20 -15 3 3 -6 20 -20 38 -25 32 -44 41 -44 22z"/>
<path d="M7675 3859 c-11 -17 1 -21 15 -4 8 9 8 15 2 15 -6 0 -14 -5 -17 -11z"/>
<path d="M6108 3825 c-10 -10 11 -47 23 -40 5 4 9 1 9 -5 0 -6 5 -8 10 -5 12
7 14 26 3 24 -20 -3 -32 2 -35 17 -2 9 -6 13 -10 9z"/>
<path d="M10137 3818 c-6 -4 -15 -4 -20 -1 -4 3 -16 -2 -25 -10 -12 -10 -49
-17 -117 -22 -55 -3 -134 -8 -175 -11 -41 -3 -133 -6 -205 -7 -89 -1 -136 -6
-150 -15 l-20 -14 20 8 c11 5 79 9 150 10 72 2 164 5 205 8 41 3 120 8 175 11
58 4 106 12 115 20 8 7 22 13 30 13 8 1 37 3 63 5 26 2 50 0 53 -5 3 -4 11 -8
17 -8 7 0 3 6 -8 12 -22 13 -90 17 -108 6z"/>
<path d="M4531 3749 c-54 -74 -49 -89 6 -17 48 64 57 78 46 77 -4 0 -28 -27
-52 -60z"/>
<path d="M5694 3781 c-23 -16 -79 -67 -126 -115 -48 -47 -93 -86 -100 -86 -8
0 -27 -13 -43 -30 -16 -16 -36 -30 -44 -31 -11 0 -12 -2 -3 -6 6 -2 9 -10 6
-16 -4 -7 13 7 37 29 24 23 54 45 66 48 12 4 41 28 63 54 57 65 180 172 197
172 8 0 17 -9 20 -20 3 -11 10 -20 15 -20 15 0 -17 44 -34 48 -8 1 -32 -10
-54 -27z"/>
<path d="M5735 3769 c-4 -6 -5 -12 -2 -15 2 -3 7 2 10 11 7 17 1 20 -8 4z"/>
<path d="M9095 3752 c21 -20 75 -31 105 -22 17 5 37 7 43 5 7 -2 26 -6 42 -9
22 -5 26 -4 15 4 -12 8 -9 10 13 10 16 0 26 -4 23 -9 -3 -4 7 -6 22 -3 l27 5
-28 8 c-29 8 -162 3 -176 -6 -5 -3 -28 2 -52 10 -24 9 -39 12 -34 7z"/>
<path d="M5840 3731 c0 -6 4 -11 9 -11 5 0 12 -8 14 -17 4 -15 5 -15 6 -2 0 9
-6 22 -14 29 -10 9 -15 9 -15 1z"/>
<path d="M9049 3726 c-5 -4 -163 -17 -254 -21 -33 -1 -79 -7 -102 -14 -26 -7
-88 -10 -158 -8 -64 2 -111 0 -104 -4 15 -9 -51 -19 -121 -18 -70 2 -179 -11
-185 -21 -2 -4 17 -3 43 2 26 5 85 9 132 9 47 0 103 5 125 11 22 7 82 11 133
10 51 -2 111 3 135 9 23 7 69 13 102 14 86 4 238 16 252 20 7 2 15 0 18 -5 8
-12 52 -13 59 -1 3 4 -6 6 -19 3 -14 -2 -31 1 -38 7 -8 6 -16 9 -18 7z"/>
<path d="M5786 3706 c3 -8 21 -22 40 -31 19 -9 34 -21 34 -27 0 -6 2 -9 5 -6
9 9 -7 38 -21 38 -8 0 -23 9 -34 20 -24 24 -31 25 -24 6z"/>
<path d="M5948 3683 c-8 -10 -20 -27 -26 -38 l-11 -20 -1 20 c-1 16 -4 14 -15
-10 -7 -16 -75 -95 -150 -175 -130 -138 -136 -147 -131 -179 4 -29 47 -76 263
-288 142 -140 278 -273 303 -297 55 -52 100 -83 100 -67 0 6 -5 11 -11 11 -26
0 -649 621 -649 647 0 13 65 90 171 202 93 100 167 181 162 181 -4 0 -1 4 7
10 8 5 12 11 9 15 -3 3 -13 -3 -21 -12z"/>
<path d="M8031 3684 c0 -11 3 -14 6 -6 3 7 2 16 -1 19 -3 4 -6 -2 -5 -13z"/>
<path d="M5155 3620 c3 -5 8 -10 11 -10 2 0 4 5 4 10 0 6 -5 10 -11 10 -5 0
-7 -4 -4 -10z"/>
<path d="M4499 3583 c12 -16 83 -104 159 -198 102 -125 145 -171 163 -173 17
-2 40 11 79 44 30 26 79 65 108 88 30 23 70 53 89 69 22 17 48 27 68 27 30 0
42 -11 134 -127 56 -70 101 -135 101 -144 0 -17 -59 -74 -146 -143 -143 -114
-170 -160 -120 -208 13 -13 71 -77 128 -143 58 -66 119 -133 135 -148 l30 -28
-48 -87 c-27 -48 -49 -92 -49 -98 0 -29 -70 -101 -168 -171 -154 -110 -208
-152 -280 -217 -34 -31 -68 -56 -75 -56 -28 0 -117 82 -117 107 0 6 -9 18 -21
29 -12 10 -28 32 -36 49 -8 16 -59 94 -112 173 -123 184 -126 189 -110 208 7
8 33 27 58 41 202 116 251 152 251 187 0 22 -72 167 -106 211 -12 17 -25 42
-29 57 -10 40 -29 51 -73 44 -37 -6 -179 -78 -280 -144 -72 -46 -91 -40 -137
43 -20 36 -41 68 -47 71 -5 3 -18 26 -28 50 -11 24 -24 44 -30 44 -5 0 -10 7
-10 15 0 8 -7 15 -15 15 -12 0 -11 -5 6 -22 12 -13 28 -39 36 -58 9 -19 26
-48 40 -64 13 -16 35 -50 48 -76 37 -73 61 -77 154 -21 244 143 287 159 315
120 9 -13 16 -30 16 -38 0 -8 10 -28 23 -45 38 -50 107 -182 106 -202 0 -24
-31 -48 -149 -117 -160 -93 -173 -104 -165 -135 3 -15 41 -78 83 -140 42 -62
95 -143 117 -180 36 -62 68 -107 109 -153 12 -15 5 -30 -66 -138 -45 -67 -89
-126 -98 -131 -24 -13 -563 -31 -615 -21 -64 12 -79 25 -109 95 -16 36 -35 66
-42 66 -8 0 -14 5 -14 12 0 13 -10 3 -89 -92 -69 -82 -120 -129 -146 -136 -11
-3 -136 -4 -277 -2 -255 3 -257 3 -282 27 -30 28 -50 82 -41 111 3 11 38 45
77 75 38 30 65 55 58 55 -6 0 -42 -25 -80 -55 -65 -52 -68 -57 -66 -92 3 -42
26 -92 52 -114 14 -11 69 -15 273 -17 141 -2 271 -1 289 3 34 6 86 54 174 162
28 35 56 59 63 57 7 -3 27 -36 43 -73 32 -72 39 -77 112 -91 55 -11 605 7 630
20 10 5 53 63 96 129 79 119 79 120 99 100 12 -10 35 -21 51 -25 27 -5 39 2
105 59 96 84 141 120 267 208 116 81 144 111 177 185 48 108 103 191 138 208
19 8 40 22 47 31 16 20 84 20 100 0 7 -8 18 -15 24 -15 6 0 28 -14 49 -31 39
-32 44 -50 28 -103 -5 -17 -17 -58 -26 -91 -10 -33 -24 -78 -31 -100 -7 -22
-34 -110 -59 -195 -26 -85 -56 -179 -66 -208 -26 -71 -25 -113 4 -140 30 -28
55 -31 487 -47 69 -3 177 -7 240 -10 411 -19 962 -37 1178 -39 253 -1 254 -1
272 22 27 33 69 171 71 233 2 64 0 73 -27 119 -63 106 -71 132 -77 243 -3 60
-9 113 -15 119 -6 6 -7 -5 -1 -34 4 -24 8 -77 9 -119 0 -72 3 -81 55 -182 62
-122 63 -136 18 -278 -37 -120 -23 -114 -312 -112 -210 1 -773 19 -1171 38
-63 3 -171 7 -240 10 -432 16 -446 18 -477 46 -28 27 -29 61 -4 131 10 29 40
123 66 208 25 85 52 173 59 195 7 22 21 67 31 100 9 33 21 74 26 91 22 73 19
78 -87 152 -18 12 -18 13 4 8 12 -2 22 -1 22 3 0 5 -31 9 -69 9 -53 1 -74 -3
-92 -17 -13 -10 -38 -26 -56 -34 l-32 -17 -59 63 c-33 34 -92 100 -132 147
-40 47 -83 95 -96 107 -13 12 -24 30 -24 40 0 20 63 85 145 149 89 70 145 130
145 156 0 22 -158 235 -198 266 -28 21 -86 15 -125 -15 -86 -67 -165 -130
-206 -165 -24 -21 -50 -38 -57 -38 -7 0 -70 71 -141 158 -70 86 -140 171 -155
187 -15 17 -28 33 -28 38 0 4 -5 7 -11 7 -6 0 -1 -12 10 -27z"/>
<path d="M10195 3600 c-3 -4 16 -11 41 -15 26 -3 54 -9 63 -12 9 -4 13 -3 10
1 -11 12 -109 35 -114 26z"/>
<path d="M5215 3570 c3 -5 11 -10 16 -10 6 0 7 5 4 10 -3 6 -11 10 -16 10 -6
0 -7 -4 -4 -10z"/>
<path d="M10190 3571 c0 -14 23 -27 55 -30 17 -2 36 -8 44 -14 12 -10 12 -9 1
9 -8 13 -20 20 -32 16 -10 -2 -29 3 -43 12 -14 9 -25 12 -25 7z"/>
<path d="M320 3509 c0 -19 -86 -64 -143 -74 -20 -4 -40 -11 -43 -16 -3 -5 -27
-9 -53 -9 -28 0 -55 -6 -67 -16 -18 -15 -18 -15 3 -5 12 6 41 11 66 11 24 0
47 3 51 8 4 4 11 7 14 8 38 4 152 51 189 78 1 1 -2 8 -7 16 -8 13 -10 13 -10
-1z"/>
<path d="M5300 3512 c0 -14 48 -47 57 -38 3 3 1 6 -5 6 -6 0 -20 10 -32 22
-11 12 -20 17 -20 10z"/>
<path d="M4250 3501 c0 -5 -9 -12 -19 -16 -11 -3 -22 -13 -25 -21 -4 -11 1
-10 20 5 15 11 30 19 34 16 3 -2 7 2 7 10 0 8 -4 15 -9 15 -4 0 -8 -4 -8 -9z"/>
<path d="M5244 3460 c32 -30 62 -63 66 -74 7 -16 9 -17 9 -4 1 21 -66 96 -104
116 -21 10 -12 -1 29 -38z"/>
<path d="M4304 3476 c-9 -38 36 -105 136 -199 25 -23 59 -57 75 -75 17 -19 50
-55 75 -81 25 -26 50 -56 57 -66 6 -11 12 -14 12 -7 1 7 -23 39 -51 71 -29 32
-67 74 -83 92 -17 19 -50 53 -75 75 -97 89 -143 152 -136 187 7 33 -1 36 -10
3z"/>
<path d="M4218 3405 c-10 -13 -36 -36 -58 -52 -22 -15 -40 -33 -40 -40 0 -6
12 -2 26 10 74 61 96 84 93 94 -2 6 -12 1 -21 -12z"/>
<path d="M5946 3384 c-5 -13 -9 -14 -21 -4 -9 7 -15 8 -15 2 0 -5 8 -13 17
-16 19 -8 51 18 35 28 -5 3 -13 -1 -16 -10z"/>
<path d="M7122 3329 c6 -19 14 -54 18 -79 7 -42 7 -43 9 -10 0 19 -5 52 -12
72 -17 48 -30 62 -15 17z"/>
<path d="M5052 3300 c-27 -11 -79 -51 -188 -145 -45 -38 -97 -80 -115 -93 -74
-50 -77 -53 -44 -39 40 16 69 37 175 127 131 111 168 140 179 140 5 0 13 5 16
10 7 12 7 12 -23 0z"/>
<path d="M5084 3288 c-4 -6 -3 -8 4 -4 6 3 15 -2 21 -11 9 -16 10 -15 8 5 -1
23 -21 30 -33 10z"/>
<path d="M7476 3263 c-3 -3 -6 -11 -6 -17 0 -6 4 -6 8 2 7 10 14 8 34 -8 15
-11 30 -20 35 -20 4 0 -1 8 -12 16 -32 25 -52 34 -59 27z"/>
<path d="M5050 3256 c0 -2 7 -9 15 -16 9 -7 15 -8 15 -2 0 5 -7 12 -15 16 -8
3 -15 4 -15 2z"/>
<path d="M5121 3240 c0 -8 4 -22 9 -30 12 -18 12 -2 0 25 -6 13 -9 15 -9 5z"/>
<path d="M5167 3235 c2 -7 13 -11 24 -8 25 7 24 10 -5 15 -16 3 -23 1 -19 -7z"/>
<path d="M5232 3189 c-1 -24 -10 -43 -27 -59 -14 -13 -25 -28 -24 -34 0 -6 3
-5 6 2 2 6 10 9 16 5 7 -3 9 -2 4 2 -4 5 2 18 14 31 15 16 19 31 16 55 l-4 34
-1 -36z"/>
<path d="M5464 3178 c14 -34 11 -58 -8 -70 -7 -5 -5 -8 5 -8 9 0 19 10 21 23
5 28 -9 87 -22 87 -5 0 -3 -15 4 -32z"/>
<path d="M7445 3190 c3 -5 8 -10 11 -10 2 0 4 5 4 10 0 6 -5 10 -11 10 -5 0
-7 -4 -4 -10z"/>
<path d="M3982 3145 c-10 -12 -10 -15 2 -15 7 0 16 7 20 15 7 19 -5 19 -22 0z"/>
<path d="M5110 3158 c0 -3 9 -15 20 -28 11 -13 20 -19 20 -13 0 5 -9 18 -20
28 -11 10 -20 16 -20 13z"/>
<path d="M5179 3069 c-24 -17 -53 -41 -64 -53 -11 -13 -63 -62 -116 -109 l-97
-86 9 -45 c10 -52 44 -110 76 -127 13 -7 25 -20 28 -30 3 -9 12 -20 20 -23 8
-3 15 -10 15 -15 0 -5 21 -28 46 -52 25 -24 55 -55 67 -68 100 -110 131 -140
136 -135 3 3 -14 25 -40 47 -25 23 -54 57 -64 75 -11 17 -27 34 -36 37 -9 3
-43 36 -75 72 -33 37 -72 81 -88 98 -50 51 -76 96 -76 131 0 29 11 43 93 115
50 46 103 94 117 108 14 15 43 40 65 58 51 41 41 42 -16 2z"/>
<path d="M3665 3046 c-67 -45 -72 -52 -77 -117 -7 -90 -53 -137 -149 -153 -21
-4 -53 -18 -73 -31 -42 -29 -76 -31 -135 -10 -42 14 -44 14 -111 -20 -72 -37
-100 -65 -100 -103 0 -12 -7 -25 -15 -28 -8 -4 -15 -10 -15 -15 0 -6 9 -5 20
1 11 6 20 21 20 34 0 36 36 73 101 106 57 28 61 29 100 15 56 -20 101 -19 130
3 31 24 88 46 96 39 3 -4 28 5 55 20 58 31 79 66 87 142 6 52 9 57 61 98 57
45 75 48 160 28 14 -3 9 1 -10 9 -57 23 -91 19 -145 -18z"/>
<path d="M4678 3043 c7 -3 16 -2 19 1 4 3 -2 6 -13 5 -11 0 -14 -3 -6 -6z"/>
<path d="M3689 2933 c-13 -21 -33 -46 -44 -55 -11 -10 -15 -17 -9 -18 19 0 93
95 81 106 -2 3 -15 -12 -28 -33z"/>
<path d="M3826 2915 c11 -90 15 -103 30 -109 25 -10 29 -7 10 7 -12 9 -20 31
-23 63 -3 27 -9 56 -14 64 -5 9 -6 -1 -3 -25z"/>
<path d="M3710 2871 c0 -5 -14 -14 -30 -20 -17 -5 -38 -24 -48 -40 -9 -17 -24
-31 -32 -32 -11 0 -12 -2 -2 -6 7 -3 30 13 51 36 21 23 45 41 54 41 10 0 17 7
17 15 0 8 -2 15 -5 15 -3 0 -5 -4 -5 -9z"/>
<path d="M4419 2868 c-11 -8 -11 -9 2 -5 12 4 25 -8 45 -39 15 -24 32 -44 37
-44 4 0 -3 15 -17 33 -15 19 -26 39 -26 44 0 16 -25 23 -41 11z"/>
<path d="M4307 2810 c-38 -22 -71 -40 -73 -40 -3 0 -35 -20 -73 -45 -37 -24
-85 -52 -105 -60 -43 -18 -91 -12 -106 13 -9 16 -9 16 -10 0 0 -10 13 -21 36
-28 30 -10 44 -9 95 10 33 13 62 26 65 31 8 13 223 140 252 149 20 6 22 8 7 9
-11 0 -51 -17 -88 -39z"/>
<path d="M4411 2794 c9 -10 19 -27 22 -36 4 -10 11 -18 16 -18 15 0 -11 47
-34 60 -19 12 -19 12 -4 -6z"/>
<path d="M3355 2779 c-4 -6 -5 -12 -2 -15 2 -3 7 2 10 11 7 17 1 20 -8 4z"/>
<path d="M3906 2751 c21 -42 37 -49 20 -9 -8 18 -19 34 -25 36 -5 2 -3 -10 5
-27z"/>
<path d="M4500 2753 c0 -7 5 -15 10 -18 6 -4 8 -16 5 -28 -5 -21 -4 -21 7 1 9
19 8 26 -5 40 -10 9 -17 11 -17 5z"/>
<path d="M3990 2700 c0 -6 7 -10 15 -10 8 0 15 2 15 4 0 2 -7 6 -15 10 -8 3
-15 1 -15 -4z"/>
<path d="M3391 2684 c0 -11 3 -14 6 -6 3 7 2 16 -1 19 -3 4 -6 -2 -5 -13z"/>
<path d="M3434 2675 c-12 -19 -14 -29 -6 -36 7 -5 10 -6 7 -2 -3 3 2 17 11 31
8 13 13 26 11 29 -3 2 -13 -7 -23 -22z"/>
<path d="M4566 2677 c-19 -20 -20 -20 -28 -1 -7 17 -8 16 -4 -3 2 -13 0 -23
-5 -23 -5 0 -18 -9 -28 -19 -11 -11 -63 -50 -118 -87 -109 -75 -206 -154 -198
-162 3 -3 -1 -12 -8 -21 -6 -8 14 10 46 42 33 31 86 74 119 96 107 70 273 201
253 200 -5 0 -19 -10 -29 -22z"/>
<path d="M3167 2676 c-4 -10 -1 -13 8 -9 8 3 12 9 9 14 -7 12 -11 11 -17 -5z"/>
<path d="M3360 2675 c0 -13 30 -62 45 -75 13 -11 11 -4 -5 28 -20 39 -40 62
-40 47z"/>
<path d="M3306 2625 c-11 -19 -23 -35 -28 -35 -4 0 -8 -6 -8 -12 0 -7 11 -2
23 12 12 14 30 25 40 24 13 -2 13 -1 2 3 -10 3 -14 11 -10 24 10 29 2 23 -19
-16z"/>
<path d="M7141 2653 c-36 -3 -66 -12 -90 -29 -19 -13 -32 -24 -27 -24 4 0 20
8 34 19 34 23 190 38 224 21 22 -11 22 -10 4 4 -19 16 -32 16 -145 9z"/>
<path d="M7306 2649 c2 -4 13 -7 24 -6 23 2 17 10 -10 12 -10 1 -17 -2 -14 -6z"/>
<path d="M7385 2649 c11 -6 37 -28 58 -47 20 -20 37 -32 37 -28 0 16 -66 73
-91 80 -22 6 -22 6 -4 -5z"/>
<path d="M3930 2643 c0 -16 35 -43 56 -42 14 0 15 2 4 6 -8 3 -25 15 -37 26
-13 11 -23 16 -23 10z"/>
<path d="M6280 2600 c0 -5 6 -10 14 -10 8 0 16 -7 20 -15 3 -8 11 -15 17 -15
8 0 8 5 -1 16 -19 22 -50 37 -50 24z"/>
<path d="M3435 2509 l34 -74 44 2 c25 0 55 8 68 16 13 8 40 18 59 22 19 4 44
13 55 21 47 30 130 55 163 49 30 -5 36 -14 68 -82 19 -42 37 -88 41 -102 3
-14 10 -31 15 -38 6 -7 11 -35 11 -62 2 -58 -16 -83 -77 -105 -97 -35 -232
-99 -248 -117 -17 -20 -17 -23 3 -61 12 -23 23 -53 26 -67 2 -14 8 -30 14 -35
5 -6 10 -19 10 -30 1 -14 3 -16 6 -5 2 8 -3 28 -12 45 -8 16 -10 30 -5 32 5 2
-4 24 -19 49 -23 37 -27 50 -18 64 10 16 194 100 249 114 13 4 37 17 53 29 27
21 29 29 29 80 -1 32 -6 67 -12 79 -6 12 -27 62 -46 111 -20 50 -40 94 -45 99
-26 26 -150 5 -216 -37 -11 -8 -36 -17 -55 -21 -19 -4 -51 -16 -70 -26 -40
-22 -74 -24 -87 -6 -5 6 -17 33 -27 59 -9 25 -24 52 -31 58 -8 7 1 -21 20 -61z"/>
<path d="M2921 2540 c-24 -17 -51 -30 -61 -30 -9 0 -20 -4 -25 -9 -6 -4 -32
-14 -60 -20 -27 -7 -63 -18 -79 -24 -22 -8 -40 -6 -83 8 -53 18 -56 18 -109 0
-70 -24 -112 -55 -138 -102 -12 -21 -32 -43 -46 -49 -247 -119 -247 -119 -542
-299 -162 -98 -196 -130 -214 -195 -13 -49 -6 -80 21 -90 25 -10 270 -42 450
-60 61 -6 151 -15 200 -21 184 -19 299 -29 356 -29 57 0 60 1 130 63 127 110
172 140 234 158 71 21 53 25 -22 5 -55 -15 -95 -43 -213 -148 l-75 -68 -60 0
c-33 0 -125 7 -205 15 -80 8 -190 19 -245 25 -240 23 -490 53 -539 66 -31 7
-36 35 -18 90 18 56 44 78 219 186 282 172 409 241 526 287 15 6 36 25 45 43
25 47 60 77 121 104 63 28 76 29 126 8 21 -9 48 -14 59 -11 46 11 142 38 156
44 8 4 23 7 32 8 16 2 118 63 118 71 0 10 -18 2 -59 -26z"/>
<path d="M5450 2550 c-8 -5 -12 -12 -9 -15 4 -3 12 1 19 10 14 17 11 19 -10 5z"/>
<path d="M6630 2555 c0 -16 23 -46 43 -55 l22 -11 -22 20 c-13 10 -23 24 -23
30 0 5 -4 13 -10 16 -5 3 -10 3 -10 0z"/>
<path d="M7496 2539 c12 -13 24 -35 27 -49 4 -14 18 -38 32 -55 l26 -30 -25
40 c-28 43 -33 60 -13 49 6 -5 0 7 -14 26 -14 19 -32 36 -40 38 -8 3 -6 -5 7
-19z"/>
<path d="M3215 2539 c-4 -6 -5 -12 -2 -15 2 -3 7 2 10 11 7 17 1 20 -8 4z"/>
<path d="M3235 2530 c-4 -11 0 -29 9 -42 9 -12 16 -41 16 -65 0 -23 4 -44 8
-47 13 -8 -3 100 -17 117 -7 9 -10 25 -6 37 3 11 4 20 1 20 -2 0 -7 -9 -11
-20z"/>
<path d="M6320 2545 c0 -2 10 -10 23 -16 20 -11 21 -11 8 4 -13 16 -31 23 -31
12z"/>
<path d="M2987 2501 c-16 -16 -48 -40 -71 -52 -90 -50 -128 -81 -143 -117 -19
-45 -13 -134 10 -159 19 -22 81 -21 147 1 25 8 91 18 148 22 94 6 104 5 117
-12 25 -33 55 -146 70 -262 4 -32 2 -42 -6 -36 -7 4 -9 3 -6 -2 3 -5 -2 -19
-11 -32 -17 -22 -141 -60 -207 -63 -24 -1 -26 -3 -7 -6 12 -3 65 5 117 17 85
19 96 25 114 53 17 28 19 40 11 97 -17 118 -34 182 -63 239 -12 23 -13 24
-125 17 -63 -4 -135 -14 -161 -23 -62 -22 -111 -18 -135 10 -29 35 -19 128 19
167 16 17 34 30 40 30 7 0 20 9 30 20 10 11 27 22 39 26 29 9 84 51 96 74 14
26 10 25 -23 -9z"/>
<path d="M7437 2480 c6 -67 -9 -88 -54 -73 -16 5 -41 6 -58 2 l-30 -8 30 1
c63 1 68 -1 56 -16 -12 -15 -87 -16 -110 -2 -6 4 -16 4 -22 1 -6 -4 -33 -8
-61 -9 -30 -1 -54 -7 -61 -16 -7 -8 -25 -17 -42 -19 -16 -1 -43 -10 -58 -18
-16 -8 -49 -17 -75 -20 -26 -3 -51 -9 -57 -15 -6 -6 -5 -7 5 -4 8 3 34 7 57
10 24 3 55 12 71 20 15 8 43 16 61 18 18 2 36 10 41 18 6 9 28 15 59 16 27 1
54 5 60 9 6 3 16 3 22 -1 18 -11 98 -13 105 -3 3 5 21 16 40 24 31 13 34 17
33 57 0 24 -4 52 -9 63 -5 12 -6 -1 -3 -35z"/>
<path d="M6380 2495 c7 -8 20 -15 28 -15 13 0 12 3 -4 15 -25 19 -40 19 -24 0z"/>
<path d="M7576 2499 c5 -8 10 -25 12 -38 4 -31 40 -101 51 -101 6 0 -2 20 -15
44 -14 25 -26 57 -27 72 -1 15 -8 29 -16 32 -10 3 -11 0 -5 -9z"/>
<path d="M5694 2468 c1 -13 -4 -22 -11 -21 -9 2 -9 -5 -1 -30 14 -41 23 -50
14 -15 -4 16 -1 36 6 48 9 14 9 23 2 30 -8 8 -10 4 -10 -12z"/>
<path d="M6440 2464 c14 -35 51 -87 57 -80 3 3 -6 21 -21 40 -14 19 -26 39
-26 45 0 5 -4 13 -10 16 -6 4 -6 -3 0 -21z"/>
<path d="M7641 2444 c0 -11 3 -14 6 -6 3 7 2 16 -1 19 -3 4 -6 -2 -5 -13z"/>
<path d="M3300 2420 c0 -6 7 -10 15 -10 8 0 15 2 15 4 0 2 -7 6 -15 10 -8 3
-15 1 -15 -4z"/>
<path d="M3598 2377 c-179 -60 -226 -69 -265 -50 -18 8 -33 23 -34 32 0 11 -2
12 -6 3 -7 -18 23 -49 54 -55 29 -5 149 17 167 32 15 12 184 63 219 65 16 1
27 -3 27 -10 0 -7 3 -15 8 -17 4 -3 7 5 7 18 0 20 -5 23 -32 22 -18 -1 -83
-19 -145 -40z"/>
<path d="M2741 2398 c-1 -10 -4 -18 -9 -18 -4 0 -35 -27 -68 -60 -66 -63 -81
-100 -65 -155 6 -25 8 -19 7 29 l0 58 73 67 c48 43 72 72 68 82 -4 11 -6 10
-6 -3z"/>
<path d="M3735 2363 c8 -18 15 -42 16 -55 0 -22 1 -22 8 -3 9 21 3 36 -24 70
-15 19 -15 18 0 -12z"/>
<path d="M6791 2383 c0 -11 79 -73 91 -73 5 0 -5 12 -24 27 -18 16 -39 34 -46
40 -15 15 -22 16 -21 6z"/>
<path d="M6542 2366 c7 -8 15 -12 17 -11 5 6 -10 25 -20 25 -5 0 -4 -6 3 -14z"/>
<path d="M3250 2361 c0 -6 4 -13 10 -16 6 -3 7 1 4 9 -7 18 -14 21 -14 7z"/>
<path d="M4193 2324 c6 -37 25 -73 72 -134 19 -25 41 -60 50 -79 8 -18 35 -64
60 -101 25 -37 45 -73 45 -79 0 -6 5 -11 11 -11 5 0 17 -15 25 -32 32 -67 38
-76 65 -92 18 -11 30 -13 34 -6 4 6 3 9 -2 8 -20 -7 -55 32 -89 100 -9 17 -20
32 -25 32 -5 0 -9 5 -9 11 0 7 -25 49 -55 94 -30 45 -55 86 -55 91 0 6 -8 19
-17 30 -34 37 -95 137 -99 162 -7 38 -17 43 -11 6z"/>
<path d="M6555 2330 c3 -5 11 -10 16 -10 6 0 7 5 4 10 -3 6 -11 10 -16 10 -6
0 -7 -4 -4 -10z"/>
<path d="M7648 2309 c2 -16 8 -29 12 -29 9 0 1 48 -9 55 -4 2 -5 -9 -3 -26z"/>
<path d="M10437 2317 c-3 -7 3 -26 12 -43 14 -27 18 -29 38 -19 13 7 20 15 16
18 -3 4 0 7 7 7 9 0 5 9 -10 25 -25 27 -55 33 -63 12z m47 -16 c14 -16 15 -20
2 -30 -11 -10 -17 -8 -30 10 -25 37 -2 54 28 20z"/>
<path d="M4050 2313 c0 -5 5 -14 12 -21 7 -7 9 -12 6 -12 -4 0 -1 -15 7 -34 8
-18 12 -35 10 -38 -8 -8 -12 -147 -5 -143 4 3 8 35 9 72 1 38 2 73 3 78 2 19
-23 94 -32 100 -6 3 -10 2 -10 -2z"/>
<path d="M5212 2264 c-13 -20 -22 -38 -19 -40 2 -2 16 14 31 36 14 22 23 40
19 40 -5 0 -18 -16 -31 -36z"/>
<path d="M6621 2263 c13 -15 27 -30 30 -33 3 -3 12 -16 18 -28 7 -13 15 -21
18 -18 8 7 -66 106 -80 106 -6 0 0 -12 14 -27z"/>
<path d="M6835 2252 c-42 -25 -104 -42 -111 -31 -3 5 -13 9 -22 9 -12 0 -9 -4
8 -13 27 -14 94 -3 122 20 8 7 25 17 39 22 13 5 17 10 9 10 -8 1 -28 -7 -45
-17z"/>
<path d="M3856 2253 c-4 -5 -14 -23 -21 -40 -18 -42 -39 -44 -33 -4 2 17 1 28
-4 25 -4 -3 -8 -18 -8 -34 0 -27 -8 -33 -122 -89 -68 -32 -133 -62 -145 -66
-12 -3 -33 -15 -46 -25 -23 -18 -24 -23 -15 -57 5 -21 11 -49 14 -63 21 -112
26 -126 60 -148 19 -12 34 -18 34 -12 0 6 -11 15 -24 20 -28 10 -33 17 -41 56
-9 38 -24 111 -32 147 -7 35 16 62 66 78 36 12 301 138 301 144 0 1 7 19 15
39 15 36 15 43 1 29z"/>
<path d="M4964 2209 c-22 -24 -24 -29 -8 -21 11 6 26 18 33 26 20 24 44 8 37
-26 -6 -32 8 -30 17 2 3 13 -2 25 -16 35 -28 20 -29 20 -63 -16z"/>
<path d="M2720 2168 c-37 -42 -37 -42 -8 -24 23 15 44 45 36 51 -2 1 -14 -11
-28 -27z"/>
<path d="M2620 2141 c0 -29 97 -52 129 -32 10 6 0 8 -28 4 -34 -5 -48 -1 -72
16 -16 12 -29 17 -29 12z"/>
<path d="M2850 2118 c0 -22 23 -29 58 -16 23 9 35 8 61 -5 20 -10 31 -12 29
-5 -7 20 -69 31 -97 18 -21 -10 -27 -9 -38 6 -11 15 -13 16 -13 2z"/>
<path d="M10763 2099 c-35 -10 -51 -42 -33 -64 17 -20 83 -53 98 -48 6 3 12
13 12 23 0 11 5 30 11 43 8 19 8 30 -1 43 -10 17 -11 16 -6 -8 4 -15 2 -30 -4
-33 -5 -3 -10 -17 -10 -30 0 -13 -3 -26 -8 -29 -12 -7 -87 48 -87 64 0 9 21
22 50 32 52 18 34 23 -22 7z"/>
<path d="M3027 2078 c4 -7 8 -39 9 -71 1 -45 6 -63 24 -82 13 -14 19 -29 15
-37 -6 -10 -5 -11 5 -1 11 11 10 17 -7 35 -24 27 -40 98 -23 108 13 8 -4 60
-20 60 -7 0 -8 -5 -3 -12z"/>
<path d="M6686 2064 c-20 -19 -20 -20 -2 -27 10 -4 13 -1 10 8 -7 16 32 30 49
17 15 -11 75 -27 64 -16 -9 9 -77 34 -94 34 -6 0 -19 -7 -27 -16z"/>
<path d="M10886 2053 c5 -5 12 -12 16 -18 4 -6 8 -2 8 8 0 9 -7 17 -17 17 -9
0 -12 -3 -7 -7z"/>
<path d="M10790 2040 c-8 -5 -10 -10 -5 -10 6 0 17 5 25 10 8 5 11 10 5 10 -5
0 -17 -5 -25 -10z"/>
<path d="M6346 1930 c3 -3 15 -5 27 -5 14 0 23 -8 28 -25 4 -15 7 -18 8 -8 1
9 6 20 12 23 18 12 73 12 94 1 24 -13 95 -89 95 -102 0 -5 9 -15 20 -22 11 -7
20 -9 20 -5 0 7 -4 12 -65 75 -19 21 -35 41 -35 47 0 19 -85 32 -126 19 -12
-4 -25 -4 -29 0 -4 4 -17 7 -30 7 -14 1 -22 -2 -19 -5z"/>
<path d="M7182 1935 c3 -3 22 -8 42 -10 53 -7 103 -30 116 -54 7 -14 20 -21
38 -20 l27 2 -27 4 c-16 3 -28 11 -28 19 0 19 -74 52 -131 59 -24 3 -41 3 -37
0z"/>
<path d="M6827 1909 c-9 -6 -17 -18 -17 -27 0 -13 3 -12 16 6 13 19 18 21 31
10 9 -7 18 -12 20 -10 12 8 32 -1 41 -20 6 -13 11 -18 11 -11 1 6 9 9 20 6 11
-3 30 6 47 22 l29 26 -33 -22 c-31 -22 -34 -23 -65 -6 -56 29 -82 36 -100 26z"/>
<path d="M5844 1868 l-29 -32 28 18 c25 15 31 16 58 2 20 -10 29 -11 26 -3 -2
6 -14 14 -28 18 -13 3 -23 11 -21 17 3 18 -2 15 -34 -20z"/>
<path d="M7415 1875 c17 -13 42 -36 57 -52 15 -15 30 -24 33 -21 9 9 -36 52
-67 66 -16 6 -28 16 -28 22 0 5 -6 10 -12 10 -7 0 1 -12 17 -25z"/>
<path d="M1662 1849 c-22 -28 -23 -71 -1 -85 5 -3 4 7 -1 21 -13 34 -13 31 11
54 12 11 20 24 18 29 -2 5 -14 -4 -27 -19z"/>
<path d="M4535 1849 c-19 -9 -18 -9 2 -5 15 3 24 -2 28 -15 4 -10 11 -19 16
-19 6 0 6 7 -1 19 -14 27 -22 30 -45 20z"/>
<path d="M5795 1850 c-4 -6 -9 -8 -13 -6 -4 2 -16 -2 -27 -10 -16 -12 -17 -14
-2 -14 9 0 17 5 17 11 0 5 4 8 9 5 5 -3 14 1 21 9 7 8 10 15 7 15 -3 0 -9 -5
-12 -10z"/>
<path d="M2730 1817 c-35 -17 -90 -59 -90 -70 0 -4 14 2 31 15 67 50 84 58
114 53 24 -4 26 -3 10 4 -26 12 -35 12 -65 -2z"/>
<path d="M12887 1824 c-12 -12 -76 -21 -85 -12 -6 6 -27 4 -58 -7 -29 -10 -92
-19 -154 -21 -117 -5 -136 -7 -146 -17 -10 -10 -46 -9 -40 1 2 4 -4 8 -14 8
-11 0 -17 -3 -14 -6 3 -3 -23 -10 -58 -17 l-63 -12 60 6 c33 4 71 6 85 5 14
-1 32 2 40 5 27 11 44 13 150 17 62 2 125 11 154 21 34 12 52 13 59 6 11 -11
4 -15 -38 -24 -15 -4 -14 -5 6 -6 15 0 32 6 39 14 7 8 20 15 30 15 23 0 90 29
69 30 -9 0 -18 -3 -22 -6z"/>
<path d="M7660 1755 c30 -33 59 -62 64 -64 14 -6 -28 51 -56 74 -56 49 -59 45
-8 -10z"/>
<path d="M5740 1790 c-8 -5 -12 -12 -9 -15 4 -3 12 1 19 10 14 17 11 19 -10 5z"/>
<path d="M5695 1769 c-11 -17 1 -21 15 -4 8 9 8 15 2 15 -6 0 -14 -5 -17 -11z"/>
<path d="M7510 1764 c8 -10 30 -37 50 -60 19 -22 40 -47 45 -56 7 -12 16 -14
30 -8 19 8 19 9 -3 9 -12 1 -25 9 -29 19 -7 19 -82 105 -98 111 -5 2 -3 -4 5
-15z"/>
<path d="M12258 1775 c-2 -3 -26 -6 -52 -6 -29 -2 -42 -5 -34 -10 20 -13 -9
-12 -33 1 -10 6 -19 8 -19 6 0 -15 44 -27 64 -18 11 6 46 15 76 20 30 5 43 10
29 11 -14 0 -28 -1 -31 -4z"/>
<path d="M1850 1756 c14 -9 32 -15 40 -15 13 0 13 1 0 8 -8 5 -26 12 -40 15
l-25 7 25 -15z"/>
<path d="M11660 1746 c12 -15 22 -17 60 -12 25 4 125 7 223 7 98 1 176 4 173
6 -7 8 -343 5 -393 -3 -30 -5 -48 -2 -60 7 -17 13 -17 13 -3 -5z"/>
<path d="M3511 1718 c-1 -21 1 -38 3 -38 2 0 13 -3 23 -6 17 -6 17 -6 -1 8
-10 8 -17 19 -14 24 3 5 2 18 -3 29 -6 16 -8 12 -8 -17z"/>
<path d="M11075 1729 c-27 -10 -63 -17 -80 -15 -27 4 -28 4 -8 -6 17 -8 34 -6
75 7 29 10 76 22 103 25 l50 7 -45 1 c-25 0 -67 -8 -95 -19z"/>
<path d="M11355 1733 c-71 -6 -134 -9 -139 -6 -5 4 -6 1 -2 -5 4 -7 -12 -12
-51 -15 l-58 -4 60 2 c33 1 105 7 160 13 151 17 303 23 310 12 4 -6 12 -10 18
-10 7 0 3 6 -8 13 -25 15 -123 15 -290 0z"/>
<path d="M5580 1721 c0 -5 5 -13 10 -16 6 -3 10 -2 10 4 0 5 -4 13 -10 16 -5
3 -10 2 -10 -4z"/>
<path d="M5705 1719 c-4 -6 -13 -8 -21 -5 -7 3 -23 -4 -36 -14 -13 -11 -18
-19 -12 -20 6 0 17 7 24 15 8 9 17 12 24 6 7 -5 18 -1 30 10 11 11 14 19 8 19
-6 0 -14 -5 -17 -11z"/>
<path d="M12714 1690 c-34 -3 -68 -11 -76 -17 -8 -7 -18 -10 -21 -6 -13 13
-179 11 -225 -2 -33 -10 -51 -11 -65 -3 -16 8 -24 6 -41 -13 l-21 -23 22 18
c16 13 26 15 41 7 13 -7 32 -6 64 4 40 12 192 15 223 4 6 -2 19 2 30 8 11 6
55 13 98 16 43 3 81 7 84 10 5 6 -17 6 -113 -3z"/>
<path d="M6760 1683 c0 -6 -31 -11 -72 -12 -39 -1 -75 -4 -79 -7 -4 -2 -10 0
-14 6 -3 5 -12 10 -18 10 -7 0 -3 -6 8 -12 10 -6 46 -10 80 -8 33 1 74 2 90 0
73 -6 255 -5 238 1 -10 4 -57 4 -106 1 -75 -4 -90 -2 -107 13 -11 10 -20 14
-20 8z"/>
<path d="M7620 1687 c0 -2 18 -16 40 -31 22 -14 40 -23 40 -19 0 5 -15 17 -33
28 -40 25 -47 28 -47 22z"/>
<path d="M1197 463 c-15 -14 -6 -51 13 -56 25 -6 44 16 35 43 -6 19 -34 27
-48 13z m38 -24 c0 -7 -8 -15 -17 -17 -18 -3 -25 18 -11 32 10 10 28 1 28 -15z"/>
<path d="M12494 339 c-2 -3 68 -6 156 -7 88 0 165 -4 172 -8 10 -5 10 -4 2 5
-12 13 -322 22 -330 10z"/>
<path d="M8434 249 c-4 -7 0 -9 14 -5 23 8 33 -10 26 -46 l-5 -23 11 24 c6 13
8 32 5 42 -7 21 -40 26 -51 8z"/>
<path d="M8426 222 c-7 -12 47 -105 64 -110 11 -4 10 -1 -3 12 -18 19 -51 85
-49 99 2 9 -6 9 -12 -1z"/>
<path d="M3835 106 c-22 -6 -49 -16 -60 -22 -11 -6 -25 -9 -31 -7 -6 2 -31 -1
-55 -7 -24 -6 -66 -12 -94 -14 -27 -2 -51 -9 -53 -15 -2 -6 -11 -11 -20 -12
-11 0 -13 -2 -4 -6 7 -3 20 1 28 8 8 7 34 14 57 15 23 2 62 8 86 14 24 6 50 9
57 6 6 -2 21 2 32 10 12 8 39 15 60 17 22 1 38 5 35 10 -7 12 22 8 37 -5 12
-11 12 -10 1 5 -15 19 -19 19 -76 3z"/>
</g>
</svg>
